<svg xmlns="http://www.w3.org/2000/svg" width="109" height="89"><defs><clipPath id="a"><path data-name="Clip 2" d="M0 0h51.871v38.081H0z" transform="translate(0 .051)" fill="none"/></clipPath><clipPath id="b"><path data-name="Clip 5" d="M0 0h79.848v69.909H0z" transform="translate(.299 .091)" fill="none"/></clipPath></defs><g data-name="Group 11"><g data-name="Group 3"><path data-name="Clip 2" d="M0 1.949h51.871V40.03H0z" fill="none"/><g data-name="Group 3" clip-path="url(#a)" transform="translate(0 1.898)"><path data-name="Fill 1" d="M28.138 38.132a11.326 11.326 0 01-6.043-1.744 17.4 17.4 0 01-4.686-4.484 46.217 46.217 0 01-6.132-12.7 29.062 29.062 0 01-8.2-4.384A7.637 7.637 0 010 8.821a4.019 4.019 0 011.281-2.934 11.264 11.264 0 017.525-2.643 14.9 14.9 0 015.179.974 23.49 23.49 0 0112.85-4 21.348 21.348 0 019.517 2.259A14.6 14.6 0 0144.585.051a19.725 19.725 0 012.83.213 4.907 4.907 0 014.454 4.724c.043 1.608-.5 3.973-5.161 8.025a32.341 32.341 0 01-4.171 3.117 61.348 61.348 0 01-2.562 10.321c-2.57 7.262-6.166 11.174-10.69 11.625a11.446 11.446 0 01-1.147.056zM8.806 7.244A7.459 7.459 0 004 8.821c0 1.144.648 2.175 2.038 3.242a33.234 33.234 0 008.441 4.074c1.8 5.635 3.659 9.808 5.69 12.756 2.394 3.476 5.075 5.239 7.969 5.239.237 0 .49-.013.751-.038a6.34 6.34 0 004.3-2.91 23.418 23.418 0 003.011-6.068 57.627 57.627 0 002.66-11.639c.9-.181 3.148-1.677 5.22-3.48 2.4-2.088 3.815-3.92 3.788-4.9-.013-.483-.358-.776-1.026-.873a15.847 15.847 0 00-2.257-.173 11.551 11.551 0 00-7.938 3.193 17.9 17.9 0 00-9.813-3.02 20.2 20.2 0 00-12.356 4.6 12.12 12.12 0 00-5.672-1.58z" fill="#f8f5eb"/></g></g><g data-name="Group 6"><path data-name="Clip 5" d="M28.299 18.989h79.848v69.909H28.299z" fill="none"/><g data-name="Group 6" clip-path="url(#b)" transform="translate(28 18.898)"><path data-name="Fill 4" d="M64.576 70a6.649 6.649 0 01-4.951-2.009 8.608 8.608 0 01-2.187-5.02 7.059 7.059 0 01-9.552-4.28 15.5 15.5 0 01-.554-4.06 17.354 17.354 0 01-1.957-.788 17.819 17.819 0 01-6.518 1.28 14.449 14.449 0 01-5.112-.905c-.023 7.167-1.073 11.9-3.121 14.052a5.406 5.406 0 01-3.934 1.735 5.189 5.189 0 01-3.686-1.569c-1.253-1.258-2.065-3.227-2.556-6.2a6.455 6.455 0 01-4.733 1.892 5.674 5.674 0 01-4.151-1.816c-2.714-2.867-2.972-8.486-2.5-17.224-2.324-1.894-3.59-4.827-3.983-9.23a10.66 10.66 0 01-4.747-7.017 4.008 4.008 0 01.573-2.65 6.366 6.366 0 014.08-2.548c2.841-.818 8.128-2.34 10.669-16.792a4.009 4.009 0 011.743-2.645 15.485 15.485 0 018.577-2.777 14.659 14.659 0 014.578.76A14.992 14.992 0 0138.016.126a17.3 17.3 0 014.708.7 21.179 21.179 0 015.299-.735 16.416 16.416 0 018.59 2.475 19.356 19.356 0 018.106 1.658 13.611 13.611 0 015.6 4.7 20.72 20.72 0 015.134 2.449 11.39 11.39 0 013.852 4.058 6.749 6.749 0 01.364 5.734c-1.084 2.679-2.713 4.284-4.842 4.77a10.457 10.457 0 01-1.58 6.7 14.291 14.291 0 011.181 8.515 11.177 11.177 0 01-3.161 5.906c.017 1.822.052 3.5.093 5.339.18 8.129.289 13.035-2.431 15.816A5.946 5.946 0 0164.576 70zm-3.077-22.623c0 2.562-.086 4.939-.162 7.037-.194 5.367-.335 9.244 1.169 10.8a2.721 2.721 0 002.073.781h.041a1.932 1.932 0 001.455-.588c1.542-1.577 1.437-6.34 1.292-12.932-.048-2.194-.1-4.68-.1-7.32 3.114-2 5.1-6.431 1.329-12.858 2.045-2.658 4.363-5.668-.886-12.858 2.628 1.813 4.426 2.652 5.656 2.652 1.341 0 2.009-.971 2.6-2.428a2.749 2.749 0 00-.2-2.383c-1.084-2.073-4.4-4.1-8.058-4.934-1.892-3.785-5.773-5.785-11.223-5.785-.32 0-.647.007-.971.022a13.137 13.137 0 00-7.491-2.492 18.721 18.721 0 00-5.371.905 13.892 13.892 0 00-4.636-.87 12.01 12.01 0 00-6.351 2.029c-.265.153-.516.3-.763.432l-.084-.034a12.564 12.564 0 00-4.844-1.124 11.593 11.593 0 00-6.375 2.116C16.622 24.456 9.511 26.504 6.094 27.491c-.906.261-1.561.45-1.8.824 0 .033.469 3.335 4.657 5.1.115 6.37 1.569 8.265 4.212 9.534a50.425 50.425 0 01-.1 2.093c-.238 4.308-.68 12.327 1.4 14.523a1.672 1.672 0 001.246.565 2.5 2.5 0 001.9-.717c1.461-1.509 1.337-5.424 1.148-11.35l-.056-1.788a10.3 10.3 0 01.777.692 11.665 11.665 0 004.322 2.855v.551c-.011 3.254-.046 13.157 2.032 15.242a1.189 1.189 0 00.851.391 1.409 1.409 0 001.035-.49c2.542-2.675 1.915-15.564 1.908-15.693.02 0 1.948-.24 2.6-1.109a9.834 9.834 0 006.625 2.412 14.49 14.49 0 006.677-1.746 12.382 12.382 0 005.771 1.988 24.261 24.261 0 00.416 6.15 2.634 2.634 0 002.91 2.053 2.244 2.244 0 001.693-.624c1.1-1.122 1.055-3.677 1-6.911-.014-.784-.029-1.595-.029-2.442a13.671 13.671 0 014.21-2.216z" fill="#f8f5eb"/></g></g><path data-name="Fill 7" d="M21.871 19.989a2.438 2.438 0 11-2.438-2.438 2.438 2.438 0 012.438 2.438" fill="#fefefe"/><path data-name="Fill 9" d="M36.738 18.989a2.439 2.439 0 11-2.439-2.438 2.438 2.438 0 012.439 2.438" fill="#fefefe"/></g></svg>