<svg version="1.1" id="Layer_1" xmlns="http://www.w3.org/2000/svg" x="0" y="0" viewBox="0 0 82 86" xml:space="preserve"><style>.st0{fill-rule:evenodd;clip-rule:evenodd;fill:#fefefe}.st2{fill:none;stroke:#fefefe;stroke-width:1.374;stroke-linecap:round;stroke-linejoin:round}</style><g id="Symbols"><g id="Курица"><g id="Group-12"><g id="Group-3"><path id="Fill-1" class="st0" d="M14.2 3.3c1.5 0 2.9 1 3.1 2.3h.5c3.5 0 5.6 5 8.1 12.4 2.6 7.8 5.6 13 12.1 13.8.7.1 1.4.1 2.1.1 3.6 0 7.3-.9 11-.9 2.3 0 4.6.4 6.8 1.6.3.1.7.2 1 .2 3.9 0 9.2-7.6 12.1-11.2.5-.6 1.3-1 2.2-1 1.1 0 2.1.7 2.3 2.6 2.9.3 3.1 4.2 1.5 7.1 1.4 1.8.2 6.7-2.3 10.8-6.7 11.2-2.7 22.5-25 29.5-.9 1.1-3.7 2.7-6.9 2.7-2.3 0-4.9-.8-7.2-3.1-5.5-5.6-7.4-4.4-11.2-6.5-3.9-2.1-13.5-7.9-12.9-21.8.7-13.9 2.1-18.2.8-22.6H12c-2.3 0-4.1-1.7-4.4-3.3h-.7c-1.3 0-2.8.7-3.7 1.5-.2-2 .5-4.8 3.2-6.2-1.1-2.9.6-6.7 3.8-6.7.4 0 .8.1 1.2.2.9-1.1 1.9-1.5 2.8-1.5m0-3.2c-1.4 0-2.7.4-3.8 1.3h-.1C8 1.4 5.8 2.5 4.4 4.6 3.4 6.1 2.9 8 3 9.9c-2.5 2.3-3.2 5.6-2.9 8 .1 1.2 1 2.3 2.1 2.7.3.1.7.2 1.1.2.8 0 1.7-.3 2.3-.9l.2-.2c.9 1.2 2.2 2.1 3.7 2.5.2 1.7-.1 3.9-.4 7.3-.3 3.1-.7 7-.9 12.3-.5 10.8 4.4 19.1 14.5 24.7 1.5.8 2.8 1.2 3.9 1.6 1.9.6 3.4 1.1 6.6 4.3 2.7 2.7 5.9 4 9.5 4 3.6 0 6.9-1.4 8.7-3.1 16.9-5.5 19.7-13.8 22.4-21.8 1-3 2-5.9 3.7-8.7 1.8-3 4.2-8.5 3.1-12.4 1-2.5 1-5.2-.1-7.2-.5-1-1.3-1.8-2.3-2.4-1-2.3-3-3.3-5-3.3-1.8 0-3.5.9-4.7 2.2-.5.6-1 1.2-1.6 2-1.5 1.9-6 7.7-7.9 8-2.3-1.2-4.9-1.7-8-1.7-2 0-4 .2-5.9.5-1.8.2-3.4.4-5 .4-.6 0-1.2 0-1.7-.1-4.2-.5-6.7-3.7-9.4-11.7-2.5-7.3-4.9-13.5-9.7-14.5-1.1-1.5-3-2.5-5.1-2.5"/></g><path id="Stroke-4" d="M39.1 42.2c16.4-3.4 12.9 1.7 20.9.1.3 5.8-6.9 12.2-12.3 11.3-1 2.9-7.6 2.8-10.7 1.6" fill="none" stroke="#fefefe" stroke-width="1.374" stroke-linejoin="round"/><path id="Fill-6" class="st0" d="M12 12c0-1.1.9-2 2-2s2 .9 2 2-.9 2-2 2-2-.9-2-2"/><path id="Stroke-8" class="st2" d="M43 76v7"/><path id="Stroke-10" class="st2" d="M33 84.7c3.1-1.5 10.6-2.2 15-.5"/></g></g></g></svg>