<svg xmlns="http://www.w3.org/2000/svg" width="112" height="57.98"><g data-name="Group 9"><path data-name="Stroke 1" d="M1.5 33.477c39.5 38.114 72.227.336 86.836-.069 5.242-.151 15.275 8.039 22.164 9.064-4.794-23.183-2.551-20.375-.9-30.269-10.4 1.865-18.87 12.018-22.917 12.172-14.868.545-46.408-29.021-85.183-.358 0 0 12.123 8.126 0 9.46z" fill="none" stroke="#D7BB77" stroke-linecap="round" stroke-linejoin="round" stroke-miterlimit="10" stroke-width="3"/><path data-name="Stroke 3" d="M33.5 11.463c17.981-7.516 20.222-12.99 25.367-8.138 4.436 4.188 11.2 17.093 10.594 16.111" fill="none" stroke="#D7BB77" stroke-linecap="round" stroke-linejoin="round" stroke-miterlimit="10" stroke-width="3"/><path data-name="Fill 5" d="M21.5 25.989a3.5 3.5 0 11-3.5-3.5 3.5 3.5 0 013.5 3.5" fill="#D7BB77"/><path data-name="Stroke 7" d="M35.5 51.026c17.938 7.076 20.188 6.711 25.321 2.138 0 0 7.331-9.362 9.679-11.675" fill="none" stroke="#D7BB77" stroke-linecap="round" stroke-linejoin="round" stroke-miterlimit="10" stroke-width="3"/></g></svg>