<svg xmlns="http://www.w3.org/2000/svg" width="77.274" height="89.835"><g data-name="Group 15"><path data-name="Stroke 1" d="M26.808 34.423C25.62 23.232 38.433 12.335 30.371 4.679c-4.51-4.281-10.2-3.142-13.8 1.472a50.234 50.234 0 00-5.73 9.673.51.51 0 00.73.643c1.731-1.03 4.538-2.484 5.145-1.482.891 1.473-8.9 17.85-12.174 26.5-7.129 18.853 1.777 36.523 24.047 36.523 29.693 0 31.694-24.114 23.128-33.846-6.5-7.384-13.284-9.445-24.909-9.739z" fill="none" stroke="#fefefe" stroke-linecap="round" stroke-miterlimit="10" stroke-width="4"/><path data-name="Fill 3" d="M21.133 9.008a2 2 0 002 2 2 2 0 002-2 2 2 0 00-2-2 2 2 0 00-2 2" fill="#fefefe"/><g data-name="Group 8"><path data-name="Fill 5" d="M28.462 78.441v6.4" fill="#fefefe"/><path data-name="Stroke 7" d="M28.462 78.441v6.4" fill="none" stroke="#fefefe" stroke-linecap="round" stroke-miterlimit="10" stroke-width="4"/></g><path data-name="Stroke 9" d="M37.133 85.608c-4.25-1.247-12.261-.436-14 1.4" fill="none" stroke="#fefefe" stroke-linecap="round" stroke-linejoin="round" stroke-miterlimit="10" stroke-width="4"/><path data-name="Stroke 11" d="M23.133 17.681q-4.607 8.826-6.129 8.3c-1.16-.4-1.253-4.409.279-12.97" fill="none" stroke="#fefefe" stroke-linecap="round" stroke-miterlimit="10" stroke-width="4"/><path data-name="Stroke 13" d="M44.173 37.941c-.67-.357 7.192-21.857 10.264-27.02 2.456-4.127 8.867-.666 9.538 1.87.787 2.974-1.363 6.756.591 8.921 2.236 2.477 7.23-.359 7.23 7.533 0 3.965-2.98 4.16-.049 6.738 3.76 3.308 4.12 6.202 2.393 8.325-2.681 3.3-2.681 3.3-3.112 5.363-.577 2.76 2.707 3 2.707 6.17 0 4.612-4.7 5.97-4.894 8.944-.138 2.1 3.058 5.559-1.335 7.728-4.309 2.126-15.71-3.35-15.71-3.35" fill="none" stroke="#fefefe" stroke-linecap="round" stroke-miterlimit="10" stroke-width="4"/></g></svg>