<svg xmlns="http://www.w3.org/2000/svg" width="46" height="41"><path data-name="Fill 1" d="M36.108 2.177A4.634 4.634 0 0032.333 0H13.667a4.636 4.636 0 00-3.775 2.177L.559 18.323a4.624 4.624 0 000 4.354l9.333 16.146A4.634 4.634 0 0013.667 41h18.666a4.636 4.636 0 003.775-2.177l9.333-16.146a4.624 4.624 0 000-4.354z" fill="#F5F1E5"/><path d="M28.955 9.482h-2.924a5.033 5.033 0 00-5.408 5.334v2.459h-2.94a.451.451 0 00-.46.442v3.565a.451.451 0 00.46.442h2.94v8.991a.451.451 0 00.46.442h3.84a.451.451 0 00.46-.442v-8.993h3.438a.451.451 0 00.46-.442v-3.563a.434.434 0 00-.135-.312.469.469 0 00-.325-.13h-3.443V15.19c0-1 .248-1.511 1.606-1.511h1.97a.451.451 0 00.46-.442V9.928a.451.451 0 00-.459-.446z" fill="#D7BB77"/></svg>