<svg xmlns="http://www.w3.org/2000/svg" width="70.227" height="63"><g data-name="Group 2"><path data-name="Fill 1" d="M51.071 8.708A5.637 5.637 0 0046.476 6H23.752a5.606 5.606 0 00-4.6 2.708L7.795 28.792a5.861 5.861 0 000 5.416l11.361 20.084A5.637 5.637 0 0023.752 57h22.724a5.606 5.606 0 004.6-2.708l11.357-20.084a5.861 5.861 0 000-5.416z" fill="#d7bb77"/><path data-name="Fill 1" d="M54.491 4.239A6.849 6.849 0 0048.914 1h-27.6a6.839 6.839 0 00-5.581 3.239L1.941 28.261a6.919 6.919 0 000 6.478l13.8 24.021A6.849 6.849 0 0021.314 62h27.6a6.839 6.839 0 005.581-3.239l13.8-24.021a6.919 6.919 0 000-6.478z" fill="none" stroke="#e6c978" stroke-miterlimit="10" stroke-width="2"/></g></svg>