<svg xmlns="http://www.w3.org/2000/svg" width="112" height="100"><g data-name="Fill 1" fill="none" stroke-miterlimit="10"><path d="M87.915 5.31S84.851 0 78.723 0H33.275s-6.128 0-9.191 5.31L1.362 44.691s-3.064 5.31 0 10.62L24.084 94.69s3.064 5.31 9.191 5.31h45.448s6.128 0 9.191-5.31l22.724-39.379s3.064-5.31 0-10.62z"/><path d="M33.275 2c-.012 0-1.263.024-2.791.553-2.074.72-3.644 1.983-4.668 3.756L3.098 45.684c-.034.06-.652 1.197-.945 2.829-.378 2.11-.062 4.06.941 5.798l22.718 39.372c.03.051.705 1.16 1.977 2.234C29.425 97.299 31.27 98 33.275 98h45.448c.012 0 1.264-.024 2.792-.553 2.074-.72 3.644-1.983 4.667-3.757l22.72-39.372c.034-.061.652-1.197.945-2.83.378-2.109.062-4.06-.941-5.798L86.182 6.31c-.006-.01-.652-1.084-1.875-2.144C82.648 2.73 80.769 2 78.723 2H33.275m0-2h45.448c6.128 0 9.191 5.31 9.191 5.31l22.724 39.38c3.064 5.31 0 10.62 0 10.62L87.914 94.69c-3.063 5.31-9.19 5.31-9.19 5.31h-45.45c-6.127 0-9.191-5.31-9.191-5.31L1.362 55.31c-3.064-5.31 0-10.62 0-10.62L24.084 5.31C27.148 0 33.275 0 33.275 0z" fill="#fff"/></g><path data-name="Fill 1" d="M86.489 34.177c-1.051-.337-2.816-.545-3.255-.775a.358.358 0 01-.13-.1 14.492 14.492 0 00-.933-1.523 5.123 5.123 0 00-2.425-1.966c-.078-.013-.162-.046-.237-.059l-.162-.044a.649.649 0 00-.12-.036l-.132-.04A7.346 7.346 0 0177.592 29a4.765 4.765 0 00-2.392.652c0 .015-.019.023-.025.038a.988.988 0 01-.075.127 8.392 8.392 0 01-1.847 1.869c-.256.21-1.007.826-1.891 1.576l-2.734 2.256a.036.036 0 00-.013.013 22.787 22.787 0 01-7.161 4.438q-1.355.324-2.732.524c-1.792.262-3.228.348-3.228.348-1.866.084-4.9.239-7.5.39l-5.253.258H42.7q-1.488.063-2.967.216h-.1c-.361.042-.6.073-.735.1l-.193.038a6.043 6.043 0 00-1.074.36 5.656 5.656 0 00-3.431 4.95v.193a.644.644 0 010 .09c-.91 3.9-4.232 9.187-9.456 9.542A.043.043 0 0124.7 57a1.032 1.032 0 00-.42.1.514.514 0 00-.109.84l.063.048a.029.029 0 00.019 0 .554.554 0 00.25.09 1.871 1.871 0 00.307.019 12.614 12.614 0 009.858-4.264 6.329 6.329 0 01-3.48 6.734v-.017c-.086.046-.166.1-.248.151l-3.808 1.965.721 9.684a.717.717 0 00.747.65h3.659c.349 0 .42-.174.42-.279a1.89 1.89 0 00-2.089-1.666 1.357 1.357 0 00-.242.042s-1.273-4.316.683-6a21.591 21.591 0 013.612-2.185c.275-.151.572-.3.857-.446a31.1 31.1 0 005.693-3.893 13.942 13.942 0 004.2-5.448s3.7-1.573 9.629 1.863 0 0 .013 0a16.158 16.158 0 008.679 1.7L63.549 67.1l.017 1.02.5 1.722.185 2.531a.647.647 0 00.664.631H68.1a.4.4 0 00.443-.358.567.567 0 000-.061 1.756 1.756 0 00-1.9-1.6h-.05v-2.457c0-.48.036-1.02.092-1.615a26.021 26.021 0 012.051-8.207 23.707 23.707 0 015.22-7.532 17.892 17.892 0 01.118-2.148c.191-.968.511-2.3.792-3.394a15.086 15.086 0 015.39-7.279 32.34 32.34 0 005.5-.587 1.489 1.489 0 00.279-.367c0-.017.021-.034.027-.048a1.09 1.09 0 01.08-.124 1.233 1.233 0 00.061-.115.484.484 0 01.038-.073c.019-.044.038-.088.061-.13l.088-.186a.023.023 0 010-.017c.09-.2.143-.339.143-.339A7.328 7.328 0 0087 34.739a.58.58 0 00-.527-.553" fill="#fff"/></svg>