<svg xmlns="http://www.w3.org/2000/svg" width="111.993" height="100"><path data-name="Combined Shape" d="M78.72 100H33.273a10.487 10.487 0 01-6.894-2.655 11.778 11.778 0 01-2.3-2.655L1.359 55.31a10.5 10.5 0 01-1.149-7.3 11.784 11.784 0 011.149-3.32L24.081 5.31A10.491 10.491 0 0129.826.664 11.766 11.766 0 0133.273 0H78.72a10.487 10.487 0 016.894 2.655 11.777 11.777 0 012.3 2.655l22.723 39.38a10.5 10.5 0 011.149 7.3 11.788 11.788 0 01-1.149 3.319L87.912 94.69a10.491 10.491 0 01-5.745 4.646 11.766 11.766 0 01-3.447.664zM31.185 60.548c-.048.026-.1.056-.141.085s-.072.046-.108.066l-3.808 1.967.721 9.684a.721.721 0 00.714.65h3.693c.39 0 .42-.213.42-.278a1.886 1.886 0 00-1.879-1.679 1.918 1.918 0 00-.211.012 1.3 1.3 0 00-.242.042.031.031 0 010-.011 11.932 11.932 0 01-.388-2.358c-.067-1.176.065-2.761 1.075-3.631a21.719 21.719 0 013.612-2.185c.216-.118.448-.236.671-.351l.186-.1a31.073 31.073 0 005.693-3.893 13.975 13.975 0 004.2-5.448 6.7 6.7 0 012.376-.359 14.555 14.555 0 017.252 2.222l2.635 1.527-.411-.239h-.008a299.68 299.68 0 01-2.2-1.284 16.225 16.225 0 007.321 1.753c.451 0 .908-.019 1.357-.057L63.546 67.1l.016 1.021.5 1.722.185 2.532a.65.65 0 00.65.625h3.243a.4.4 0 00.4-.36v-.061a1.766 1.766 0 00-1.743-1.612c-.048 0-.1 0-.146.006h-.054v-2.445c0-.437.029-.951.093-1.616a25.968 25.968 0 012.051-8.206 23.6 23.6 0 015.219-7.532 18.1 18.1 0 01.118-2.148c.173-.872.469-2.14.792-3.394a15.019 15.019 0 015.39-7.279 32.352 32.352 0 005.5-.586 1.49 1.49 0 00.28-.367.058.058 0 01.015-.03.1.1 0 00.012-.018 1.081 1.081 0 01.08-.124.414.414 0 00.038-.069l.023-.046a.507.507 0 01.038-.073 1.72 1.72 0 01.061-.131l.088-.186a.025.025 0 010-.016 4.86 4.86 0 00.143-.34 7.337 7.337 0 00.459-1.628.584.584 0 00-.527-.554l.016-.008a17.5 17.5 0 00-1.813-.42 7.566 7.566 0 01-1.441-.356.343.343 0 01-.131-.1 14.649 14.649 0 00-.933-1.524 5.1 5.1 0 00-2.425-1.967 1 1 0 01-.125-.03 1.04 1.04 0 00-.113-.028l-.162-.044a.666.666 0 00-.12-.035l-.132-.04a7.392 7.392 0 01-1.5-.635 4.785 4.785 0 00-2.391.652.033.033 0 01-.013.022.056.056 0 00-.012.016.864.864 0 01-.077.128 8.4 8.4 0 01-1.847 1.869c-.352.288-1.066.875-1.892 1.575l-2.731 2.257a.028.028 0 00-.013.013 22.7 22.7 0 01-7.161 4.437c-.919.22-1.839.4-2.732.524-1.766.258-3.213.347-3.227.348-2.036.091-5.122.252-7.5.39l-5.253.257h-.045c-1 .043-2 .115-2.967.216h-.1c-.4.046-.614.075-.735.1l-.193.038a6.077 6.077 0 00-1.074.36 5.686 5.686 0 00-3.431 4.953v.193a.739.739 0 010 .09 14.814 14.814 0 01-3.111 6.1 9.329 9.329 0 01-6.346 3.441.044.044 0 01-.037.019h-.006a1.033 1.033 0 00-.42.1.516.516 0 00-.223.693.5.5 0 00.114.147l.063.049h.019a.547.547 0 00.249.09 1.952 1.952 0 00.273.019h.034c.131 0 .263.006.394.006a12.616 12.616 0 009.464-4.27 6.33 6.33 0 01-3.479 6.735z" fill="#fff"/></svg>