<svg xmlns="http://www.w3.org/2000/svg" width="112" height="100"><g data-name="Fill 1 Copy 2" fill="none" stroke-miterlimit="10"><path d="M87.915 5.31S84.851 0 78.723 0H33.275s-6.128 0-9.191 5.31L1.362 44.691s-3.064 5.31 0 10.62L24.084 94.69s3.064 5.31 9.191 5.31h45.448s6.128 0 9.191-5.31l22.724-39.379s3.064-5.31 0-10.62z"/><path d="M33.275 2c-.012 0-1.263.024-2.791.553-2.074.72-3.644 1.983-4.668 3.756L3.098 45.684c-.034.06-.652 1.197-.945 2.829-.378 2.11-.062 4.06.941 5.798l22.718 39.372c.03.051.705 1.16 1.977 2.234C29.425 97.299 31.27 98 33.275 98h45.448c.012 0 1.264-.024 2.792-.553 2.074-.72 3.644-1.983 4.667-3.757l22.72-39.372c.034-.061.652-1.197.945-2.83.378-2.109.062-4.06-.941-5.798L86.182 6.31c-.006-.01-.652-1.084-1.875-2.144C82.648 2.73 80.769 2 78.723 2H33.275m0-2h45.448c6.128 0 9.191 5.31 9.191 5.31l22.724 39.38c3.064 5.31 0 10.62 0 10.62L87.914 94.69c-3.063 5.31-9.19 5.31-9.19 5.31h-45.45c-6.127 0-9.191-5.31-9.191-5.31L1.362 55.31c-3.064-5.31 0-10.62 0-10.62L24.084 5.31C27.148 0 33.275 0 33.275 0z" fill="#fff"/></g><path data-name="Fill 1" d="M25.19 70.579l10.476-.679c9-1.22 7.508-8.549 7.508-8.549h.01c0 .154.011.292.011.428.087-15.837 8.028-19.592 11.289-20.471a26.124 26.124 0 012-.354l3.216-8.44.628-1.647a12.335 12.335 0 001.529-1.173A27.475 27.475 0 0068.285 22a6.568 6.568 0 01.542 1.262 5.866 5.866 0 01.25 2.738 2.648 2.648 0 01-.141.571s4.236 1.3 4.626 2.827c.042.175.1.356.152.519a4.237 4.237 0 001.528 2.419 2.3 2.3 0 01.738 1.119 10.968 10.968 0 01-2.374 3.6 2.139 2.139 0 00-1.364.467 2.263 2.263 0 00-.564.537v.01a2.917 2.917 0 00-.519 1.765 10.525 10.525 0 002.176 5.692A22.573 22.573 0 0068.7 59.257a20.132 20.132 0 00.294 4.628A25.858 25.858 0 0070.2 69.04a3.031 3.031 0 001.6 1.66h-.01a7.434 7.434 0 01.9.462 1.028 1.028 0 01.243 1.409.984.984 0 01-.817.432H69a2.08 2.08 0 01-1.809-1.241l-3.455-8.6s-.944 1-1.409 1.562.229 1.011.087 2.328S60.38 70.1 60.38 70.1a15.978 15.978 0 011.961.827 1.08 1.08 0 01.612 1.384 1.047 1.047 0 01-.992.7H48.224a3.941 3.941 0 01-3.185-1.544 2.047 2.047 0 00-.1-.145 14.209 14.209 0 01-4.107 1.3 32.673 32.673 0 01-3.434.365c-.606.027-.974.027-.974.027l-.13-.027h-9.477c-.65 0-2.817-.537-2.817-1.2a1.205 1.205 0 011.192-1.2" fill="#fff"/></svg>