<svg xmlns="http://www.w3.org/2000/svg" width="111.993" height="100"><g data-name="btn_cat copy"><path data-name="Combined Shape" d="M78.72 100H33.273a10.487 10.487 0 01-6.894-2.655 11.778 11.778 0 01-2.3-2.655L1.359 55.31a10.5 10.5 0 01-1.149-7.3 11.784 11.784 0 011.149-3.32L24.081 5.31A10.491 10.491 0 0129.826.664 11.766 11.766 0 0133.273 0H78.72a10.487 10.487 0 016.894 2.655 11.777 11.777 0 012.3 2.655l22.723 39.38a10.5 10.5 0 011.149 7.3 11.788 11.788 0 01-1.149 3.319L87.912 94.69a10.491 10.491 0 01-5.745 4.646 11.766 11.766 0 01-3.447.664zM44.939 71.32l.035.051.062.093a3.923 3.923 0 003.12 1.545h13.812a1.052 1.052 0 00.981-.7 1.08 1.08 0 00-.612-1.383 16.03 16.03 0 00-1.961-.827c.018-.017 1.9-1.756 2.036-3.05a3.357 3.357 0 00-.15-1.4c-.1-.37-.18-.637.063-.933.459-.555 1.4-1.552 1.409-1.562l3.455 8.6a2.068 2.068 0 001.808 1.253h3.116a.985.985 0 00.812-.433 1.03 1.03 0 00-.243-1.409 7.6 7.6 0 00-.9-.462h.01a3.017 3.017 0 01-1.595-1.663 25.924 25.924 0 01-1.213-5.155 20.16 20.16 0 01-.293-4.628 22.664 22.664 0 011.192-7.265 22.35 22.35 0 013.445-6.468 10.49 10.49 0 01-2.177-5.692 2.932 2.932 0 01.519-1.765v-.01a2.286 2.286 0 01.564-.537 2.156 2.156 0 011.33-.466h.035a10.92 10.92 0 002.373-3.6 2.289 2.289 0 00-.738-1.119 4.245 4.245 0 01-1.527-2.419 6.068 6.068 0 01-.151-.518c-.386-1.508-4.584-2.815-4.626-2.828a2.688 2.688 0 00.14-.571 5.9 5.9 0 00-.25-2.734A6.621 6.621 0 0068.282 22a27.359 27.359 0 01-6.423 7.693 12.389 12.389 0 01-1.528 1.174l-.634 1.646-3.217 8.446c-.626.084-1.263.2-2 .354-3.333.9-11.1 4.661-11.286 20.176 0-.032-.009-.058-.013-.081s0-.034 0-.052h-.009s0 .012.005.026v.025c0 .06 0 .119.005.175s.005.135.005.2v-.294a7.293 7.293 0 01-1.274 5.278c-1.27 1.692-3.375 2.749-6.256 3.139l-10.477.674v.006a1.211 1.211 0 00-1.183 1.198c0 .659 2.126 1.2 2.816 1.2h9.484l.131.027s.375 0 .974-.027a32.651 32.651 0 003.434-.365 14.208 14.208 0 004.106-1.3z" fill="#fff"/></g></svg>