<svg xmlns="http://www.w3.org/2000/svg" width="310.174" height="99.638"><defs><clipPath id="a"><path data-name="Clip 2" d="M0 0h310.174v99.638H0z" fill="none"/></clipPath></defs><g data-name="Group 3"><path data-name="Clip 2" d="M0 0h310.174v99.638H0z" fill="none"/><g data-name="Group 3" clip-path="url(#a)"><path data-name="Fill 1" d="M0 0l53.453 89s6.421 10.691 18.887 10.691h166.786s12.465 0 18.887-10.691l51.13-89.629" fill="#0b0b09"/></g></g><path data-name="Fill 4" d="M115.645 74.746a8.784 8.784 0 01-5.659-2.176 12.198 12.198 0 01-.734-.748l-4.569-4.984c-.914-.983-1.435-1.02-4.412-1.073v4.941c0 2.509.678 2.771 2.225 2.771h1.132v.758l-.85-.013h-.008a269.696 269.696 0 00-4.211-.042c-1.774 0-3.7.032-4.991.055v-.765h.7c1.929 0 2.58-.541 2.58-2.144V58.615c0-1.6-.651-2.137-2.58-2.137h-.7v-.76c1.975.037 3.608.056 4.991.056 1.44 0 2.664-.017 3.745-.032.869-.012 1.687-.024 2.456-.024 2.975 0 5.218.657 6.666 1.952a4.124 4.124 0 011.487 2.849 4.06 4.06 0 01-2.036 3.551 10.334 10.334 0 01-3.5 1.3c.069.087 7.087 8.866 9.66 8.866l.011.354h-.005a5.947 5.947 0 01-1.398.156zM102.73 56.695c-.864 0-1.549.045-2.274.093l-.186.012v7.8a13.3 13.3 0 002.654.182c4.071 0 6.405-1.375 6.405-3.771a3.871 3.871 0 00-1.264-2.589 7.538 7.538 0 00-5.335-1.727zm138.9 17.813h-1.161l-15.85-15.862h-.075c0 4.068.078 8.137.234 12.094.074 2.1.667 2.735 2.54 2.735h.785v.76l-.436-.008c-1.209-.021-2.579-.046-3.863-.046-1.424 0-2.934.028-4.148.051h-.143v-.76h.628c2.017 0 2.42-.524 2.537-3.3.155-3.374.236-8.3.236-11.427a2.066 2.066 0 00-.674-1.837 3.653 3.653 0 00-2.14-.43h-1.093v-.757c.935.024 2.171.054 3.437.054 1.091 0 2.118-.026 3.077-.054l14.868 15.084h.077l-.235-10.7c-.075-2.913-.621-3.624-2.777-3.624h-.47v-.76c.862.019 2.554.054 4.217.054 1.378 0 2.779-.025 4.214-.054v.762h-.625c-1.128 0-2.341.218-2.462 2.817l-.7 15.207zm-115.083 0a11.2 11.2 0 01-7.593-2.771 8.924 8.924 0 01-2.994-6.656 9.369 9.369 0 013.235-7.111 10.784 10.784 0 013.4-2.019 11.559 11.559 0 014.029-.719 11.338 11.338 0 014.047.738 10.872 10.872 0 013.381 2.039 9.127 9.127 0 013.182 6.861c0 4.739-3.999 9.638-10.69 9.638zm0-18c-4.734 0-7.561 3.041-7.561 8.134 0 4.182 2.955 8.7 7.729 8.7s7.5-2.983 7.5-8.184c-.001-4.252-2.87-8.648-7.671-8.648zm18.03 17.776v-.923h.843c2.314 0 3.095-.648 3.095-2.567V55.476c0-1.933-.781-2.585-3.095-2.585h-.843v-.921c.56.011 1.1.026 1.673.043h.01c1.1.032 2.23.065 3.616.065 1.266 0 2.567-.027 3.825-.054s2.559-.054 3.836-.054c3.409 0 6.032.684 7.8 2.033a5 5 0 012.118 3.9 4.765 4.765 0 01-2.347 4.056c-1.929 1.3-4.9 1.953-8.838 1.953-1.427 0-2.789-.087-4.232-.18l-.1-.007v6.32c0 3 .818 3.317 2.685 3.317h1.364v.923c-.79-.011-1.575-.03-2.336-.048h-.011c-1.226-.03-2.492-.06-3.764-.06-1.38 0-2.509.033-3.6.065-.579.017-1.125.033-1.7.044zM154.9 52.891c-1.149 0-2.19.067-2.968.125v8.954a15.232 15.232 0 004.852.756 7.292 7.292 0 004.831-1.4 3.668 3.668 0 001.336-2.82 4.778 4.778 0 00-2.137-4.188 10.49 10.49 0 00-5.914-1.427zM68.06 74.286v-.923h.844c2.314 0 3.095-.648 3.095-2.567v-15.32c0-1.932-.781-2.585-3.095-2.585h-.844v-.921c.565.011 1.109.026 1.685.043 1.095.032 2.228.065 3.615.065 1.262 0 2.562-.027 3.819-.054s2.57-.054 3.844-.054c3.409 0 6.032.684 7.8 2.033a5 5 0 012.119 3.9 4.765 4.765 0 01-2.352 4.055c-1.929 1.3-4.9 1.953-8.839 1.953-1.429 0-2.794-.088-4.239-.181l-.092-.006v6.32c0 3 .818 3.317 2.684 3.317h1.364v.923c-.788-.011-1.573-.03-2.333-.048h-.011c-1.226-.03-2.493-.06-3.767-.06-1.377 0-2.505.033-3.6.065-.582.017-1.131.033-1.7.044zm10.327-21.395c-1.151 0-2.19.067-2.967.125v8.954a15.21 15.21 0 004.849.756 7.293 7.293 0 004.832-1.4 3.668 3.668 0 001.335-2.82 4.778 4.778 0 00-2.135-4.188 10.487 10.487 0 00-5.914-1.427zm119.721 21.35c-.616-.024-2.377-.039-4.484-.039s-3.736.015-4.161.039v-.761h.467c2.091 0 2.955-.58 4.2-2.82l2.822-4.952a5.343 5.343 0 00-1.521-.23 7.916 7.916 0 00-1.506.17 5.845 5.845 0 00-2.875 1.8.137.137 0 01-.091.062.037.037 0 01-.033-.018.158.158 0 01.014-.137c1.292-2.886 3.943-3.33 5.825-3.413.1 0 .2-.007.306-.007a7.126 7.126 0 01.859.053l5.139-9.016h.742l10.04 15.971c1.07 1.728 2.324 2.533 3.945 2.533h.823v.76c-1.487-.051-3.285-.055-5.312-.055-2.1 0-3.95 0-5.392.056v-.757h.974c1.286 0 1.994-.3 1.994-.836a3.442 3.442 0 00-.549-1.305l-2.85-4.7-.1-.15a7.763 7.763 0 01-4.4 1.124h-.111a11.172 11.172 0 01-3.966-1.117l-.089-.042-.285-.132-.159.318-2.06 4.13a4.722 4.722 0 00-.665 1.879c0 .769 2.066.829 2.7.829h.158l-.4.769zm4.393-15.719l-2.969 5.827a13.8 13.8 0 011.415.546 13.491 13.491 0 005.049 1.528 3.48 3.48 0 00.694-.066 2.049 2.049 0 00.5-.193l-.317-.5zm-32.7 15.7v-.76h.7c1.926 0 2.576-.539 2.576-2.136V58.61c0-1.6-.65-2.139-2.576-2.139h-.7v-.758c1.888.035 3.567.053 4.991.053 1.443 0 2.851-.02 4.341-.041l.848-.012v.757h-.9c-1.928 0-2.579.54-2.579 2.139v12.118c0 1.813.586 2.4 4.246 2.509.02 0 1.979.055 3.68.055a14.8 14.8 0 002.5-.11c.69-.207 2.076-2.768 2.09-2.794l.515.048-1.8 3.735c-.25-.009-1.077-.014-2.528-.014-4.838 0-14.384.051-15.41.07z" fill="#fffffe"/><path data-name="Fill 5" d="M104.023 47.825h104.921V28.869H104.023z" fill="#fffffe"/><path data-name="Fill 6" d="M104.683 47.212h18.334v-17.7h-18.334z" fill="#fffffe"/><path data-name="Fill 7" d="M104.683 47.212h17.694v-17.7h-17.694z" fill="#cf232a"/><path data-name="Fill 8" d="M208.283 47.212h-85.317v-17.7h85.317v17.7" fill="#181917"/><path data-name="Fill 9" d="M131.716 44.304h-5.225v-.64h.593a.984.984 0 00.9-.4 2.564 2.564 0 00.139-1.152v-7.437c0-.883-.116-1.154-.185-1.237a1.074 1.074 0 00-.854-.316h-.593v-.64h4.35a7.544 7.544 0 012.47.329 3.5 3.5 0 011.564 1.127 2.953 2.953 0 01.643 1.9 3.219 3.219 0 01-.969 2.414 3.777 3.777 0 01-2.713.93 7.227 7.227 0 01-.911-.062c-.24-.032-.515-.079-.84-.145v3.137c0 .888.122 1.156.195 1.237a1.035 1.035 0 00.839.315h.6v.639zm-.706-10.815a4.452 4.452 0 00-.926.128v4.526c.263.046.466.079.638.1a4.881 4.881 0 00.569.039 1.793 1.793 0 001.374-.63 2.369 2.369 0 00.585-1.661 3.081 3.081 0 00-.284-1.32 1.948 1.948 0 00-.787-.889 2.282 2.282 0 00-1.169-.293z" fill="#fffffe"/><path data-name="Fill 10" d="M146.132 32.413v.639h.59a1.065 1.065 0 01.849.316c.071.084.191.357.191 1.237v4.646a7.172 7.172 0 01-.313 2.529 2.485 2.485 0 01-1.147 1.176 3.984 3.984 0 01-1.943.471 3.1 3.1 0 01-1.418-.295 2.267 2.267 0 01-.867-.741 3.112 3.112 0 01-.418-1.278 10.833 10.833 0 01-.122-1.51v-5a2.329 2.329 0 01.178-1.176.942.942 0 01.86-.377h.594v-.637h-5.225v.639h.587a1.016 1.016 0 01.8.273 2.077 2.077 0 01.245 1.28v4.487a9.685 9.685 0 00.281 2.883 3.711 3.711 0 001.442 1.833 5.318 5.318 0 002.944.679 4.981 4.981 0 002.824-.708 3.538 3.538 0 001.408-1.711 8.4 8.4 0 00.354-2.731v-4.646a2.375 2.375 0 01.149-1.139.983.983 0 01.891-.5h.592v-.639h-4.326" fill="#fffffe"/><path data-name="Fill 11" d="M158.593 44.301h-5.229v-.638h.592a.985.985 0 00.893-.4 2.518 2.518 0 00.147-1.153v-7.431c0-.889-.121-1.158-.193-1.239a1.06 1.06 0 00-.847-.32h-.592v-.641h4.345a10.07 10.07 0 012.743.276 3.244 3.244 0 011.549 1.034 2.729 2.729 0 01.644 1.813 2.848 2.848 0 01-.733 1.949 3.9 3.9 0 01-1.987 1.093l2.239 3.095a5.849 5.849 0 001.352 1.474 3.355 3.355 0 001.453.451l.145.016v.62h-3.329l-3.9-5.375c-.238.008-.442.013-.6.013h-.323v3.172c0 .843.106 1.138.2 1.237a1.024 1.024 0 00.831.315h.608v.638zm-.483-10.845a6.607 6.607 0 00-1.151.141v4.462h.306a3.52 3.52 0 002.342-.67 2.1 2.1 0 00.767-1.678 2.2 2.2 0 00-.618-1.632 2.224 2.224 0 00-1.646-.623z" fill="#fffffe"/><path data-name="Fill 12" d="M168.076 32.484v.639h.569a1.431 1.431 0 01.694.184.6.6 0 01.272.281 3.51 3.51 0 01.1 1.09v7.434a2.333 2.333 0 01-.171 1.206 1.052 1.052 0 01-.894.349h-.57v.638h5.228v-.638h-.575a1.37 1.37 0 01-.681-.183.593.593 0 01-.281-.281 3.554 3.554 0 01-.1-1.091v-7.435c0-.85.108-1.118.174-1.2a1.035 1.035 0 01.888-.354h.575v-.639h-5.228" fill="#fffffe"/><path data-name="Fill 13" d="M190.073 32.482h-4.326v.639h.563a1.109 1.109 0 01.872.3c.075.083.2.348.2 1.222v6.16l-6.843-8.321h-3.359v.639h.165a2.544 2.544 0 01.7.071 2.624 2.624 0 01.712.329 4.959 4.959 0 01.689.71v7.908a2.338 2.338 0 01-.166 1.153 1.017 1.017 0 01-.909.372h-.562v.639h4.325v-.639h-.572a1.117 1.117 0 01-.872-.3c-.069-.079-.188-.346-.188-1.221v-6.628l7.4 8.975h.54v-9.844a2.354 2.354 0 01.159-1.153 1.009 1.009 0 01.9-.372h.574v-.639" fill="#fffffe"/><path data-name="Fill 14" d="M196.142 44.302h-3.933v-.612l.136-.025a1.719 1.719 0 00.846-.291 5.113 5.113 0 00.92-1.61l4.15-9.537h.562c3.947 9.642 3.951 9.648 3.953 9.651a4.22 4.22 0 00.83 1.438 1.617 1.617 0 001 .346l.153.01v.628h-4.893v-.63l.158-.008a1.5 1.5 0 00.831-.191.422.422 0 00.18-.341 3.331 3.331 0 00-.326-1.103c0-.008-.518-1.267-.637-1.554h-4.244c-.006.014-.735 1.684-.738 1.7a2.6 2.6 0 00-.275.937.422.422 0 00.186.334 1.983 1.983 0 00.991.223l.15.012v.627zm1.873-8.863l-1.763 4.054h3.421z" fill="#fffffe"/><path data-name="Fill 15" d="M105.314 46.583h16.43V30.144h-16.43z" fill="#fffffe"/><path data-name="Fill 16" d="M105.944 45.952H111v-5.059h-5.056z" fill="#cf232a"/><path data-name="Fill 17" d="M116.058 45.952h5.054v-5.059h-5.054z" fill="#cf232a"/><path data-name="Fill 18" d="M111 40.893h5.056v-5.059H111z" fill="#cf232a"/><path data-name="Fill 19" d="M105.944 35.834H111v-5.059h-5.056z" fill="#cf232a"/><path data-name="Fill 20" d="M116.058 35.834h5.054v-5.059h-5.054z" fill="#cf232a"/><path data-name="Fill 21" d="M211.629 32.369a1.593 1.593 0 111.592-1.593 1.594 1.594 0 01-1.592 1.593zm0-2.875a1.216 1.216 0 00-1.2 1.282 1.217 1.217 0 001.2 1.284 1.219 1.219 0 001.209-1.284 1.218 1.218 0 00-1.209-1.282zm-.278 2.179h-.333v-1.804h.668c.454 0 .666.168.666.528a.449.449 0 01-.474.485l.486.789h-.341l-.47-.776h-.2v.776zm0-1.55v.517h.295c.188 0 .372-.021.372-.269 0-.167-.12-.247-.367-.247z" fill="#fffffe"/><path data-name="Fill 22" d="M248.153 58.919a1.593 1.593 0 111.591-1.593 1.594 1.594 0 01-1.591 1.593zm0-2.875a1.217 1.217 0 00-1.2 1.282 1.218 1.218 0 001.2 1.284 1.218 1.218 0 001.2-1.284 1.217 1.217 0 00-1.2-1.282zm-.278 2.177h-.335v-1.803h.67c.454 0 .666.168.666.529a.448.448 0 01-.474.484l.485.788h-.341l-.468-.774h-.2v.774zm0-1.548v.516h.295c.188 0 .372-.021.372-.269 0-.166-.12-.247-.367-.247z" fill="#fffffe"/></svg>