<svg xmlns="http://www.w3.org/2000/svg" width="46" height="41"><path data-name="Fill 1" d="M36.108 2.177A4.634 4.634 0 0032.333 0H13.667a4.636 4.636 0 00-3.775 2.177L.559 18.323a4.624 4.624 0 000 4.354l9.333 16.146A4.634 4.634 0 0013.667 41h18.666a4.636 4.636 0 003.775-2.177l9.333-16.146a4.624 4.624 0 000-4.354z" fill="#d7bb77"/><path data-name="Combined Shape" d="M18.759 31.015a1.478 1.478 0 01-.93-1.367 1.332 1.332 0 01.5-.917q2.025-1.863 4.043-3.731c.089-.083.172-.171.3-.3a9.709 9.709 0 01-4.909-1.618c-.175-.127-.357-.25-.517-.392a1.217 1.217 0 01-.193-1.826 1.476 1.476 0 011.858-.382 2.948 2.948 0 01.406.221 8.624 8.624 0 008.923.076 2.5 2.5 0 01.869-.414 1.416 1.416 0 011.562.574 1.15 1.15 0 01-.1 1.6 7.3 7.3 0 01-2.595 1.545 13.064 13.064 0 01-2.946.608c.151.152.223.227.318.314 1.363 1.264 2.733 2.521 4.093 3.788a1.178 1.178 0 01.3 1.469 1.633 1.633 0 01-1.515.87 1.518 1.518 0 01-.958-.452c-1.03-.954-2.078-1.891-3.086-2.864-.293-.283-.435-.23-.694.016a202.166 202.166 0 01-3.146 2.912 1.43 1.43 0 01-.973.4 1.514 1.514 0 01-.61-.13zm5.037-10.02a5.765 5.765 0 01-5.715-5.77 5.769 5.769 0 015.768-5.743h.017a5.684 5.684 0 014.046 1.692 5.755 5.755 0 01-4.1 9.822zm.043-8.573a2.818 2.818 0 10.008 5.635h.01a2.818 2.818 0 00-.015-5.635z" fill="#fff"/></svg>