<svg xmlns="http://www.w3.org/2000/svg" width="46" height="41"><path data-name="Fill 1" d="M36.108 2.177A4.634 4.634 0 0032.333 0H13.667a4.636 4.636 0 00-3.775 2.177L.559 18.323a4.624 4.624 0 000 4.354l9.333 16.146A4.634 4.634 0 0013.667 41h18.666a4.636 4.636 0 003.775-2.177l9.333-16.146a4.624 4.624 0 000-4.354z" fill="#F5F1E5"/><path d="M33.018 25.322a6.507 6.507 0 01.808 1.15c.311.594.029 1.248-.51 1.284h-3.354a2.606 2.606 0 01-2.136-.856c-.464-.467-.895-.964-1.341-1.447a3.164 3.164 0 00-.6-.53.705.705 0 00-1.117.268 3.444 3.444 0 00-.353 1.546c-.036.78-.275.985-1.068 1.021a8.669 8.669 0 01-4.8-1.019 10.553 10.553 0 01-3.23-2.986 40.066 40.066 0 01-4.256-7.486c-.268-.59-.072-.907.584-.918 1.1-.021 2.192-.019 3.288-.001a.963.963 0 01.911.673 20.025 20.025 0 002.226 4.073 3.49 3.49 0 00.841.913.513.513 0 00.868-.252 2.8 2.8 0 00.193-.855 12.564 12.564 0 00-.054-2.994 1.255 1.255 0 00-1.073-1.142c-.324-.064-.276-.178-.121-.358a1.211 1.211 0 011.029-.506h3.792c.6.116.729.381.811.974v4.159c-.007.23.116.911.535 1.063.335.108.556-.157.757-.366a12.88 12.88 0 002.134-3.24c.257-.512.478-1.044.692-1.575a.811.811 0 01.857-.58h3.649a1.949 1.949 0 01.322.019c.615.1.783.365.593.958a8.97 8.97 0 01-1.45 2.488c-.609.831-1.259 1.634-1.863 2.471-.554.764-.51 1.149.178 1.812a31.147 31.147 0 012.258 2.239z" fill="#D7BB77"/></svg>