<?xml version="1.0" encoding="utf-8"?>
<!-- Generator: Adobe Illustrator 24.1.3, SVG Export Plug-In . SVG Version: 6.00 Build 0)  -->
<svg version="1.1" id="Layer_1" xmlns="http://www.w3.org/2000/svg" xmlns:xlink="http://www.w3.org/1999/xlink" x="0px" y="0px"
	 viewBox="0 0 82 86" style="enable-background:new 0 0 82 86;" xml:space="preserve">
<style type="text/css">
	.st0{fill-rule:evenodd;clip-rule:evenodd;fill:#FEFEFE;}
	.st1{fill:none;stroke:#FEFEFE;stroke-width:1.374;stroke-linejoin:round;}
	.st2{fill:none;stroke:#FEFEFE;stroke-width:1.374;stroke-linecap:round;stroke-linejoin:round;}
</style>
<g id="Symbols">
	<g id="Курица">
		<g id="Group-12">
			<g id="Group-3">
				<path id="Fill-1" class="st0" d="M14.2,3.3c1.5,0,2.9,1,3.1,2.3l0.5,0c3.5,0,5.6,5,8.1,12.4c2.6,7.8,5.6,13,12.1,13.8
					c0.7,0.1,1.4,0.1,2.1,0.1c3.6,0,7.3-0.9,11-0.9c2.3,0,4.6,0.4,6.8,1.6c0.3,0.1,0.7,0.2,1,0.2c3.9,0,9.2-7.6,12.1-11.2
					c0.5-0.6,1.3-1,2.2-1c1.1,0,2.1,0.7,2.3,2.6c2.9,0.3,3.1,4.2,1.5,7.1c1.4,1.8,0.2,6.7-2.3,10.8C68,52.3,72,63.6,49.7,70.6
					c-0.9,1.1-3.7,2.7-6.9,2.7c-2.3,0-4.9-0.8-7.2-3.1c-5.5-5.6-7.4-4.4-11.2-6.5c-3.9-2.1-13.5-7.9-12.9-21.8
					c0.7-13.9,2.1-18.2,0.8-22.6l-0.3,0c-2.3,0-4.1-1.7-4.4-3.3L6.9,16c-1.3,0-2.8,0.7-3.7,1.5c-0.2-2,0.5-4.8,3.2-6.2
					c-1.1-2.9,0.6-6.7,3.8-6.7c0.4,0,0.8,0.1,1.2,0.2C12.3,3.7,13.3,3.3,14.2,3.3 M14.2,0.1L14.2,0.1c-1.4,0-2.7,0.4-3.8,1.3h-0.1
					C8,1.4,5.8,2.5,4.4,4.6C3.4,6.1,2.9,8,3,9.9c-2.5,2.3-3.2,5.6-2.9,8c0.1,1.2,1,2.3,2.1,2.7c0.3,0.1,0.7,0.2,1.1,0.2
					c0.8,0,1.7-0.3,2.3-0.9l0.2-0.2c0.9,1.2,2.2,2.1,3.7,2.5c0.2,1.7-0.1,3.9-0.4,7.3c-0.3,3.1-0.7,7-0.9,12.3
					c-0.5,10.8,4.4,19.1,14.5,24.7c1.5,0.8,2.8,1.2,3.9,1.6c1.9,0.6,3.4,1.1,6.6,4.3c2.7,2.7,5.9,4,9.5,4c3.6,0,6.9-1.4,8.7-3.1
					c16.9-5.5,19.7-13.8,22.4-21.8c1-3,2-5.9,3.7-8.7c1.8-3,4.2-8.5,3.1-12.4c1-2.5,1-5.2-0.1-7.2c-0.5-1-1.3-1.8-2.3-2.4
					c-1-2.3-3-3.3-5-3.3c-1.8,0-3.5,0.9-4.7,2.2c-0.5,0.6-1,1.2-1.6,2c-1.5,1.9-6,7.7-7.9,8c-2.3-1.2-4.9-1.7-8-1.7
					c-2,0-4,0.2-5.9,0.5c-1.8,0.2-3.4,0.4-5,0.4c-0.6,0-1.2,0-1.7-0.1c-4.2-0.5-6.7-3.7-9.4-11.7c-2.5-7.3-4.9-13.5-9.7-14.5
					C18.2,1.1,16.3,0.1,14.2,0.1"/>
			</g>
			<path id="Stroke-4" class="st1" d="M39.1,42.2C55.5,38.8,52,43.9,60,42.3c0.3,5.8-6.9,12.2-12.3,11.3c-1,2.9-7.6,2.8-10.7,1.6"/>
			<path id="Fill-6" class="st0" d="M12,12c0-1.1,0.9-2,2-2c1.1,0,2,0.9,2,2c0,1.1-0.9,2-2,2C12.9,14,12,13.1,12,12"/>
			<line id="Stroke-8" class="st2" x1="43" y1="76" x2="43" y2="83"/>
			<path id="Stroke-10" class="st2" d="M33,84.7c3.1-1.5,10.6-2.2,15-0.5"/>
		</g>
	</g>
</g>
</svg>
