<svg id="Ягненок" xmlns="http://www.w3.org/2000/svg" xmlns:xlink="http://www.w3.org/1999/xlink" width="109" height="89" viewBox="0 0 109 89">
  <defs>
    <clipPath id="clip-path">
      <path id="Clip_2" data-name="Clip 2" d="M0,0H51.871V38.081H0Z" transform="translate(0 0.051)" fill="none"/>
    </clipPath>
    <clipPath id="clip-path-2">
      <path id="Clip_5" data-name="Clip 5" d="M0,0H79.848V69.909H0Z" transform="translate(0.299 0.091)" fill="none"/>
    </clipPath>
  </defs>
  <g id="Group_11" data-name="Group 11" transform="translate(0 0.949)">
    <g id="Group_3" data-name="Group 3" transform="translate(0 0.949)">
      <path id="Clip_2-2" data-name="Clip 2" d="M0,0H51.871V38.081H0Z" transform="translate(0 0.051)" fill="none"/>
      <g id="Group_3-2" data-name="Group 3" clip-path="url(#clip-path)">
        <path id="Fill_1" data-name="Fill 1" d="M28.138,38.081a11.326,11.326,0,0,1-6.043-1.744,17.4,17.4,0,0,1-4.686-4.484,46.217,46.217,0,0,1-6.132-12.7,29.062,29.062,0,0,1-8.2-4.384A7.637,7.637,0,0,1,0,8.77,4.019,4.019,0,0,1,1.281,5.836,11.264,11.264,0,0,1,8.806,3.193a14.9,14.9,0,0,1,5.179.974,23.49,23.49,0,0,1,12.85-4,21.348,21.348,0,0,1,9.517,2.259A14.6,14.6,0,0,1,44.585,0a19.725,19.725,0,0,1,2.83.213,4.907,4.907,0,0,1,4.454,4.724c.043,1.608-.5,3.973-5.161,8.025a32.341,32.341,0,0,1-4.171,3.117A61.348,61.348,0,0,1,39.975,26.4c-2.57,7.262-6.166,11.174-10.69,11.625A11.446,11.446,0,0,1,28.138,38.081ZM8.806,7.193A7.459,7.459,0,0,0,4,8.77c0,1.144.648,2.175,2.038,3.242a33.234,33.234,0,0,0,8.441,4.074c1.8,5.635,3.659,9.808,5.69,12.756,2.394,3.476,5.075,5.239,7.969,5.239.237,0,.49-.013.751-.038a6.34,6.34,0,0,0,4.3-2.91A23.418,23.418,0,0,0,36.2,25.065a57.627,57.627,0,0,0,2.66-11.639c.9-.181,3.148-1.677,5.22-3.48,2.4-2.088,3.815-3.92,3.788-4.9-.013-.483-.358-.776-1.026-.873A15.847,15.847,0,0,0,44.585,4a11.551,11.551,0,0,0-7.938,3.193,17.9,17.9,0,0,0-9.813-3.02,20.2,20.2,0,0,0-12.356,4.6A12.12,12.12,0,0,0,8.806,7.193Z" transform="translate(0 0.051)" fill="#D7BB77"/>
      </g>
    </g>
    <g id="Group_6" data-name="Group 6" transform="translate(28 17.949)">
      <path id="Clip_5-2" data-name="Clip 5" d="M0,0H79.848V69.909H0Z" transform="translate(0.299 0.091)" fill="none"/>
      <g id="Group_6-2" data-name="Group 6" clip-path="url(#clip-path-2)">
        <path id="Fill_4" data-name="Fill 4" d="M64.277,69.909A6.649,6.649,0,0,1,59.326,67.9a8.608,8.608,0,0,1-2.187-5.02A7.059,7.059,0,0,1,47.587,58.6a15.5,15.5,0,0,1-.554-4.06,17.354,17.354,0,0,1-1.957-.788,17.819,17.819,0,0,1-6.518,1.28,14.449,14.449,0,0,1-5.112-.905c-.023,7.167-1.073,11.9-3.121,14.052a5.406,5.406,0,0,1-3.934,1.735,5.189,5.189,0,0,1-3.686-1.569c-1.253-1.258-2.065-3.227-2.556-6.2a6.455,6.455,0,0,1-4.733,1.892,5.674,5.674,0,0,1-4.151-1.816c-2.714-2.867-2.972-8.486-2.5-17.224-2.324-1.894-3.59-4.827-3.983-9.23A10.66,10.66,0,0,1,.035,28.75,4.008,4.008,0,0,1,.608,26.1a6.366,6.366,0,0,1,4.08-2.548c2.841-.818,8.128-2.34,10.669-16.792A4.009,4.009,0,0,1,17.1,4.115a15.485,15.485,0,0,1,8.577-2.777,14.659,14.659,0,0,1,4.578.76A14.992,14.992,0,0,1,37.717.035a17.3,17.3,0,0,1,4.708.7A21.179,21.179,0,0,1,47.724,0a16.416,16.416,0,0,1,8.59,2.475A19.356,19.356,0,0,1,64.42,4.133a13.611,13.611,0,0,1,5.6,4.7,20.72,20.72,0,0,1,5.134,2.449,11.39,11.39,0,0,1,3.852,4.058,6.749,6.749,0,0,1,.364,5.734c-1.084,2.679-2.713,4.284-4.842,4.77a10.457,10.457,0,0,1-1.58,6.7,14.291,14.291,0,0,1,1.181,8.515,11.177,11.177,0,0,1-3.161,5.906c.017,1.822.052,3.5.093,5.339.18,8.129.289,13.035-2.431,15.816A5.946,5.946,0,0,1,64.277,69.909ZM61.2,47.286h0c0,2.562-.086,4.939-.162,7.037-.194,5.367-.335,9.244,1.169,10.8a2.721,2.721,0,0,0,2.073.781h.041a1.932,1.932,0,0,0,1.455-.588c1.542-1.577,1.437-6.34,1.292-12.932-.048-2.194-.1-4.68-.1-7.32,3.114-2,5.1-6.431,1.329-12.858,2.045-2.658,4.363-5.668-.886-12.858C70.039,21.161,71.837,22,73.067,22c1.341,0,2.009-.971,2.6-2.428a2.749,2.749,0,0,0-.2-2.383c-1.084-2.073-4.4-4.1-8.058-4.934-1.892-3.785-5.773-5.785-11.223-5.785-.32,0-.647.007-.971.022A13.137,13.137,0,0,0,47.724,4a18.721,18.721,0,0,0-5.371.905,13.892,13.892,0,0,0-4.636-.87,12.01,12.01,0,0,0-6.351,2.029c-.265.153-.516.3-.763.432l-.084-.034a12.564,12.564,0,0,0-4.844-1.124A11.593,11.593,0,0,0,19.3,7.454C16.323,24.365,9.212,26.413,5.795,27.4c-.906.261-1.561.45-1.8.824,0,.033.469,3.335,4.657,5.1.115,6.37,1.569,8.265,4.212,9.534-.006.473-.045,1.188-.1,2.093-.238,4.308-.68,12.327,1.4,14.523a1.672,1.672,0,0,0,1.246.565,2.5,2.5,0,0,0,1.9-.717c1.461-1.509,1.337-5.424,1.148-11.35-.018-.58-.037-1.174-.056-1.788a10.3,10.3,0,0,1,.777.692,11.665,11.665,0,0,0,4.322,2.855v.551c-.011,3.254-.046,13.157,2.032,15.242a1.189,1.189,0,0,0,.851.391,1.409,1.409,0,0,0,1.035-.49c2.542-2.675,1.915-15.564,1.908-15.693.02,0,1.948-.24,2.6-1.109a9.834,9.834,0,0,0,6.625,2.412,14.49,14.49,0,0,0,6.677-1.746A12.382,12.382,0,0,0,51,51.277a24.261,24.261,0,0,0,.416,6.15,2.634,2.634,0,0,0,2.91,2.053,2.244,2.244,0,0,0,1.693-.624c1.1-1.122,1.055-3.677,1-6.911-.014-.784-.029-1.595-.029-2.442A13.671,13.671,0,0,1,61.2,47.287Z" transform="translate(0.299 0.091)" fill="#D7BB77"/>
      </g>
    </g>
    <path id="Fill_7" data-name="Fill 7" d="M4.877,2.438A2.438,2.438,0,1,1,2.439,0,2.438,2.438,0,0,1,4.877,2.438" transform="translate(16.994 16.602)" fill="#D7BB77"/>
    <path id="Fill_9" data-name="Fill 9" d="M4.878,2.438A2.439,2.439,0,1,1,2.439,0,2.438,2.438,0,0,1,4.878,2.438" transform="translate(31.86 15.602)" fill="#D7BB77"/>
  </g>
</svg>
