<?xml version="1.0" encoding="utf-8"?>
<!-- Generator: Adobe Illustrator 24.1.3, SVG Export Plug-In . SVG Version: 6.00 Build 0)  -->
<svg version="1.1" id="Layer_1" xmlns="http://www.w3.org/2000/svg" xmlns:xlink="http://www.w3.org/1999/xlink" x="0px" y="0px"
	 viewBox="0 0 1869.5 1785.4" style="enable-background:new 0 0 1869.5 1785.4;" xml:space="preserve">
<style type="text/css">
	.st0{fill:#FFFFFF;}
</style>
<g>
	<path class="st0" d="M1586.1,1266.7c-0.4-12.2-0.9-17.1-1.9-17.7c-0.8-0.5-1.5-3.9-1.9-8.9c-0.3-4.5-1-8.5-1.7-8.8
		c-0.6-0.4-1.4-3.6-1.8-7.2s-1.3-7.4-2-8.6c-0.8-1.1-1.7-4.3-2-7c-0.4-2.7-1.3-5.3-2.1-5.7c-0.7-0.4-1.3-1.5-1.3-2.2
		c0-0.8-0.7-1.5-1.5-1.5c-1.1,0-1.5-1.2-1.5-4.4c0-2.6-0.6-5.1-1.5-6c-0.8-0.8-1.5-2.4-1.5-3.5c0-2.4-2-7.1-3-7.1
		c-0.4,0-1-1.9-1.3-4.1c-0.3-2.3-0.9-4.5-1.4-4.8c-0.5-0.3-1.5-2.5-2.1-4.9c-0.7-2.3-1.7-4.2-2.1-4.2c-0.5,0-1.2-1.6-1.5-3.5
		c-0.4-1.9-1.1-3.5-1.6-3.5s-1.2-1.6-1.6-3.5c-0.3-2-1.2-3.5-2-3.5s-1.4-0.9-1.4-1.9c0-3-1.1-5.1-2.6-5.1c-0.9,0-1.4-1.1-1.4-3
		c0-1.8-0.8-3.7-2-4.7c-1.1-1-2-2.3-2-3c0-0.6-0.6-1.8-1.2-2.5c-2.4-2.4-6.8-9.4-6.8-10.6c0-0.7-0.4-1.2-0.9-1.2s-1.4-1.3-2.1-2.9
		c-0.6-1.6-2.5-4.2-4.1-5.8c-1.5-1.5-2.9-3.2-2.9-3.7c0-1-1.9-3.2-5.9-6.9c-2.6-2.4-3-2.9-6.6-7.2c-1.4-1.7-2.5-3.5-2.5-4.1
		c0-0.7-0.7-1.4-1.5-1.8c-0.8-0.3-1.5-1.2-1.5-2.1c0-0.8-0.7-1.5-1.5-1.5s-1.5-0.7-1.5-1.5c0-0.8-0.7-1.5-1.5-1.5s-1.5-0.7-1.5-1.6
		s-0.9-1.8-2-2.1c-1.1-0.3-2-1-2-1.5c0-1.3-8.6-9.8-9.9-9.8c-0.6,0-1.1-0.6-1.1-1.4c0-1.8-11.9-13.8-15.3-15.3
		c-1.5-0.7-2.7-1.7-2.7-2.3c0-0.5-0.7-1-1.5-1c-0.9,0-1.8-0.7-2.1-1.5c-0.4-0.8-1.1-1.5-1.8-1.5c-0.6,0-2.4-1.1-4-2.5
		c-1.6-1.4-3.3-2.5-3.8-2.5c-0.4,0-0.8-0.7-0.8-1.5c0-0.8-0.9-1.5-2-1.5c-1.1,0-2-0.6-2-1.4c0-0.8-1.5-1.7-3.5-2
		c-2.1-0.4-3.5-1.3-3.5-2.1c0-0.8-0.7-1.5-1.5-1.5s-1.9-0.9-2.5-2c-0.6-1.1-2.1-2-3.3-2c-1.2,0-2.8-0.9-3.5-2c-0.7-1.1-1.9-2-2.7-2
		s-1.5-0.4-1.5-1c0-0.5-1.6-1.2-3.5-1.6c-1.9-0.3-3.5-1.2-3.5-2c0-0.7-1.5-1.6-3.4-2c-1.9-0.3-3.7-1.2-4-1.9c-0.2-0.7-1.8-1.6-3.5-2
		c-1.7-0.4-3.1-1.1-3.1-1.6s-0.7-0.9-1.5-0.9c-0.9,0-1.8-0.7-2.1-1.5c-0.4-0.8-1.5-1.5-2.5-1.5s-2.8-0.9-3.8-1.9s-3.3-2.2-4.9-2.6
		c-1.7-0.3-3.3-1.3-3.6-2.1c-0.3-0.8-1.9-1.4-3.6-1.4c-1.9,0-3-0.5-3-1.4c0-0.9-1.5-1.7-4-2.1c-2.2-0.4-4-1.1-4-1.5
		c0-0.5-1.5-1.2-3.2-1.5c-1.8-0.4-5.2-1.6-7.5-2.6c-2.3-1.1-5.5-1.9-7.2-1.9c-1.6,0-3.1-0.4-3.3-0.9c-0.1-0.5-3.2-1.5-6.8-2.2
		c-3.6-0.7-6.8-1.7-7.1-2.2s-3.5-1.1-7-1.4c-3.6-0.4-6.8-1.2-7.4-2c-0.6-0.8-4.2-1.6-9.5-2c-4.9-0.4-9-1.2-9.8-2
		c-1-0.9-4.8-1.3-14.3-1.3c-10.2,0-12.9-0.3-12.9-1.4c0-0.9-2.3-1.5-8.2-1.9c-9.4-0.8-33.3-0.7-36.3,0c-1.1,0.3-2.4,1.1-3,1.8
		c-0.5,0.7-2.8,1.5-4.9,1.8c-2.2,0.4-4.4,1.3-4.8,2.2c-0.5,0.8-1.5,1.5-2.1,1.5c-0.7,0-2,0.8-2.8,1.7c-0.9,1-2.8,2.7-4.3,3.7
		c-1.4,1-2.6,2.5-2.6,3.2s-0.9,1.8-2,2.4c-1.2,0.6-2,2.1-2,3.7c0,1.4-0.8,3.2-1.7,3.9c-1.5,1-1.9,3.2-2.1,12.5
		c-0.4,11.1,0.8,18.9,2.8,18.9c0.6,0,1,1.1,1,2.5c0,1.4,0.9,3.3,2,4.2c1.1,1,2,2.1,2,2.6c0,1.4,4.3,5.7,5.8,5.7
		c0.6,0,1.2,0.5,1.2,1.1c0,0.5,1.3,1.5,2.9,2c1.6,0.6,3.2,1.6,3.4,2.3c0.3,0.8,2.3,1.7,4.4,2.1c2.1,0.4,4.1,1.2,4.5,1.8
		c0.5,0.8,7.6,1.3,23.5,1.5c13.8,0.2,23,0.7,23.4,1.3c0.9,1.5,7.6,2.8,14.2,2.9c4.2,0,5.9,0.4,6.3,1.5c0.5,1.1,2.3,1.5,7.5,1.5
		c5.2,0,6.9,0.3,6.9,1.4c0,1.3,4.1,2.6,8.6,2.6c1.3,0,2.4,0.4,2.4,0.8c0,0.8,7.9,3.2,10.6,3.2c0.8,0,2.2,0.7,3,1.5
		c0.9,0.8,2.9,1.5,4.5,1.5c3.1,0,6.9,2.6,6.9,4.7c0,0.8,1.3,1.3,3.5,1.3c2.3,0,3.5,0.5,3.5,1.4c0,0.8,1.5,1.7,3.5,2
		c1.9,0.4,3.5,1.3,3.5,2c0,0.8,1.6,1.7,3.5,2c1.9,0.4,3.5,1,3.5,1.5c0,0.4,1.6,1.3,3.5,2.1c1.9,0.8,3.5,1.7,3.5,2.2
		c0,0.4,0.7,0.8,1.5,0.8c0.9,0,1.8,0.6,2.1,1.4c0.3,0.8,2.1,1.7,4,2c1.9,0.4,3.4,1.3,3.4,2.1c0,0.7,1.3,1.6,2.9,2
		c1.6,0.3,3.2,1.3,3.5,2.1c0.3,0.8,1.5,1.4,2.6,1.4c1.1,0,2,0.6,2,1.4c0,0.7,1.4,1.6,3,1.9c1.7,0.4,3,1.3,3,2.1s0.9,1.7,1.9,2.1
		c1.1,0.3,2.2,1.2,2.5,2c0.3,0.8,1.2,1.5,2.1,1.5c0.8,0,1.5,0.7,1.5,1.5c0,0.8,0.5,1.5,1.2,1.5c0.6,0,1.8,0.7,2.7,1.5
		c7.1,6.6,11.6,10.5,12.3,10.5c0.4,0,1,1.1,1.4,2.5c0.3,1.4,1.2,2.5,2,2.5c0.8,0,1.4,0.4,1.4,1c0,0.5,1.6,2.6,3.5,4.6
		c1.9,1.9,3.5,3.9,3.5,4.3c0,0.5,1.1,1.7,2.5,2.7c1.4,1,2.5,2.2,2.5,2.6c0,1,7.1,7.8,8.1,7.8c0.4,0,1.2,1.3,1.8,3c0.5,1.6,1.5,3,2,3
		c0.6,0,1.1,0.7,1.1,1.5c0,0.9,0.6,1.8,1.4,2.1c0.8,0.3,2,1.9,2.6,3.5c0.7,1.6,1.6,2.9,2.1,2.9s0.9,0.6,0.9,1.3c0,0.8,0.9,2.4,2,3.7
		c1.1,1.3,2,2.9,2,3.7c0,0.7,0.6,1.6,1.4,1.9c0.8,0.3,1.7,2.1,2,4c0.4,1.9,1.1,3.4,1.6,3.4c0.4,0,1.1,1.4,1.5,3.1
		c0.4,1.7,1.3,3.3,2.1,3.6c0.8,0.3,1.4,1.6,1.4,2.9c0,1.3,0.8,3.2,1.8,4.2c1.1,1.1,2.2,3.6,2.5,5.8c0.4,2.1,1.1,4,1.7,4.2
		c0.5,0.2,1.3,2.1,1.6,4.3c0.4,2.1,1.2,3.9,1.9,3.9s1.5,2,1.8,5c0.3,2.8,1.2,5.7,2,6.5c0.8,0.7,1.7,3.7,2,6.6
		c0.4,2.9,1.1,5.5,1.6,5.8s1.2,3.5,1.6,7.1c0.4,3.6,1.2,6.8,1.8,7.2c0.6,0.3,1.5,6.1,2,12.7c0.7,8.7,1.3,12.1,2.3,12.1
		c0.9,0,1.3,4.4,1.6,19.2c0.2,14.2,0.6,19.2,1.6,19.6c0.6,0.2,1.2,1,1.2,1.8c0,0.8,0.6,1.7,1.4,2c0.8,0.3,1.7,2.1,2,4
		c0.4,2,1.3,3.4,2.1,3.4s1.5,0.9,1.5,1.9c0,2.4,6.6,9.1,9,9.1c1,0,2,0.9,2.3,2c0.4,1.5,1.4,2,4.1,2c2,0,3.6,0.3,3.6,0.7
		c0.1,4.4,25.5,4.5,29,0.2c0.3-0.4,2-1,3.8-1.4s3.6-1.3,3.9-2c0.2-0.8,1.7-1.7,3.3-2c1.6-0.3,3.1-1.3,3.4-2.1s1.2-1.4,2.1-1.4
		c0.8,0,1.5-0.7,1.5-1.5c0-0.9,0.7-1.8,1.5-2.1c0.8-0.4,1.5-1.2,1.5-1.8c0-0.7,0.9-2.2,2.1-3.5c1.3-1.4,2.2-4.1,2.6-7.6
		c0.4-3.7,1-5.5,1.9-5.5c2,0,2-26.5,0-27.7C1587,1283.8,1586.5,1279.4,1586.1,1266.7z"/>
	<circle class="st0" cx="387.3" cy="777" r="49.6"/>
	<path class="st0" d="M1778,1259.6c-0.2-0.1-0.4-0.3-0.7-0.4c-14.1-8.2-29.5-14.4-45.8-18.3c-0.7-0.4-1.8-0.7-3.6-0.8
		c-4.1-0.9-8.3-1.6-12.6-2.2v-4.3c-0.1-3.4-0.7-8-1.5-10.2c-0.8-2.2-1.5-5.7-1.5-7.8c0-4.6-1.9-12.7-3-12.7c-0.4,0-1.1-3.4-1.5-7.5
		c-0.4-4.3-1.2-7.8-1.9-8.2c-0.7-0.5-1.6-3.5-1.9-6.7c-0.3-3.3-1.1-6.2-1.7-6.6c-0.6-0.4-1.5-3.5-2.1-7.1c-0.5-3.5-1.4-6.5-1.9-6.7
		s-1.2-2.5-1.6-5.2c-0.4-2.7-1.2-5.1-1.9-5.4c-0.7-0.2-1.5-2.7-1.9-5.5c-0.5-3.5-1.1-5.1-2.1-5.1s-1.5-1.1-1.5-3.5
		c0-2.4-0.5-3.5-1.5-3.5c-0.8,0-1.5-0.7-1.5-1.5c0-0.9-0.7-1.8-1.5-2.1c-0.8-0.4-1.5-1.7-1.5-2.9c0-3.3-1-5.5-2.5-5.5
		c-0.7,0-1.4-1.8-1.8-4.6c-0.2-2.6-0.9-4.9-1.4-5.3c-0.5-0.3-1.5-2.7-2.3-5.4c-0.7-2.6-1.6-4.7-2.1-4.7c-0.4,0-1.1-1.6-1.5-3.5
		c-0.3-1.9-0.9-3.5-1.3-3.5c-0.4,0-1.3-1.6-2-3.5c-0.7-1.9-1.6-3.5-2.1-3.5c-0.4,0-1.1-1.6-1.4-3.5c-0.4-1.9-1.3-3.5-2-3.5
		c-0.8,0-1.7-1.6-2-3.5c-0.4-1.9-1.1-3.5-1.7-3.5c-0.5,0-1.4-1.1-1.9-2.5c-0.5-1.4-1.4-2.5-2-2.5c-0.5,0-1-0.8-1-1.8
		c0-1.1-0.9-2.9-2-4.2c-1.1-1.3-2.3-3.4-2.6-4.7c-0.4-1.3-1-2.3-1.4-2.3c-0.5,0-1.1-1.4-1.5-3.1c-0.4-1.7-1.3-3.3-2.1-3.6
		s-1.4-1.1-1.4-1.8c0-0.6-0.9-2.2-2-3.5c-1.1-1.3-2-2.9-2-3.7c0-0.7-0.6-1.3-1.4-1.3c-0.8,0-1.8-0.9-2.1-2c-0.3-1.1-1.1-2-1.6-2
		s-1.3-0.8-1.6-1.8c-0.4-0.9-2.8-3.8-5.4-6.3c-2.6-2.6-5-5.7-5.4-6.9c-0.4-1.3-1.9-3.5-3.4-4.9c-1.5-1.5-3-3.4-3.4-4.4
		c-0.3-0.9-1.3-1.7-2.1-1.7c-0.7,0-1.7-1.1-2-2.5c-0.4-1.4-1.1-2.5-1.6-2.5c-0.6,0-1.5-1.1-2-2.5c-0.5-1.4-1.4-2.5-2-2.5
		c-0.5,0-1-0.6-1-1.4c0-0.8-1.1-2.4-2.5-3.7c-1.3-1.3-2.5-3-2.5-3.7c0-0.6-0.7-1.2-1.5-1.2s-1.5-0.4-1.5-0.9c0-1.4-4.5-6.1-5.9-6.1
		c-0.6,0-1.1-0.5-1.1-1.1c0-1.4-4.7-5.9-6.1-5.9c-0.5,0-0.9-0.7-0.9-1.6c0-0.9-0.9-1.8-2-2.1c-1.1-0.3-2-1.1-2-1.8
		c0-0.8-0.9-1.7-2-2c-1.1-0.3-2-1-2-1.4c0-0.5-1.3-1.4-3-2.1c-1.6-0.7-3-1.9-3-2.6c0-0.8-0.6-1.4-1.4-1.4c-0.8,0-1.8-0.9-2.1-2
		c-0.3-1.1-1.1-2-1.6-2c-0.6,0-2.5-1.6-4.3-3.5c-1.9-1.9-3.6-3.5-4-3.5c-0.3,0-3.5-2.9-7-6.5c-3.5-3.6-6.9-6.5-7.5-6.5
		c-0.6,0-1.1-0.7-1.1-1.5c0-0.8-0.4-1.5-1-1.5c-1.3,0-14-9.2-14-10.1c0-0.4-1.3-1-3-1.4c-1.6-0.4-3-1.3-3-2.1s-1-1.4-2.5-1.4
		c-1.4,0-3.3-0.9-4.2-2c-1-1.1-2.3-2-3-2s-1.3-0.5-1.3-1.1c0-0.5-1.3-1.5-2.9-2c-1.6-0.6-3.2-1.7-3.5-2.5c-0.3-0.8-1.5-1.4-2.6-1.4
		c-1.1,0-2-0.6-2-1.4c0-0.8-1.5-1.7-3.4-2c-1.9-0.4-3.7-1.3-4-2.1c-0.3-0.8-1.2-1.5-2.1-1.5c-0.9,0-2.5-0.9-3.7-2
		c-1.2-1.1-2.8-2-3.5-2s-1.3-0.4-1.3-0.8c0-0.5-1.6-1.4-3.5-2.2c-1.9-0.8-3.5-1.7-3.5-2.2c0-0.4-0.7-0.8-1.5-0.8
		c-0.9,0-1.8-0.7-2.1-1.5c-0.4-0.8-1.4-1.5-2.4-1.5c-0.9,0-2.8-0.9-4.2-1.9c-1.3-1.1-3.6-2.3-5.1-2.6c-1.4-0.4-2.8-1.3-3.1-2.1
		c-0.3-0.8-1.7-1.4-3.1-1.4c-1.4,0-2.8-0.6-3.1-1.4c-0.3-0.8-2.3-1.7-4.5-2.1c-2.1-0.4-3.9-1.1-3.9-1.6s-1.2-1.2-2.7-1.6
		c-1.6-0.3-4.1-1.5-5.8-2.5c-1.6-1-4.2-1.8-5.6-1.8c-1.5,0-2.9-0.7-3.3-1.5c-0.3-0.9-1.8-1.5-3.6-1.5c-1.7,0-3.3-0.6-3.6-1.4
		c-0.4-0.9-2.8-1.7-6.9-2.1c-3.9-0.5-6.6-1.2-6.9-2.1c-0.3-0.7-2.7-1.6-5.5-2c-2.8-0.4-5.2-1.2-5.5-2c-0.4-0.9-2.2-1.4-5.2-1.4
		c-3.2,0-5.1-0.5-5.9-1.7c-0.8-1.1-3.2-1.8-7.4-2.1c-4.1-0.3-6.4-0.9-6.8-1.8c-0.4-1-2.5-1.4-7.4-1.4c-3.8,0-6.9-0.4-6.9-0.8
		c0-1.8-5.3-3.2-11.5-3.2c-3.6,0-6.5-0.4-6.5-0.9c0-1.5-8.6-3.1-16.9-3.1c-5.5,0-8.1-0.4-8.3-1.3c-0.4-0.9-5.5-1.3-19.9-1.5
		c-10.8-0.2-19.6-0.8-20-1.3c-1.8-3.1-13.1-3.2-218.6-3.8c-113.9-0.3-207.5-1-208-1.4c-0.4-0.5,0-1.3,1-1.8c1-0.6,1.7-2.2,1.7-4
		c0-1.7,0.6-3.2,1.5-3.5c0.9-0.4,1.7-2.6,2.1-5.4c0.4-2.7,1.2-5.1,1.9-5.4c0.7-0.2,1.5-2.2,1.8-4.4c0.4-2.2,1.4-5.2,2.2-6.8
		c0.8-1.6,1.5-4.4,1.5-6.2c0-1.7,0.4-3.2,0.9-3.2c1,0,3.1-7.7,3.1-11.4c0-1.3,0.5-2.6,1.2-2.8c0.7-0.3,1.3-3.8,1.6-9.3
		c0.3-5.4,1-9.4,1.8-10.2c2.1-2.1,2.6-10.4,2.2-36.6c-0.3-22.3-0.5-25-2-26.1s-1.8-2.9-1.8-9.5c0-4.4,0.4-8.1,0.8-8.1
		c0.5,0,1.4-1.1,2.2-2.4c0.7-1.4,2.4-2.7,3.7-3.1c1.3-0.3,4-2.1,5.9-4c1.9-1.9,4.4-3.5,5.5-3.5c1.1,0,2.2-0.7,2.5-1.5
		c0.4-0.8,1.2-1.5,1.8-1.5c0.7,0,2.2-0.9,3.4-2c1.2-1.1,2.8-2,3.7-2c0.9,0,1.8-0.6,2.1-1.4c0.3-0.8,1.8-1.9,3.4-2.6
		c1.6-0.7,3.1-1.8,3.4-2.6c0.3-0.8,1.2-1.4,2-1.4c0.7,0,1.6-0.7,2-1.5c0.3-0.8,1.2-1.5,2.1-1.5c0.8,0,1.5-0.6,1.5-1.4
		s1.3-1.7,2.9-2.1c1.6-0.3,3.2-1.3,3.5-2.1c0.3-0.8,1-1.4,1.5-1.4s3.2-2.3,6-5c2.8-2.8,5.5-5,6-5s1.9-1.1,3.2-2.5
		c1.3-1.3,3-2.5,3.7-2.5c0.6,0,1.2-0.7,1.2-1.5s0.9-1.9,1.9-2.5c1.1-0.5,2.3-1.9,2.6-3c0.3-1.1,1.3-2,2.1-2c0.8,0,2.3-0.9,3.4-2
		c1.1-1.1,2.4-2,3-2c0.5,0,1.3-0.6,1.7-1.3c0.4-0.8,1.6-1.6,2.6-2c0.9-0.3,1.7-1.3,1.7-2.1s1.3-1.7,3-2.1c1.7-0.4,3-1.3,3-2.1
		c0-0.8,0.7-1.4,1.5-1.4c0.9,0,1.8-0.7,2.1-1.5c0.4-0.8,1.2-1.5,1.9-1.5c0.8,0,1.7-0.9,2-2c0.3-1.1,1.3-2,2.1-2
		c0.8,0,1.4-0.7,1.4-1.5s0.7-1.5,1.6-1.5c0.9,0,1.8-0.9,2.1-2c0.3-1.1,1-2,1.6-2c1.3,0,20.7-19.7,20.7-21c0-0.6,0.4-1,1-1
		c0.5,0,2.9-1.9,5.3-4.3c2.3-2.4,5-4.6,6-5c0.9-0.3,1.7-1.3,1.7-2.2c0-0.8,0.5-1.5,1.1-1.5c1.5,0,5.9-4.2,5.9-5.8
		c0-0.6,0.7-1.2,1.6-1.2c0.9,0,1.8-0.9,2.1-2c0.3-1.1,1.2-2,1.9-2c0.8,0,1.4-0.7,1.4-1.5s0.7-1.5,1.6-1.5c0.9,0,1.8-0.9,2.1-2
		c0.3-1.1,1.2-2,2-2c0.8,0,1.7-0.9,2-2c0.3-1.1,1.2-2,1.9-2c0.8,0,1.4-0.4,1.4-1c0-0.5,1.6-2.6,3.5-4.6c1.9-1.9,3.5-4,3.5-4.5
		s0.7-0.9,1.5-0.9s1.5-0.6,1.5-1.4c0-0.7,1.8-3.3,4-5.6c2.2-2.4,4.3-5.3,4.6-6.6c0.4-1.3,1.2-2.4,1.9-2.4c1.5,0,9.9-8.1,10.8-10.4
		c0.4-0.9,1.3-1.6,2.1-1.6s1.7-1.3,2.1-2.9c0.3-1.7,1.4-3.1,2.6-3.4c1-0.3,1.9-1.2,1.9-2.1s0.7-1.6,1.5-1.6s1.5-0.6,1.5-1.3
		s0.8-2,1.8-2.9c0.9-0.9,2.2-2.3,2.7-3c4.7-6.2,6.5-8.7,6.5-9.2c0-0.3,1.6-2.2,3.5-4.2c1.9-1.9,3.5-4,3.5-4.5s0.9-1.8,2-2.9
		c1.1-1.1,2-2.6,2-3.4c0-0.7,1.6-3.1,3.5-5.2c1.9-2.1,3.5-4.2,3.5-4.6c0-0.5,0.9-1.8,2-3c1.1-1.2,2-2.8,2-3.5c0-0.7,1.1-1.5,2.5-1.9
		c1.4-0.3,2.5-1.2,2.5-1.9s1.1-2.3,2.5-3.6c1.3-1.3,2.5-2.9,2.5-3.5c0-0.7,0.7-1.4,1.5-1.8c0.8-0.3,1.5-1.2,1.5-1.9
		c0-0.8,0.9-2.4,2-3.7c1.1-1.3,2-2.9,2-3.5c0-0.7,0.6-1.5,1.4-1.8s1.7-1.9,2.1-3.5c0.3-1.7,1.3-3.3,2.1-3.6c0.8-0.3,1.4-1.2,1.4-2.1
		c0-0.8,0.6-1.5,1.4-1.5c1,0,1.7-1.6,2.2-4.5c0.4-2.7,1.1-4.5,1.9-4.5s1.7-1,2.1-2.2c0.3-1.2,1.3-2.8,2-3.6c0.8-0.7,1.4-2,1.4-2.8
		c0-0.8,0.9-2.3,2-3.4c1.1-1.1,2-2.9,2-3.9s0.6-2.1,1.4-2.4s1.7-1.9,2.1-3.5c0.3-1.7,1.3-3.3,2.1-3.6c0.8-0.3,1.4-1.8,1.4-3.5
		c0-1.6,0.6-3.1,1.4-3.4c0.7-0.3,1.6-1.8,2-3.2c0.4-1.5,1.4-3.4,2.1-4.2c0.8-0.8,1.5-2.5,1.5-3.8c0-1.2,0.6-2.5,1.4-2.8
		c0.7-0.3,1.7-2.2,2-4.2c0.8-3.9,3.3-7.5,5.3-7.5c0.8,0,1.3-1.2,1.3-3s0.6-3.3,1.5-3.6c0.8-0.3,1.7-2.1,2.1-4c0.3-1.9,1-3.4,1.4-3.4
		c0.4,0,1.3-2.3,2-5c0.7-2.8,1.6-5,2-5c0.5,0,1.2-2.1,1.5-4.8c0.4-2.6,1.4-5.2,2.2-5.9c0.8-0.6,1.7-3.7,2-7c0.4-3.3,1.2-6.3,2.1-6.9
		c0.8-0.6,1.6-3.6,1.9-7.7c0.3-3.7,0.9-6.7,1.3-6.7c1.2,0,2.1-4.5,3.1-14.5c0.5-5,1.3-12.4,1.9-16.5c1.1-7.9,0.3-23-1.1-23
		c-0.5,0-0.9-2.6-0.9-5.8c-0.1-7.2-1.5-14.5-2.9-15c-0.6-0.2-1.1-1.4-1.1-2.7c0-4.4-1.3-8.5-2.6-8.5c-0.9,0-1.4-1.1-1.4-3
		c0-1.9-0.7-3.3-1.9-4c-1.1-0.5-2.2-2.3-2.6-3.9c-0.3-1.6-1.3-3.2-2.1-3.5s-1.4-1.2-1.4-2.1c0-0.8-0.7-1.5-1.5-1.5s-1.5-0.5-1.5-1.1
		c0-1.1-2.4-4-6.5-8.1c-6.7-6.4-9.3-8.8-9.9-8.8c-0.4,0-2-1.4-3.6-3c-1.6-1.7-3.6-3-4.3-3c-0.8,0-2.4-0.9-3.6-1.9
		c-1.3-1.1-3.6-2.3-5.2-2.6c-1.6-0.4-2.9-1-2.9-1.5s-2.1-1.2-4.7-1.6c-2.7-0.4-5.3-1.4-5.9-2.2c-0.8-1.1-3.6-1.7-9.5-2
		c-4.6-0.3-8.7-1-9.1-1.6c-1.1-1.6-37.3-1.5-39,0.1c-0.6,0.7-3.5,1.3-6.2,1.3c-8.4,0-15.6,1.2-15.6,2.5c0,0.8-2.4,1.4-7.1,1.7
		c-3.9,0.3-7.4,1-7.8,1.5c-0.3,0.4-3.3,1.4-6.6,2.1c-3.3,0.6-6.1,1.6-6.3,2.2c-0.2,0.5-1.3,1-2.3,1c-1.1,0-3.9,0.8-6.2,1.9
		c-2.3,1-5.7,2.2-7.4,2.6c-1.8,0.3-3.3,1.1-3.3,1.6s-0.7,0.9-1.6,0.9c-0.8,0-3.4,0.9-5.7,1.9c-2.4,1.1-5.5,2.3-6.9,2.6
		c-1.5,0.4-2.9,1.3-3.2,2.1c-0.3,0.8-1.2,1.4-2,1.4c-2.4,0-8.5,3.4-8.6,4.7c0,0.6-1.8,1.4-4,1.8c-2.2,0.4-4,1.1-4,1.5
		c0,0.5-1.3,1.1-3,1.5c-1.6,0.4-3.3,1.2-3.7,1.9c-0.5,0.7-2,1.6-3.4,1.9c-2.6,0.7-2.7,0.6-3.1-5.4c-0.2-3.3-0.9-6.4-1.5-6.7
		c-0.6-0.4-1.3-7.5-1.6-16.6c-0.4-10.1-1.1-16.2-1.8-16.7c-0.6-0.3-1.5-4.4-2-8.9c-0.4-4.6-1.3-8.6-1.9-9c-0.6-0.4-1.5-3.1-1.9-6.1
		c-0.7-5.1-3.4-10.9-5.1-10.9c-0.4,0-1-2.1-1.3-4.7c-0.3-2.6-1.2-5.2-2.1-5.8c-0.9-0.7-1.6-2.6-1.6-4.4c0-2-0.5-3.1-1.4-3.1
		c-0.8,0-1.7-1.5-2-3.5c-0.4-2.1-1.3-3.5-2.1-3.5c-1,0-1.5-1-1.5-3s-1.1-4.1-3.2-6.4c-1.8-1.9-4-4.7-4.9-6.2
		c-3.4-6.3-4.5-7.9-8.1-11.6c-2.1-2.1-4.2-3.8-4.7-3.8s-1.2-0.9-1.6-1.9c-0.3-1.1-1.9-2.2-3.5-2.6c-1.5-0.3-3.1-1.3-3.4-2.1
		c-0.3-0.8-1.2-1.4-2-1.4c-0.8,0-1.9-0.7-2.4-1.6c-0.5-0.8-2.7-1.8-5-2.1c-2.4-0.3-4.2-1.1-4.2-1.8s-1.7-1.6-3.7-2
		c-2.1-0.4-4.1-1.1-4.4-1.7c-0.4-0.6-3.7-1.3-7.5-1.5c-3.8-0.3-7.2-1.1-7.6-1.6c-0.2-0.3-1.1-0.7-2.3-1.1h-28.8
		c-0.4,0.3-0.7,0.5-0.7,0.8c0,1-2.4,1.5-8.7,1.8c-5.3,0.3-8.8,0.9-9.1,1.6c-0.2,0.6-2.6,1.5-5.4,1.8c-2.7,0.4-5.2,1.2-5.5,1.9
		c-0.2,0.7-2,1.6-3.9,1.9c-1.9,0.4-3.4,1.1-3.4,1.6c0,0.4-1.4,1.1-3.1,1.5c-1.7,0.4-3.3,1.3-3.6,2.1c-0.3,0.7-2,1.6-3.8,2
		c-1.9,0.3-3.6,1.2-3.9,2c-0.3,0.8-1.1,1.4-1.8,1.4c-0.8,0-2.1,0.9-3.1,2c-0.9,1.1-2.6,2-3.7,2c-1.1,0-2,0.7-2,1.5s-0.7,1.5-1.6,1.5
		s-1.8,0.9-2.1,2c-0.3,1.1-1.1,2-1.8,2c-0.7,0-3,1.6-5.1,3.5c-2.1,1.9-4.4,3.5-5.1,3.5c-0.8,0-1.6,0.7-1.9,1.5
		c-0.4,0.8-1.1,1.5-1.7,1.5s-4.1,3.1-7.8,7c-3.8,3.8-7.3,7-7.9,7c-0.5,0-1,0.6-1,1.4c0,0.7-0.9,1.6-2,1.9c-1.1,0.3-2,1.2-2,2
		c0,0.9-0.9,1.9-2,2.2c-1.1,0.3-2,1.1-2,1.6c0,0.6-2.3,3.2-5,5.9c-2.8,2.7-5,5.3-5,5.9c0,0.6-0.7,1.1-1.5,1.1s-1.5,0.6-1.5,1.3
		c0,0.7-0.9,2-2,3c-1.1,0.9-2,2.6-2,3.7c0,1.1-0.8,2.4-1.7,2.7c-2,0.8-5.3,4-5.3,5.1c0,0.5-1.6,2.2-3.5,3.8
		c-1.9,1.6-3.5,3.5-3.5,4.1c0,0.7-0.6,1.3-1.4,1.3c-0.8,0-1.7,1.3-2.1,2.9c-0.3,1.7-1.4,3.1-2.6,3.4c-1,0.3-1.9,1.2-1.9,2.1
		c0,0.9-0.5,1.6-1.1,1.6c-0.5,0-1.5,1.3-2,3c-0.6,1.6-1.5,3-2,3s-1.4,1.1-1.9,2.5c-0.5,1.4-1.4,2.5-2,2.5c-0.5,0-1,0.7-1,1.5
		c0,0.9-0.6,1.8-1.4,2.1c-0.8,0.3-1.8,1.8-2.1,3.4c-0.3,1.6-1.2,3.1-2,3.3c-0.7,0.3-1.6,1.9-2,3.5c-0.3,1.7-1.3,3.3-2.1,3.6
		c-0.8,0.3-1.4,1.2-1.4,1.9c0,0.8-0.9,2.4-2,3.7c-1.1,1.3-2,3.4-2,4.7c0,1.4-0.6,2.3-1.5,2.3c-0.8,0-1.7,1.1-2.1,2.4
		c-0.3,1.4-1.2,2.7-1.9,3c-0.7,0.2-1.6,1.8-2,3.4c-0.3,1.7-1.3,3.3-2.1,3.6c-0.8,0.3-1.4,1.6-1.4,2.9c0,1.8-0.8,2.8-3,3.7
		c-2.1,0.9-3,1.9-3,3.6c0,1.3-0.9,2.8-2,3.4c-1.1,0.6-2,2-2,3c0,1.1-0.9,2.8-2,3.7c-1.1,1-2,2.5-2,3.5s-0.4,1.8-0.9,1.8
		s-1.5,1.6-2.1,3.5c-0.6,1.9-1.5,3.5-2,3.5s-1.2,1.6-1.6,3.5c-0.3,1.9-1.5,4.4-2.5,5.6s-1.9,3.2-1.9,4.4c0,1.3-0.6,2.5-1.4,2.8
		c-0.8,0.3-1.7,1.9-2.1,3.5c-0.3,1.7-1.3,3.3-2.1,3.6c-0.8,0.3-1.4,1.8-1.4,3.5c0,1.6-0.6,3.1-1.4,3.4c-0.8,0.3-1.8,2.2-2.2,4.1
		c-0.3,2.1-1.2,3.6-2,3.6c-0.9,0-1.4,1.2-1.4,3.5s-0.5,3.5-1.4,3.5c-0.9,0-1.7,1.5-2.1,4c-0.4,2.2-1,4-1.5,4c-0.4,0-1.1,1.2-1.5,2.7
		c-0.3,1.5-1.5,4.6-2.6,7c-1,2.3-1.9,5.1-1.9,6.2c0,1.2-0.9,3-2,4.1c-1.1,1.1-2,3.1-2,4.5c0,1.4-0.4,2.5-1,2.5
		c-0.5,0-1.2,1.6-1.6,3.7c-0.7,3.9-3.1,7.3-5.1,7.3c-0.8,0-1.3,1.3-1.3,3.2c0,1.8-0.9,4.4-2,5.8c-1.1,1.4-2,3.8-2,5.3
		s-0.7,3-1.5,3.3s-1.7,2.6-2.1,5.2c-0.3,2.6-1.3,5.4-2.1,6.3c-0.7,0.9-1.7,3.4-2,5.5c-0.3,2.2-1,4.2-1.5,4.5s-1.4,2.6-1.9,5
		c-0.6,2.4-1.5,4.7-2.1,5c-0.6,0.4-1.3,3-1.6,5.8c-0.3,3.1-0.9,5.1-1.7,5.1c-1.3,0-2.5,4.3-2.5,8.5c0,1.3-0.5,2.5-1,2.7
		c-0.6,0.2-1.6,3-2.2,6.3c-0.7,3.3-1.6,6.3-2,6.6c-0.5,0.3-1.1,2.9-1.5,5.7c-0.3,2.9-0.9,5.2-1.3,5.2c-0.9,0-3,7.9-3,11.4
		c0,1.3-0.5,2.6-1.2,2.8c-0.6,0.2-1.3,3.1-1.6,6.3c-0.3,3.4-1.1,6.4-1.8,7c-0.8,0.6-1.7,3.9-2,7.5c-0.4,3.6-1.2,6.8-1.8,7.2
		c-0.6,0.4-1.2,3.9-1.4,7.7c-0.2,3.9-0.8,7.1-1.2,7.1c-1.5,0-3,5.4-3,11c0,3.3-0.4,6-0.8,6c-1.1,0-3.2,8.3-3.2,12.9v3.8l-11.1,1
		c-6.1,0.5-11.4,1.4-11.7,2c-0.4,0.6-4.7,1.3-9.6,1.6c-5.4,0.3-9.2,1-9.6,1.7c-0.4,0.7-4.3,1.6-8.6,2c-4.3,0.4-8,1.3-8.2,1.9
		c-0.2,0.6-1,1.1-1.8,1.1s-1.7,0.7-2,1.5c-0.5,1.1-2.2,1.5-6.8,1.5c-3.4,0-6.7,0.5-7.3,1.1c-0.5,0.5-3.9,1.4-7.4,1.9
		c-3.7,0.5-6.8,1.6-7.5,2.5c-0.7,0.9-2.7,1.5-5.6,1.5c-2.9,0-5.1,0.6-6.4,1.8c-1.1,1.1-4.2,2.1-6.9,2.4c-2.7,0.4-5.1,1.1-5.3,1.7
		c-0.2,0.6-1.4,1.1-2.7,1.1c-4.2,0-8.5,1.2-8.5,2.5c0,0.8-2,1.4-5.1,1.7c-2.8,0.3-5.4,1-5.8,1.6c-0.3,0.5-2.3,1.3-4.4,1.7
		c-2.1,0.4-4.4,1.3-5.1,2c-0.7,0.8-3,1.7-5,2c-2,0.4-3.6,1.1-3.6,1.6c0,0.4-1.5,1.1-3.4,1.5c-1.9,0.3-3.7,1.2-4,2
		c-0.3,0.8-1.6,1.4-3,1.4c-1.4,0-3.1,0.7-3.9,1.5s-3.5,1.9-6.1,2.6c-2.5,0.6-4.6,1.5-4.6,2c0,0.4-1.5,1.1-3.4,1.5
		c-1.9,0.3-3.7,1.2-4,1.9c-0.2,0.7-1.8,1.6-3.4,2c-1.7,0.3-3.3,1.3-3.6,2.1c-0.3,0.8-1.8,1.4-3.5,1.4c-2,0-3,0.6-3.4,2
		c-0.4,1.4-1.4,2-3.5,2c-2.3,0-3.1,0.5-3.6,2.4c-0.4,1.7-1.5,2.6-3.7,3.1c-1.7,0.4-3.3,1.3-3.6,2c-0.2,0.8-1.8,1.7-3.5,2
		c-1.6,0.4-3.2,1.3-3.5,2.1s-1.4,1.4-2.4,1.4s-1.9,0.7-1.9,1.5c0,1-1,1.5-2.8,1.5c-1.6,0-3.8,0.9-5,2c-1.2,1.1-2.7,2-3.4,2
		s-1.9,0.9-2.6,2c-0.7,1.1-1.9,2-2.7,2s-2.3,0.9-3.2,2c-1,1.1-2.5,2-3.5,2s-1.8,0.5-1.8,1.1c0,0.5-1.3,1.5-2.9,2
		c-1.6,0.6-3.2,1.7-3.5,2.5c-0.3,0.8-1,1.4-1.6,1.4s-2.3,1.2-3.8,2.7c-1.5,1.6-3.8,3.4-5.2,4.1c-2.9,1.5-8.9,6.5-22.2,18.4
		c-1.7,1.6-3.5,2.8-4,2.8s-2.5,1.6-4.4,3.5c-1.8,1.9-3.8,3.5-4.4,3.5c-0.5,0-1,0.7-1,1.5s-0.5,1.5-1.1,1.5c-0.7,0-2.6,1.6-4.5,3.5
		c-1.8,1.9-3.7,3.5-4.2,3.5s-1.2,0.9-1.5,2c-0.3,1.1-1.2,2-2.1,2c-0.9,0-1.6,0.6-1.6,1.4c0,0.8-0.9,1.8-2,2.1s-2,1-2,1.5
		s-3.8,4.7-8.5,9.4c-4.7,4.7-8.5,9-8.5,9.6c0,0.5-0.7,1-1.5,1s-1.5,0.5-1.5,1.1s-1.7,2.7-3.7,4.8c-2.1,2.1-4.7,5-5.8,6.5
		c-3.2,4.4-6.3,7.6-7.5,7.6c-0.5,0-1,0.7-1,1.5s-0.9,1.9-2,2.5c-1.1,0.6-2,1.7-2,2.6c0,0.8-0.7,1.7-1.5,2c-0.8,0.4-1.5,1.2-1.5,1.9
		s-1.1,2.3-2.5,3.6c-1.3,1.3-2.5,3-2.5,3.6c0,0.7-0.7,1.3-1.5,1.3s-1.5,0.9-1.5,2c0,1.1-0.4,2-0.9,2s-1.4,1.3-2.1,3
		c-0.7,1.6-1.6,3-2.1,3s-1.4,1.1-1.9,2.5c-0.5,1.4-1.4,2.5-1.9,2.5s-1.2,1.4-1.6,3c-0.4,1.6-1,3-1.5,3c-0.4,0-1.4,1.4-2.1,3.2
		c-0.7,1.8-2.1,4-3.1,5s-1.8,2.4-1.8,3.2c0,0.8-0.7,1.6-1.5,2c-0.8,0.3-1.5,1.5-1.5,2.6c0,1.1-0.4,2-1,2c-0.5,0-1,0.6-1,1.4
		c0,0.7-0.9,1.6-1.9,1.9c-1.1,0.3-2.2,1.7-2.6,3.6c-0.4,1.7-1.3,3.1-2.1,3.1c-0.8,0-1.4,0.9-1.4,2c0,1.1-0.6,2-1.4,2
		c-0.8,0-1.7,1.5-2,3.4c-0.4,1.9-1.3,3.6-2,3.9c-0.8,0.3-1.7,1.9-2.1,3.6c-0.4,1.7-1.1,3.1-1.5,3.1c-0.5,0-1.2,1.5-1.6,3.4
		c-0.3,1.9-1.2,3.7-1.9,4c-0.8,0.3-1.7,2.2-2.1,4.3c-0.4,2-1.3,4.4-2.1,5.1c-0.8,0.8-1.7,2.7-2,4.3c-0.3,1.5-1.1,3-1.9,3.3
		c-0.8,0.3-1.4,1.9-1.4,3.5c0,1.6-0.6,3.1-1.4,3.4c-0.8,0.3-1.7,2-2.1,3.8s-1.4,3.9-2.1,4.7c-0.8,0.7-1.4,3.1-1.4,5.3
		c0,2.7-0.4,3.9-1.4,3.9c-1.6,0-2.6,2.1-2.6,5.6c0,1.3-0.4,2.4-0.9,2.4c-0.4,0-1.4,2.1-2.1,4.7c-0.6,2.7-1.8,6-2.6,7.5
		c-0.8,1.4-1.4,4.3-1.4,6.3c0,2.3-0.6,4.2-1.6,4.9c-0.8,0.7-1.8,3.2-2.1,5.6c-0.3,2.5-1,4.8-1.6,5.1c-0.5,0.4-1.2,4-1.5,8
		c-0.3,5.2-1,7.9-2.3,9.3c-1.1,1.1-1.9,2.5-1.9,3.2s-0.6,1.4-1.3,1.6c-0.9,0.4-1.2,8.6-1.2,36.7c0,33.5,0.1,36.3,1.7,37.2
		c1,0.6,1.8,1.6,1.8,2.4c0,0.8,0.6,1.8,1.4,2.2c0.9,0.5,1.5,3.5,1.8,9.1c0.3,4.6,0.9,8.7,1.5,9c0.6,0.4,1.3,3.1,1.5,6.1
		c0.3,3.4,1.2,5.9,2.2,6.6c0.9,0.7,1.6,2.5,1.6,4.1c0,1.6,0.6,4.1,1.4,5.6c0.8,1.5,1.7,4.1,2.1,5.8c0.4,1.7,1.3,3.4,2.1,3.7
		c0.8,0.3,1.4,1.7,1.4,3.2s0.9,3.7,2,4.9s2,3.2,2,4.5s0.9,3.4,2,4.7c1.1,1.3,2,3.2,2,4.2s0.7,2.1,1.5,2.4c0.8,0.3,1.7,2.1,2.1,4
		c0.3,1.9,1.2,3.4,1.9,3.4c0.8,0,1.6,1.4,2,3c0.4,1.7,1.1,3,1.6,3s1.4,1.1,1.9,2.5c0.5,1.4,1.4,2.5,2,2.5c0.5,0,1,0.7,1,1.5
		c0,0.9,0.6,1.8,1.4,2.1c0.8,0.3,1.9,1.9,2.5,3.5c0.5,1.6,1.4,2.9,1.9,2.9s1.2,0.9,1.5,2c0.3,1.1,1.2,2,2,2s1.7,0.9,2,2
		c0.3,1.1,1.2,2,2.1,2c0.9,0,1.6,0.6,1.6,1.3c0,0.8,1.6,2.8,3.5,4.6c1.9,1.7,3.5,3.7,3.5,4.4s1.6,2.5,3.5,4.1
		c1.9,1.6,3.5,3.5,3.5,4.3c0,0.7,0.7,1.3,1.5,1.3s1.5,0.7,1.5,1.5c0,0.9,0.8,1.9,1.7,2.2c1,0.4,3.2,2.2,4.9,4
		c1.7,1.8,3.6,3.3,4.3,3.3c0.6,0,1.1,0.6,1.1,1.4s1.1,1.7,2.5,2c1.4,0.4,2.5,1.1,2.5,1.6c0,0.6,1.1,1.5,2.5,2s2.5,1.6,2.5,2.5
		c0,0.8,0.9,1.5,2,1.5s2,0.6,2,1.4s1.3,1.7,2.9,2.1c1.6,0.3,3.2,1.3,3.5,2.1c0.3,0.8,1.5,1.4,2.6,1.4s2,0.7,2,1.5
		c0,0.8,0.6,1.5,1.3,1.5c0.6,0,2.6,0.7,4.2,1.6c1.7,0.9,4.2,2.3,5.8,3.1c1.5,0.8,2.7,1.9,2.7,2.4s0.7,0.9,1.5,0.9s1.5,0.4,1.5,1
		c0,0.5,0.7,1,1.5,1s1.9,0.9,2.5,2c0.6,1.2,2.1,2,3.6,2c1.3,0,2.7,0.7,3,1.5c0.3,0.8,2.1,1.7,3.9,2.1c1.9,0.3,3.6,1.3,3.9,2.1
		c0.7,1.8-1.4,10.6-2.7,11.4c-0.5,0.4-1.2,3-1.5,5.8c-0.2,2.8-0.8,5.1-1.2,5.1c-1.3,0-3,5.1-3,9c0,2.2-0.4,4-0.8,4
		c-1.2,0-3.2,6.2-3.2,9.7c0,1.7-0.7,4.4-1.5,5.9c-0.8,1.6-1.5,5.3-1.5,8.1c0,2.9-0.4,5.3-0.9,5.3c-1.2,0-3.1,8-3.1,13.4
		c0,2.5-0.5,4.6-1.2,4.8c-0.7,0.3-1.3,4.9-1.6,13.6c-0.3,9.8-0.8,13.2-1.7,13.2c-2.3,0-2.7,12.2-2.3,67.3c0.3,47.5,0.5,53,1.9,54.1
		c1.3,0.9,1.7,3.5,2,12.9c0.3,7.1,0.9,12.1,1.5,12.5c0.6,0.4,1.4,4.3,1.6,8.6c0.4,5.5,1,8.3,2,9c1.1,0.8,1.7,3.5,2,8.5
		c0.2,4.6,0.8,7.6,1.6,7.9c0.7,0.2,1.2,1.7,1.2,3.3c0,3.9,2,11.9,3,11.9c0.4,0,1,2.1,1.3,4.7c0.3,2.6,1.2,5.2,2.1,5.8
		c1,0.8,1.6,2.7,1.6,5.3c0,2.2,0.6,4.7,1.4,5.5c0.8,0.8,1.8,3.5,2.1,6.1c0.4,2.6,1.3,5,2,5.2c0.7,0.3,1.6,2.5,2,5
		c0.3,2.4,1,4.4,1.5,4.4c0.4,0,1.3,2.2,2,5c0.7,2.7,1.6,5,2,5s1.1,1.6,1.4,3.5c0.4,1.9,1.4,3.8,2.3,4.3c0.9,0.5,1.3,1.4,0.9,2.1
		c-0.5,0.8-12.9,1.1-44,1.1c-21.8,0-34.1,0.1-40,0.5c-74.5,1.8-134.4,62.8-134.4,137.7c0,72.7,56.3,132.3,127.8,137.4
		c0.6,0.1,1.2,0.3,1.9,0.4h1124.1c4-0.3,6-0.7,6.5-1.4c0.8-1.1,5.3-1.5,19-1.7c13.1-0.3,17.9-0.7,18.3-1.7c0.2-0.7,2.1-1.2,4.6-1.2
		c8.3,0,16.6-1.3,16.6-2.5c0-0.8,3.1-1.4,9.7-1.8c5.5-0.3,9.9-1,10.1-1.6c0.2-0.6,1.4-1.1,2.7-1.1c3.4,0,12.5-2.2,12.5-3
		c0-0.4,2.2-1,5-1.3c2.7-0.3,6.5-1.3,8.2-2.1c1.8-0.8,5-1.7,7.1-2.1c2-0.3,3.7-1,3.7-1.4c0-0.5,1.9-1.1,4.3-1.5
		c2.3-0.4,5.1-1.3,6.2-2c1.1-0.7,3.6-1.7,5.5-2.1c1.8-0.4,4-1.4,4.8-2.1c0.7-0.8,2.9-1.4,4.8-1.4c2.2,0,3.7-0.6,4-1.5
		c0.4-0.8,1.3-1.5,2-1.5c0.8,0,1.7-0.7,2-1.5c0.4-0.9,1.9-1.5,3.5-1.5c1.7,0,3.2-0.6,3.5-1.5c0.4-0.8,1.7-1.5,3-1.5
		c2.3,0,6.3-1.7,7.4-3.1c0.3-0.4,2-1,3.8-1.4c1.8-0.3,3.2-1.3,3.2-2.1s0.9-1.4,2-1.4c1.1,0,3.7-0.9,5.7-2c2.1-1.1,4.4-2,5.1-2
		s1.5-0.7,1.8-1.5c0.4-0.9,1.9-1.5,3.5-1.5c1.7,0,3.2-0.6,3.5-1.5c0.3-0.8,2.1-1.7,4-2.1c1.9-0.3,3.4-1.2,3.4-1.9
		c0-0.8,1.4-1.6,3.1-2c1.7-0.4,4-1.6,5-2.6s2.8-1.9,3.8-1.9s2.1-0.7,2.5-1.5c0.3-0.8,1.2-1.5,2-1.5c0.7,0,1.6-0.6,1.9-1.4
		c0.3-0.8,1.9-1.7,3.5-2.1c1.7-0.3,3.3-1.3,3.6-2.1s1.2-1.4,2.1-1.4c0.8,0,1.5-0.5,1.5-1c0-0.6,1.2-1.6,2.8-2.3
		c1.5-0.6,3.1-1.7,3.5-2.4c0.4-0.7,1.4-1.3,2-1.3c0.7,0,2-0.8,2.9-1.8c1.8-1.9,2.5-2.4,8.3-6.7c2.2-1.7,4.2-3.3,4.3-3.8
		c0.2-0.4,1-0.7,1.8-0.7c0.7,0,1.9-0.9,2.6-2c0.7-1.1,1.8-2,2.5-2c0.7,0,1.3-0.4,1.3-1c0-0.5,1.6-1.6,3.5-2.4
		c1.9-0.8,3.5-1.9,3.5-2.4s0.9-1.2,2-1.5c1.1-0.3,2-1.2,2-2.1c0-0.9,0.6-1.6,1.3-1.6s2.4-1.3,3.7-2.8c1.4-1.5,3.3-3.1,4.3-3.5
		c0.9-0.3,1.7-1.3,1.7-2.2c0-0.8,0.4-1.5,0.9-1.5c1.4,0,6.1-4.5,6.1-5.8c0-0.6,1.4-1.3,3-1.7c1.7-0.4,3-1.3,3-2c0-0.8,0.9-1.7,2-2
		c1.1-0.3,2-1.3,2-2.1s0.6-1.4,1.4-1.4s1.8-0.9,2.1-2c0.3-1.1,1.3-2,2.1-2c0.8,0,1.4-0.7,1.4-1.5c0-0.8,0.9-1.9,2-2.5
		c1.1-0.6,2-1.5,2-2s3.4-4.3,7.5-8.3c4.1-4.1,7.5-7.8,7.5-8.1c0-0.4,1.4-2,3-3.6c1.7-1.6,3-3.3,3-3.7s1.2-1.9,2.5-3.2
		c1.4-1.3,2.5-2.7,2.5-3.2s1.4-2.3,3-3.9c1.7-1.6,3-3.4,3-3.9c0-0.6,0.6-1.4,1.4-1.8c0.7-0.4,1.9-1.9,2.6-3.3c0.7-1.3,2.6-3.6,4.2-5
		c1.5-1.3,2.8-3,2.8-3.8c0-0.7,0.6-1.5,1.4-1.8s1.8-1.9,2.1-3.5c0.4-1.6,1.3-2.9,2.1-2.9c0.8,0,1.4-0.4,1.4-0.9c0-0.4,1.1-2,2.5-3.5
		c2-2.2,3.2-2.6,8.6-2.6c2.4,0.6,4.9,1.2,7.3,1.8c1,0.9,3.9,1.4,9.3,1.8c8.6,1.4,17.4,2.1,26.3,2.1c92,0,166.5-74.6,166.5-166.5
		C1860,1342,1827.1,1288.6,1778,1259.6z M1686.4,1480.1c0-1.1,0.7-2,1.5-2c1,0,1.5-1,1.5-3c0-1.8,0.6-3.3,1.5-3.6
		c0.8-0.3,1.7-2.6,2.1-5.2c0.3-2.6,1.2-5.4,1.9-6.2c0.7-0.8,1.6-3.3,2-5.5c0.4-2.2,1.1-4.3,1.6-4.6s1.4-3.4,2-7
		c0.6-3.5,1.5-6.6,2.1-7c0.5-0.4,1.3-2.8,1.6-5.5c0.2-2.7,0.9-5.2,1.4-5.5s1.5-4.2,2-8.5c0.6-4.3,1.5-8.2,2-8.5s1.4-3.9,1.9-8
		c0.6-4.1,1.7-9.7,2.5-12.5c0.8-2.8,1.4-9.3,1.4-14.7c0-5.9,0.4-9.7,1.1-9.9c1.5-0.5,2.8-12.3,2.9-25.5v-6.2
		c29.4,11,50.3,39.3,50.3,72.5c0,42.7-34.6,77.3-77.3,77.3c-2.1,0-4.1-0.1-6.1-0.2C1686.4,1480.5,1686.4,1480.3,1686.4,1480.1z
		 M622.4,472.9c0.6-0.2,1.3-3.5,1.7-7.3c0.3-4,1.1-7.3,1.9-7.8c0.7-0.4,1.5-3.9,1.9-8.2c0.4-4.1,1.1-7.5,1.5-7.5c1,0,3-5.6,3-8.5
		c0-1.3,0.7-3.6,1.5-5.1c0.8-1.6,1.5-4.9,1.5-7.3c0-2.8,0.6-4.8,1.5-5.5c0.9-0.6,1.8-2.9,2.1-5.1c0.3-2.2,1.2-5.4,2-7.2
		c0.8-1.7,1.4-4.9,1.4-7.2s0.4-4.1,0.9-4.1c1.1,0,3.1-5.5,3.1-8.5c0-1.3,0.7-2.5,1.5-2.9c1.1-0.4,1.5-2,1.5-5.6c0-3.6,0.4-5,1.4-5
		c1.6,0,2.6-3,2.6-7.8c0-2.2,0.5-3.2,1.5-3.2c0.8,0,1.5-0.7,1.5-1.5c0-0.9,0.7-1.8,1.5-2.1c0.9-0.4,1.5-1.9,1.5-3.5
		c0-1.7,0.6-3.2,1.5-3.5c0.8-0.3,1.7-2.5,2.1-5c0.3-2.4,1.2-4.8,2-5.4c0.7-0.7,1.6-3.1,2-5.5c0.3-2.4,1.2-4.6,2-4.9
		c0.8-0.3,1.4-1.9,1.4-3.5c0-1.7,0.7-3.4,1.6-3.9c1-0.5,1.8-2.8,2.1-5.5c0.4-3,1.1-4.7,1.9-4.7c0.7,0,1.6-1.6,2-3.5
		c0.3-1.9,1-3.5,1.4-3.5c0.5,0,1.2-1.4,1.5-3.2c0.4-1.7,1.6-4.5,2.6-6.2s1.9-4.1,1.9-5.4c0-1.2,0.4-2.2,1-2.2c0.5,0,1.5-1.8,2.1-4
		c0.7-2.2,1.6-4,2-4c0.4,0,1-1.8,1.4-4.1c0.4-2.3,1.6-5,2.6-6s1.9-3,1.9-4.3s0.7-2.6,1.5-3c0.9-0.3,1.5-1.8,1.5-3.5c0-2,0.6-3,2-3.4
		c1.5-0.4,2-1.4,2-3.6c0-1.7,0.4-3.1,0.9-3.1c1.1,0,6.1-8.7,6.1-10.6c0-0.8,0.5-1.4,1-1.4c0.6,0,1-0.6,1-1.4s0.9-1.8,2-2.1
		c1.1-0.3,2-1.5,2-2.6c0-1,0.9-2.7,2-3.6c1.1-1,2-2.8,2-4c0-1.2,0.9-2.7,2-3.3c1.1-0.6,2-2,2-3c0-1.1,0.8-2.9,1.8-3.9
		c3.4-3.8,4.1-5,4.8-7.5c0.3-1.4,1.2-2.6,2-2.6c0.8,0,1.4-0.9,1.4-2c0-1.1,0.6-2.3,1.4-2.6c0.8-0.3,1.8-1.9,2.1-3.5
		c0.4-1.6,1.3-2.9,2.1-2.9c0.8,0,1.4-0.9,1.4-2c0-1.1,1.1-3,2.5-4.2c1.4-1.2,2.5-2.7,2.5-3.4c0-0.6,0.7-1.4,1.5-1.8
		c0.8-0.3,1.5-1.2,1.5-2.1c0-0.8,0.4-1.5,0.9-1.5s1.5-1.5,2.2-3.3c0.7-1.7,1.9-3.8,2.5-4.4c0.7-0.7,2.2-2.9,3.5-5
		c1.3-2.1,2.9-4.4,3.5-5.1c0.7-0.6,1.5-2.1,1.9-3.1c0.3-1.1,1.2-2.2,2-2.5s1.5-1.2,1.5-2s1.3-1.7,3-2.1c1.7-0.4,3-1.1,3-1.7
		c0-1,2.8-4.4,6.3-7.6c0.9-0.9,1.7-2.2,1.7-2.9c0-0.7,0.7-1.3,1.5-1.3s1.5-0.5,1.5-1.1c0-1.5,28.7-29.2,31.4-30.2
		c0.9-0.4,1.6-1.3,1.6-2.1s1.3-1.7,3-2.1c1.7-0.4,3-1.2,3-2c0-0.7,1.6-1.6,3.5-1.9c1.9-0.4,3.5-1.1,3.5-1.6c0-0.4,1.8-1.1,4-1.5
		c2.5-0.4,4-1.2,4-2.1c0-2,8.9-1.9,9.6,0.1c0.4,0.8,1.2,1.5,2,1.5c0.8,0,1.4,0.7,1.4,1.5c0,0.9,0.6,1.8,1.4,2.1s1.8,1.9,2.1,3.5
		c0.4,1.6,1.1,2.9,1.5,2.9c0.5,0,1.4,1.8,2,4c0.6,2.2,1.5,4,1.9,4c0.5,0,1.2,2.8,1.5,6.2c0.4,3.5,1.2,6.6,1.8,6.9
		c0.5,0.3,1.4,6,2,12.5c0.6,6.9,1.5,12.2,2.1,12.6c1.6,1,1.6,62.6,0,63.6c-0.5,0.4-1.3,3.1-1.5,6.1c-0.3,3.4-1.2,5.9-2.2,6.6
		c-0.9,0.7-1.6,1.7-1.6,2.4c0,0.6-0.6,1.1-1.3,1.1c-0.8,0-2.4,0.9-3.7,2c-1.3,1.1-2.9,2-3.6,2s-1.8,0.9-2.4,2c-0.6,1.1-1.7,2-2.5,2
		s-1.5,0.7-1.5,1.5s-0.7,1.5-1.5,1.5c-0.9,0-1.8,0.7-2.1,1.5s-1.4,1.7-2.5,2c-1,0.4-3.4,2.1-5.3,3.8c-9.1,8.4-10.7,9.7-11.6,9.7
		c-0.5,0-1.4,0.9-2,2c-0.6,1.1-2.2,2.3-3.5,2.6c-1.4,0.3-2.5,1.2-2.5,2s-0.7,1.4-1.6,1.4s-1.8,0.9-2.1,2c-0.3,1.1-1.1,2-1.8,2
		s-1.5,0.7-1.9,1.5c-0.3,0.8-1.2,1.5-2.1,1.5c-0.8,0-1.5,0.7-1.5,1.5s-0.7,1.5-1.5,1.5c-0.9,0-1.8,0.6-2.1,1.4
		c-0.3,0.8-1.4,1.6-2.5,1.9c-1,0.3-1.9,1.2-1.9,2c0,0.8-0.9,1.7-2,2c-1.1,0.3-2,1.2-2,2.1c0,0.9-0.7,1.6-1.5,1.6s-1.5,0.7-1.5,1.5
		s-0.5,1.5-1.1,1.5c-0.7,0-4.4,3.3-8.4,7.2c-4,4-8.2,8-9.4,8.8c-1.2,0.8-2.3,2.2-2.6,3.1s-1.9,2.2-3.5,2.9c-1.7,0.7-3,1.9-3,2.6
		c0,0.8-0.6,1.4-1.4,1.4c-0.8,0-1.6,0.7-2,1.5c-0.3,0.8-1.2,1.5-2.1,1.5c-0.8,0-1.5,0.5-1.5,1.1c0,1.2-1.8,3.3-8.2,9.8
		c-2.1,2.1-3.8,4.3-3.8,4.9c0,0.7-0.5,1.2-1.1,1.2c-1.5,0-5.9,4.2-5.9,5.7c0,0.7-0.4,1.3-0.9,1.3c-1.4,0-6.1,4.5-6.1,5.8
		c0,0.6-0.9,1.4-2,1.7c-1.1,0.3-2,1.3-2,2.1s-0.7,1.4-1.5,1.4s-1.5,0.5-1.5,1c0,0.6-1.6,2.5-3.5,4.3c-1.9,1.7-3.5,3.8-3.5,4.4
		c0,0.7-0.7,1.3-1.5,1.3s-1.5,0.7-1.5,1.5c0,0.9-0.6,1.8-1.4,2.1c-0.8,0.3-2,1.8-2.6,3.4c-0.7,1.6-2.1,3.2-3.1,3.5
		c-1,0.4-1.9,1-1.9,1.4c0,0.4-1.3,2.1-3,3.7c-1.6,1.6-3,3.5-3,4.1c0,0.7-0.7,1.3-1.5,1.3s-1.5,0.5-1.5,1.1c0,1.5-4.2,5.9-5.6,5.9
		c-0.7,0-1.5,1.2-1.8,2.6c-0.4,1.4-2.2,4-4.1,5.7c-1.9,1.8-3.5,3.8-3.5,4.4c0,0.7-0.7,1.3-1.5,1.3s-1.5,0.9-1.5,2c0,1.1-0.7,2-1.5,2
		s-1.5,0.6-1.5,1.2c0,1.2-3,5.2-6.5,8.9c-0.8,0.9-1.5,2-1.5,2.5s-0.9,1.7-2,2.7c-1.1,0.9-2,2.6-2,3.7c0,1.1-0.7,2-1.5,2
		s-1.5,0.7-1.5,1.5c0,0.9-0.6,1.8-1.4,2.1c-0.8,0.3-1.7,1.6-2,2.8c-0.3,1.2-1.5,3.3-2.6,4.6c-1.1,1.3-2,3.1-2,4.1c0,1.1-1,2-2.9,2.4
		c-2.2,0.5-3,1.3-3.5,3.6c-0.3,1.7-1.2,2.9-2.1,2.9c-0.8,0-1.5,0.9-1.5,2c0,1.1-0.6,2-1.4,2c-0.8,0-1.7,1.1-2,2.5
		c-0.4,1.4-1.4,3.4-2.4,4.5c-2.9,3.1-3.7,4.3-6.2,8.7c-1.7,3.1-3,4.3-4.7,4.3c-1.6,0-2.3-0.6-2.3-1.9
		C621.4,474.1,621.9,473.1,622.4,472.9z M1589.5,1485.1c-0.5,0-1.2,1.6-1.5,3.5c-0.4,1.9-1.1,3.5-1.6,3.5c-0.4,0-1.1,1.4-1.5,3.1
		c-0.4,1.7-1.3,3.3-2,3.5c-0.7,0.3-1.6,2-1.9,3.9c-0.4,1.8-1.3,3.5-2,3.8c-0.7,0.3-1.6,1.7-2,3.1c-0.4,1.5-1.5,3.5-2.6,4.6
		c-1.1,1.1-2,2.6-2,3.4s-0.7,1.6-1.5,2c-0.8,0.3-1.5,1.2-1.5,2c0,0.7-0.6,1.6-1.4,1.9c-0.8,0.3-1.7,1.9-2.1,3.5
		c-0.4,2-1.4,3.2-2.9,3.6c-1.3,0.3-2.6,1.5-2.9,2.6c-0.3,1.1-1.2,2-2,2c-0.8,0-1.8,1.2-2.1,2.6c-0.4,1.4-2.2,4.1-4.1,5.9
		c-1.9,1.8-3.5,3.7-3.5,4.4c0,0.6-0.7,1.1-1.5,1.1s-1.5,0.7-1.5,1.5c0,0.9-0.6,1.8-1.4,2.1c-0.8,0.3-1.7,1.6-2,3
		c-0.4,1.3-1.1,2.4-1.6,2.4c-0.6,0-1.5,1.1-2,2.5c-0.5,1.4-1.6,2.5-2.5,2.5c-0.8,0-1.5,0.7-1.5,1.5c0,0.8-0.9,2.3-2,3.2
		c-1.1,1-2,2.3-2,3s-0.7,1.3-1.6,1.3s-1.8,0.9-2.1,2c-0.3,1.1-1,2-1.7,2c-1.4,0-5.6,4.4-5.6,5.9c0,0.6-0.4,1.1-0.9,1.1
		c-1.4,0-6.1,4.5-6.1,5.9c0,0.6-0.5,1.1-1.1,1.1c-1.1,0-4.4,2.7-7.7,6.3c-0.9,0.9-2.2,1.7-2.9,1.7s-2.9,1.5-4.8,3.4
		c-2,1.9-4.4,3.7-5.4,4.1c-1.1,0.3-2.2,1.2-2.5,2c-0.3,0.8-1.2,1.5-2.1,1.5c-0.8,0-1.5,0.7-1.5,1.5c0,0.8-0.6,1.5-1.3,1.5
		c-0.7,0-2,0.8-2.9,1.8c-2.1,2.1-3.6,3.4-7,5.6c-1.5,1-3,2.6-3.3,3.6s-1.9,2.1-3.5,2.5c-1.5,0.3-3.1,1.3-3.4,2.1
		c-0.3,0.8-1.2,1.4-2.1,1.4c-0.8,0-1.5,0.7-1.5,1.5c0,0.8-0.9,1.5-2,1.5c-1.1,0-2.9,0.9-4,2c-1.1,1.1-2.7,2-3.5,2s-2.2,0.8-3.2,1.9
		c-1,1-3.3,2.2-5,2.6c-1.8,0.3-3.3,1.1-3.3,1.6s-0.6,0.9-1.3,0.9c-0.8,0-2.4,0.9-3.7,2c-1.3,1.1-3.1,2-4.2,2c-1,0-1.8,0.6-1.8,1.4
		s-1.5,1.7-3.5,2c-1.9,0.4-3.5,1.1-3.5,1.5c0,0.5-1.6,1.2-3.6,1.5c-1.9,0.4-3.8,1.4-4.1,2.2c-0.3,0.7-1,1.4-1.7,1.4
		c-0.6,0-2.7,0.8-4.6,1.8c-1.9,1.1-4.7,2.2-6.2,2.6c-1.6,0.3-2.8,1.1-2.8,1.6c0,0.6-1.2,1-2.8,1c-1.5,0-4.4,0.9-6.5,2
		c-2,1.1-4.3,2-4.9,2c-0.7,0.1-3.1,0.9-5.3,2c-2.2,1.1-4.7,2-5.5,2s-3.3,0.9-5.5,2c-2.2,1.1-5.4,1.9-7,2c-2.2,0-3.3,0.6-4,2.2
		c-0.8,1.9-2.1,2.4-6.9,2.9c-3.7,0.4-6.4,1.3-7.1,2.3c-0.9,1.1-2.8,1.6-6.8,1.6c-5.5,0-10.7,1.5-10.7,3.2c0,0.4-4,0.8-8.9,0.8
		c-6.7,0-9,0.3-9.4,1.4c-0.4,1.1-3.3,1.5-12.2,1.8c-9.7,0.2-11.9,0.6-12.9,2c-1.3,1.7-13.6,1.8-235.9,1.8c-233.7,0-234.6,0-235.2-2
		c-0.5-1.5-1.5-2-4-2c-2,0-3.5-0.6-3.9-1.5c-0.3-0.9-1.8-1.5-3.6-1.5c-2,0-3-0.5-3-1.5c0-0.8-0.7-1.5-1.5-1.5
		c-0.7,0-1.8-0.6-2.2-1.3c-0.4-0.8-2.3-2.4-4-3.7c-1.8-1.3-3.3-3.2-3.3-4.2s-0.7-1.8-1.5-1.8s-1.5-0.6-1.5-1.3s-0.9-2-2-3
		c-1.1-0.9-2-2.5-2-3.4c0-1-0.9-2.9-2-4.3c-1.1-1.4-2-3.7-2-5.1c0-1.5-0.7-2.9-1.5-3.3c-0.8-0.3-1.5-1.2-1.5-2.1
		c0-0.8-0.7-1.5-1.5-1.5c-1.2,0-1.5-1.7-1.5-9.3c0-8.1,0.2-9.4,2-10.5c1.1-0.7,2-1.9,2-2.7c0-0.8,0.5-1.5,1-1.5c0.6,0,1-1.1,1-2.5
		c0-1.4,0.9-3.3,2-4.2c1.1-1,2-2.8,2-4.1c0-1.2,0.6-2.5,1.4-2.8s1.6-1.4,1.9-2.5c0.3-1,1.2-1.9,2.1-1.9s1.6-0.5,1.6-1.1
		c0-1.5,4.2-5.9,5.8-5.9c0.6,0,1.2-0.7,1.2-1.5c0-0.8,0.7-1.5,1.5-1.5c0.9,0,1.8-0.7,2.1-1.5c0.3-0.8,2.1-1.7,3.9-2.1
		c1.9-0.3,3.6-1.2,3.8-1.9c0.3-0.6,2.5-1.5,4.8-1.8c2.4-0.3,4.5-1.1,4.7-1.6c0.3-0.8,28.9-1.1,94.5-1.1c54,0,95.9-0.4,98.2-1
		c2.2-0.5,4.1-1.4,4.3-1.9c0.2-0.6,1.1-1.1,1.9-1.1c2.1,0,12.3-5,12.3-6c0-0.4,1.1-1.8,2.5-3.1c1.3-1.3,2.5-2.7,2.5-3.2
		c0-0.4,0.9-1.6,2-2.7c1.1-1.1,2-2.7,2-3.6c0-0.9,0.8-2.3,1.8-3c1.6-1.1,1.7-4.5,2-42.5c0.2-28.7,0.6-41.7,1.4-42.6
		c0.7-0.8,1.3-7.5,1.6-16.3c0.3-8.3,0.8-15,1.2-15c1,0,3-7.2,3-10.8c0-1.7,0.4-3.2,1-3.4c0.5-0.1,1.3-2.6,1.6-5.3
		c0.4-2.8,1.3-5.3,2-5.8c0.7-0.4,1.6-2.8,2-5.2c0.3-2.5,1-4.5,1.4-4.5c1.1,0,3-4.8,3-7.5c0-1.8,0.7-2.6,2.5-3.1
		c1.8-0.4,2.5-1.3,2.5-3c0-1.3,0.9-3.1,1.9-4.1c1.1-1,2.2-3,2.6-4.5c0.4-1.5,1.3-2.9,2.1-3.2c0.8-0.3,1.4-1.2,1.4-2.1
		c0-0.8,0.7-1.5,1.5-1.5s1.5-0.9,1.5-2c0-1,1.8-3.7,4-5.9c2.2-2.2,4-4.4,4-4.9s0.7-1.2,1.5-1.6c0.8-0.3,1.5-1.2,1.5-2
		c0-0.8,1.6-3.1,3.5-5c1.9-2,3.5-3.9,3.5-4.2s1.7-2.3,3.8-4.4c2-2.2,4.2-4.5,4.8-5.2c2.7-3,7.3-6.8,8.3-6.8c0.6,0,1.1-0.7,1.1-1.5
		c0-0.8,0.7-1.5,1.5-1.5c0.9,0,1.8-0.6,2.1-1.4c0.3-0.8,1.9-1.8,3.6-2.1c1.6-0.4,3.2-1.3,3.5-2c0.2-0.8,1.8-1.7,3.4-2
		c1.6-0.4,2.9-1.1,2.9-1.6s1.1-1.4,2.5-1.9c1.4-0.5,2.5-1.4,2.5-1.9s1.2-1.2,2.6-1.5c1.5-0.4,3.3-1.4,4.1-2.1
		c0.8-0.8,2.5-1.5,3.9-1.5c1.4,0,2.7-0.7,3-1.5c0.3-0.8,2.1-1.7,4-2.1c1.9-0.3,3.4-1,3.4-1.5c0-0.4,1.6-1.1,3.6-1.5
		c1.9-0.4,3.8-1.2,4-1.9c0.3-0.7,2.7-1.5,5.4-1.9c2.7-0.4,5-1.1,5.2-1.7c0.2-0.5,3.2-1.4,6.7-1.9s6.7-1.3,7-1.8
		c0.3-0.6,5.1-1.3,10.6-1.7c5.5-0.4,10.3-1.3,10.7-1.9c0.5-0.8,13.3-1.2,42.7-1.6c37.3-0.4,42.2-0.7,43.3-2.1
		c0.7-0.9,2.5-1.9,3.9-2.3c1.4-0.3,3.8-1.7,5.3-3.1c1.5-1.4,2.9-2.5,3.2-2.5c1,0,10.4-9.8,10.4-10.8c0-0.7,0.4-1.2,0.8-1.2
		c1.1,0,3.2-6.9,3.2-10.3c0-1.4,0.5-2.9,1-3.2c1.2-0.8,1.3-14.2,0.1-14.9c-0.4-0.3-1.1-2.7-1.4-5.3c-0.3-2.6-1.2-5.2-2-5.8
		c-0.9-0.6-1.9-2.3-2.2-3.8c-0.4-1.5-1.3-2.7-2.1-2.7s-1.4-0.5-1.4-1.1c0-1.3-5.5-6.9-6.8-6.9c-0.5,0-1.2-0.7-1.6-1.5
		c-0.3-0.8-1.2-1.5-1.9-1.5c-0.8,0-2.4-0.9-3.7-2c-1.4-1.2-3.7-2-6-2c-2.1,0-5.1-0.7-6.6-1.5c-2.4-1.2-8.7-1.5-36.6-1.5
		c-22.9,0-34.6,0.4-36.5,1.1c-1.5,0.7-9,1.5-16.6,1.9c-8.9,0.4-14.1,1-14.6,1.8c-0.4,0.7-4.3,1.5-8.7,1.8c-4.6,0.4-8.2,1.2-8.6,2
		c-0.5,0.6-3.5,1.5-6.9,1.9c-4.3,0.5-6.8,1.4-8.6,3.1c-1.4,1.3-3.8,2.4-5.2,2.4c-3,0-8.1,2.1-8.1,3.2c0,0.5-1.6,0.8-3.6,0.8
		c-2.7,0-3.7,0.5-4.1,2c-0.4,1.6-1.4,2-4.9,2c-3,0-4.6,0.5-5,1.5c-0.4,0.8-1.9,1.5-3.5,1.5s-3.4,0.8-4.1,1.8s-3.1,2.2-5.2,2.5
		c-2.2,0.4-4.4,1.3-4.8,2.2c-0.5,0.8-1.7,1.5-2.8,1.5c-1,0-2.5,0.7-3.4,1.5c-0.8,0.8-2.1,1.5-2.8,1.5s-2.1,0.9-3.1,2
		c-0.9,1.1-2.5,2-3.5,2s-2.5,0.8-3.4,1.7c-2.8,3.1-6.1,5.3-8,5.3c-1,0-1.8,0.7-1.8,1.5c0,0.8-0.7,1.5-1.5,1.5s-1.9,0.9-2.5,2
		c-0.6,1.1-2.1,2.2-3.5,2.6c-1.3,0.3-2.6,1.2-2.9,2c-0.3,0.8-1.2,1.4-2.1,1.4c-0.8,0-1.5,0.7-1.5,1.5c0,0.8-0.4,1.5-0.9,1.5
		s-2.6,1.6-4.5,3.5c-2,1.9-4,3.5-4.5,3.5s-1.1,0.9-1.4,2c-0.3,1.1-1.2,2-2.1,2c-0.9,0-1.6,0.7-1.6,1.5c0,0.8-0.5,1.5-1.1,1.5
		c-1.4,0-19.3,18-20.2,20.3c-0.4,1-1.3,1.7-2.1,1.7c-0.7,0-1.7,1.2-2,2.6c-0.4,1.4-2,3.8-3.6,5.4c-1.7,1.6-3,3.4-3,3.9
		c0,0.6-0.6,1.4-1.3,1.8c-0.7,0.4-1.9,2.3-2.6,4c-0.8,1.8-1.7,3.3-2.1,3.3c-0.5,0-1.1,1.3-1.5,2.9c-0.3,1.6-1.2,3.2-2,3.4
		c-0.7,0.3-1.6,1.9-2,3.5c-0.3,1.6-1.7,3.5-3,4.2c-1.3,0.7-2.9,2.6-3.4,4.1c-0.5,1.6-1.4,2.9-2,2.9c-0.5,0-1.2,1.4-1.6,3.1
		c-0.4,1.7-1.3,3.3-2.1,3.6s-1.4,1.3-1.4,2.3c0,0.9-0.9,2.7-2,4c-1.1,1.3-2,3.6-2,5.2c0,1.6-0.6,3.1-1.5,3.4c-0.8,0.3-1.7,2.1-2.1,4
		c-0.3,1.9-1,3.4-1.4,3.4c-0.5,0-1.4,2.6-2,5.7c-0.7,3.1-1.8,6.3-2.6,7.1s-1.4,3.4-1.4,6.3c0,3.5-0.4,4.9-1.4,4.9
		c-1.7,0-2.6,3.1-2.6,8.9c0,2.7-0.6,4.8-1.5,5.5c-1,0.7-1.7,3.8-2.1,9.1c-0.4,4.4-1.2,8.6-1.8,9.4c-0.7,0.9-1.2,11.6-1.4,32.3
		l-0.3,30.8h-72.4c-53.8,0-72.4,0.3-72.7,1.2c-0.2,0.6-3.8,1.3-8.9,1.6c-8.5,0.5-12.9,2.1-12.9,4.8c0,1-1.5,1.4-5.5,1.4
		c-3.5,0-5.7,0.5-6.2,1.3c-0.4,0.8-2.6,1.7-4.8,2c-2.2,0.4-4.5,1.3-5.1,2.2c-0.6,0.8-2,1.5-3.1,1.5c-2.3,0-7.3,2.2-7.3,3.2
		c0,0.5-0.8,0.8-1.8,0.8s-2.5,0.9-3.5,2c-0.9,1.1-2.6,2-3.7,2c-1.1,0-2,0.6-2,1.3c0,1.2-1.2,2-7.7,5.2c-1.8,0.8-3.3,2.2-3.3,3
		c0,0.8-0.5,1.5-1.1,1.5c-1.4,0-12.9,11.7-12.9,13c0,0.6-0.7,1-1.5,1s-1.5,0.6-1.5,1.3s-0.8,2.2-1.9,3.3c-1,1.1-2.2,3-2.5,4.2
		c-0.4,1.2-1.1,2.2-1.5,2.2c-0.5,0-1.4,1.5-2.2,3.2c-0.7,1.8-2.5,4.5-4.1,5.9c-1.5,1.4-2.8,3.1-2.8,3.7s-0.6,1.7-1.3,2.4
		c-1.7,1.7-5.4,9.4-6.2,13c-0.4,1.6-1.1,2.8-1.5,2.8c-0.4,0-1.3,3-1.9,6.6c-0.7,3.7-1.9,7.3-2.7,8.1c-1,1.1-1.4,4-1.4,11.3
		c0,7-0.4,10-1.2,10.2c-1.7,0.6-1.8,19.6-0.1,20.6c0.7,0.4,1.2,5,1.5,12.5c0.2,8.4,0.7,12,1.6,12.6c0.8,0.4,1.6,2.8,1.9,5.2
		c0.3,2.4,1.1,4.9,1.8,5.4c0.7,0.6,1.6,2.9,2,5.3l0.7,4.2H419.8c-189.1,0-250-0.1-268.4-0.8v-0.3c-28.7-0.5-51.8-23.9-51.8-52.7
		c0-29.1,23.6-52.8,52.8-52.8c0.5,0,1,0,1.5,0c13.7-0.3,41.6-0.6,77.6-0.7c2.1,0,4.2,0,6.2,0h41.2c0-0.1-0.1-0.1-0.1-0.2
		c29.2-0.2,40.1-0.6,40.5-1.3c0.4-0.6,2.8-1.7,5.4-2.3c2.6-0.7,4.9-1.8,5.2-2.6c0.3-0.8,1.2-1.4,2.1-1.4c0.8,0,1.5-0.6,1.5-1.3
		s0.8-2,1.8-2.8c0.9-0.9,2.8-3,4.2-4.8c1.4-1.7,3.1-3.8,3.8-4.7c0.8-0.8,1.7-3.4,2-5.7s1.2-4.7,2.1-5.4c2.5-1.8,2.3-19.9-0.1-21.7
		c-1.1-0.8-1.8-2.6-1.8-4.5c0-1.8-0.6-3.4-1.4-3.7c-0.8-0.3-1.8-1.9-2.1-3.6c-0.4-1.6-1.3-3.2-2-3.5c-0.8-0.2-1.7-1.7-2-3.3
		c-0.3-1.6-1.3-3.1-2.1-3.4c-0.8-0.3-1.4-1.2-1.4-2c0-0.8-0.6-2.1-1.3-2.8s-2.6-3.9-4.1-7.1c-1.6-3.1-3.3-5.7-3.7-5.7
		c-0.4,0-1-1.4-1.4-3.1s-1.3-3.3-2.1-3.6c-0.7-0.3-1.6-2-2-3.9c-0.3-1.9-1.2-3.4-1.9-3.4s-1.6-1.2-2-2.7c-0.3-1.5-1.5-3.3-2.6-4.1
		c-1-0.7-2.4-3.4-3-5.8c-0.7-2.5-1.8-4.8-2.5-5.1c-0.8-0.3-1.4-1.8-1.4-3.4c0-1.7-0.6-3.2-1.5-3.5c-0.8-0.4-1.5-1.7-1.5-3
		c0-2.6-2-7.4-3-7.4c-0.4,0-1-2.2-1.4-5c-0.4-2.7-1.3-5.3-2-5.7c-0.7-0.4-1.6-2.8-1.9-5.2c-0.3-2.4-1-4.7-1.5-5
		c-0.5-0.3-1.2-2.6-1.5-5.1c-0.3-2.4-1.2-4.9-2-5.5c-0.9-0.6-1.6-3.5-1.9-7.5c-0.3-3.6-1-6.6-1.6-6.8c-0.7-0.2-1.2-1.9-1.2-3.7
		c0-4.8-2-13.5-3.1-13.5c-0.5,0-0.9-3-0.9-6.6c0-6.6-1.6-14.4-3-14.4c-0.4,0-0.9-8-1.2-17.7c-0.3-12.1-0.9-17.8-1.7-18.1
		c-1.7-0.6-1.6-44.9,0.2-45.4c0.9-0.4,1.3-5,1.5-17.3c0.3-14.1,0.6-17.1,2-18.1c1.2-0.9,1.7-3.5,2-10.5c0.3-6.3,0.9-9.7,1.7-10.2
		c0.8-0.4,1.7-3.7,2.1-7.5c0.3-3.7,1.1-7,1.7-7.4c0.6-0.3,1.3-3.5,1.5-6.9c0.3-3.5,1-6.9,1.7-7.6s1.6-3.2,2-5.5
		c0.4-2.4,1.2-4.6,1.7-4.9s1.2-3.4,1.5-6.8c0.4-4,1-6.1,1.9-6.1c0.7,0,1.5-1.8,1.9-4c0.4-2.2,1-4,1.3-4c1,0,3.2-5.1,3.2-7.3
		c0-1,0.7-2.5,1.5-3.3c0.8-0.9,1.5-2.6,1.5-4c0-1.3,0.4-2.4,1-2.4c0.5,0,1.5-1.8,2.1-4c0.7-2.2,1.6-4,2.1-4c0.4,0,0.8-0.7,0.8-1.5
		c0-0.9,0.7-1.8,1.5-2.1c0.8-0.4,1.5-1.7,1.5-3c0-1.2,0.8-2.9,1.9-3.6c1.3-0.9,2-3.2,2.5-8.1c0.4-3.7,1.2-6.7,1.7-6.7
		s0.9-1.6,0.9-3.5c0-1.9-0.4-3.5-0.9-3.5s-1.2-3.3-1.6-7.2c-0.5-5.2-1.3-7.7-2.6-8.9c-1.1-0.9-1.9-2.4-1.9-3.3
		c0-0.9-0.6-1.6-1.4-1.6c-0.7,0-2-1-2.9-2.3c-3.1-4.6-7.3-8.6-9.9-9.2c-1.5-0.4-2.9-1.3-3.2-2.1c-0.4-0.9-2.2-1.4-5.6-1.4
		c-3.6,0-5-0.4-5-1.4c0-1.5-4.2-2.6-10.1-2.6c-2.6,0-3.9-0.5-3.9-1.3s-2.2-1.9-5.5-2.6c-3-0.7-5.7-1.7-6-2.2
		c-0.4-0.5-1.7-0.9-3.1-0.9c-1.4,0-3.7-1.2-5.3-2.9c-1.5-1.6-4.2-3.2-5.9-3.6c-1.7-0.3-3.3-1.3-3.6-2.1c-0.3-0.8-1.2-1.4-2.1-1.4
		c-0.8,0-1.5-0.4-1.5-0.8c0-0.5-1.6-1.6-3.5-2.5c-1.9-0.9-3.5-2.1-3.5-2.6s-0.8-1.1-1.7-1.4c-2.8-0.9-7.4-4-10.3-6.8
		c-1.4-1.4-3.3-2.8-4.3-3.2c-0.9-0.3-1.7-1.3-1.7-2.2c0-0.8-0.7-1.5-1.5-1.5s-1.5-0.7-1.5-1.5c0-0.8-0.9-1.5-2-1.5s-2-0.4-2-1
		c0-1.2-4.8-6-6-6c-0.6,0-1-0.7-1-1.5c0-0.8-0.6-1.5-1.3-1.5c-1.4,0-7.7-5.4-7.7-6.7c0-0.8-3-4.7-6.4-8.5c-0.9-1-1.6-2.5-1.6-3.3
		c0-0.8-0.9-2.3-2-3.2c-1.1-1-2-2.6-2-3.6c0-0.9-0.7-2-1.5-2.3c-0.8-0.4-1.5-1.4-1.5-2.4c0-0.9-0.9-2.7-2-4c-1.1-1.3-2-2.9-2-3.7
		c0-0.7-0.7-1.6-1.5-1.9c-0.8-0.4-1.5-1.8-1.5-3.3c-0.1-1.4-0.9-4.4-2-6.6c-1.1-2.2-1.9-4.8-2-5.8c0-1-0.7-2-1.5-2.3
		c-1-0.4-1.5-2-1.5-4.5c0-3.9-1.7-8.9-3-8.9c-0.4,0-1-4.6-1.2-10.2c-0.2-6.7-0.8-10.3-1.6-10.6c-1.7-0.5-1.7-27.9,0-28.4
		c0.7-0.3,1.3-3.7,1.6-9.1c0.3-6,0.8-8.7,1.7-8.7c1.3,0,2.5-4.3,2.5-8.6c0-1.3,0.4-2.4,0.9-2.4s1.4-2.3,2.1-5
		c0.7-2.8,1.6-5.2,2.1-5.5s1.1-2.8,1.5-5.5c0.4-2.8,1-5,1.3-5c0.9,0,3.1-6.1,3.1-8.3c0-0.9,0.4-1.7,1-1.7c0.5,0,1.2-1.5,1.6-3.4
		c0.3-1.9,1.2-3.7,1.9-4c0.8-0.3,1.7-2.5,2-5c0.4-2.4,1.3-4.7,2.1-5c0.8-0.3,1.4-1.8,1.4-3.5c0-2,0.6-3,2-3.4c1.4-0.4,2-1.4,2-3.5
		c0-1.6,0.6-3.2,1.4-3.5c0.8-0.3,1.7-1.9,2.1-3.6c0.3-1.6,1.3-3.5,2.1-4.2c0.8-0.6,1.4-2,1.4-3s1.4-3.2,3-4.7c1.7-1.6,3-3.6,3-4.3
		c0-0.8,0.9-2.2,2-3.2c1.1-0.9,2-2.3,2-3.2c0-0.8,0.9-1.9,2-2.5c1.1-0.6,2-1.7,2-2.4c0-1.1,0.8-2.4,4.9-7.2c0.6-0.7,1.6-2.7,2.4-4.5
		c0.8-1.9,2.6-4.5,4-5.9c1.5-1.4,2.7-3.1,2.7-3.8c0-0.6,0.7-1.2,1.5-1.2s1.7-1.4,2.1-3.5c0.3-2,1.2-3.5,2-3.5c0.8,0,1.4-0.7,1.4-1.5
		c0-0.9,0.6-1.8,1.4-2.1c0.8-0.3,2-1.9,2.6-3.5c0.7-1.6,1.6-2.9,2.1-2.9s0.9-0.7,0.9-1.5c0-0.9,0.7-1.8,1.5-2.1
		c0.8-0.4,1.5-1.2,1.5-1.9s1.1-2.3,2.5-3.6c1.3-1.3,2.5-3,2.5-3.7c0-0.6,0.7-1.2,1.5-1.2s1.5-0.7,1.5-1.5s0.9-1.9,2-2.5
		c1.1-0.6,2-1.7,2-2.5s0.4-1.5,1-1.5c0.5,0,6.9-6,14.3-13.3c7.4-7.4,14.2-13.7,15.1-14c0.9-0.4,1.6-1.3,1.6-2.2
		c0-0.8,0.6-1.5,1.3-1.5s2-0.8,2.8-1.8c0.9-0.9,2.7-2.7,4-3.8c1.3-1.2,3.3-3.3,4.4-4.7c1.1-1.5,2.4-2.6,2.8-2.7
		c1.3,0,6.7-5.7,6.7-6.9c0-0.6,0.9-1.1,1.9-1.1c1.1,0,2.3-0.4,2.6-1c0.3-0.5,2.3-1.7,4.3-2.7c2-0.9,4.1-2.3,4.5-3
		c0.4-0.7,1.5-1.3,2.2-1.3c0.8,0,1.5-0.5,1.5-1c0-0.6,1.1-1.5,2.5-2s2.5-1.4,2.5-2c0-0.5,1.1-1.2,2.5-1.6c1.4-0.3,2.5-1,2.5-1.5
		s1.1-1.4,2.5-1.9s2.5-1.4,2.5-1.9s1.4-1.2,3-1.6c1.7-0.4,3-1.1,3-1.6s1.1-1.4,2.5-1.9s2.5-1.4,2.5-1.9s1.3-1.2,2.9-1.6
		c1.6-0.3,3.2-1.2,3.4-2c0.3-0.7,1.9-1.6,3.5-2c1.7-0.3,3.3-1.3,3.6-2.1c0.3-0.8,1.2-1.4,2.1-1.4c0.8,0,1.5-0.4,1.5-0.9
		s1.3-1.2,2.9-1.6c1.6-0.3,3.9-1.5,5.2-2.6c1.2-1,2.7-1.9,3.3-1.9c0.6,0,2.6-1.3,4.3-2.9c1.8-1.6,4.6-3.2,6.3-3.6
		c1.6-0.4,3-1.1,3-1.5c0-0.5,1.5-1.2,3.4-1.6c1.9-0.3,3.7-1.2,4-2c0.3-0.8,1.9-1.4,3.5-1.4c2,0,3.2-0.6,3.6-1.9s1.8-2,5.2-2.4
		c2.5-0.2,4.8-0.9,5.2-1.5c0.3-0.5,2.1-1.3,3.9-1.7c1.8-0.4,3.6-1.3,3.9-2.1c0.3-0.9,2.1-1.4,4.9-1.4c2.9,0,4.7-0.5,5-1.4
		c0.3-0.8,2.7-1.6,5.5-2c3-0.4,5.2-1.3,5.6-2.1c0.3-0.9,1.8-1.5,3.5-1.5s4.4-0.6,6.1-1.4c1.8-0.7,5.8-1.9,9-2.6
		c3.1-0.6,5.7-1.5,5.7-1.9c0-0.5,2.3-1.1,5.1-1.3c2.8-0.3,5.4-1,5.8-1.5c0.3-0.5,4.4-1.5,9-2.1c4.7-0.7,8.7-1.6,9-2.1
		c0.3-0.4,4.2-1.1,8.6-1.5c4.4-0.4,8.7-1.3,9.5-2.1c0.9-0.8,5.1-1.4,10.8-1.7c5.9-0.3,9.6-0.9,10.1-1.7s6-1.4,18.2-1.8
		c11.7-0.3,18.4-1,20.3-1.9c4.5-2.2,48.1-2,52.4,0.2c4.1,2,33.3,1.7,34-0.4c0.2-0.6,2.1-1.5,4.3-1.8c2.3-0.4,3.9-1.2,3.9-2
		c0-0.8,0.7-1.4,1.5-1.4s1.5-0.5,1.5-1c0-0.6,0.8-1.4,1.8-1.7c2.3-0.8,10.2-8.7,10.2-10.2c0-0.6,0.3-1.1,0.8-1.1
		c0.4,0,1.4-1.5,2.1-3.3c0.8-1.7,2.1-3.8,2.8-4.5s1.3-2.2,1.3-3.3c0-1,0.5-1.9,1-1.9c0.6,0,1.5-1.1,2-2.5c0.5-1.4,1.4-2.5,1.9-2.5
		c0.6,0,1.3-1.6,1.7-3.5c0.3-2,1.2-3.5,2-3.5c0.8,0,1.7-1.4,2.1-3c0.3-1.7,1-3,1.4-3c0.5,0,1.4-1.1,1.9-2.5c0.5-1.4,1.4-2.5,1.9-2.5
		s1.2-1.4,1.6-3.1c0.8-3.5,3.3-6.9,5.2-6.9c0.7,0,1.3-0.7,1.3-1.6c0-0.9,0.9-1.8,2-2.1c1.1-0.3,2-1.4,2-2.4c0-1.1,0.6-1.9,1.4-1.9
		s1.7-1.4,2.1-3c0.4-1.7,1.3-3,2.1-3c0.8,0,1.4-0.7,1.4-1.5c0-0.9,0.7-1.8,1.5-2.1c0.8-0.4,1.5-1.2,1.5-1.9s1.1-2.3,2.5-3.6
		c1.3-1.3,2.5-2.9,2.5-3.5c0-0.7,0.7-1.4,1.5-1.8c0.8-0.3,1.5-1.2,1.5-2.1c0-0.8,0.6-1.5,1.4-1.5c0.7,0,1.6-1.4,2-3
		c0.3-1.7,1.2-3,2-3s1.7-0.9,2.1-1.9c0.3-1.1,1.2-2.2,2-2.5s1.5-1.2,1.5-2.1c0-0.8,0.5-1.5,1.1-1.5c0.5,0,1.5-1.4,2-3
		c0.6-1.7,1.5-3,2-3s1.3-0.8,1.6-1.7c0.4-0.9,1.5-2.5,2.5-3.5s1.8-2.7,1.8-3.8c0-1.1,0.5-2,1.1-2c1.5,0,5.9-4.2,5.9-5.7
		c0-0.6,1.4-1.4,3-1.8c1.7-0.4,3-1,3-1.5c0-1.3,4.6-6,5.9-6c0.6,0,1.1-0.6,1.1-1.4s1.1-2.4,2.5-3.7c1.3-1.3,2.5-3,2.5-3.7
		c0-0.6,0.7-1.2,1.5-1.2s1.5-0.7,1.5-1.5s0.7-1.5,1.5-1.5s1.5-0.4,1.5-0.9s2.5-3.5,5.5-6.6c3-3,5.5-5.8,5.5-6.2c0-0.8,1-1.8,8.9-10
		c3.4-3.4,6.1-6.6,6.1-7.2s0.5-1.1,1.2-1.1c0.6,0,2.9-1.8,5-4c2.2-2.2,4.6-4,5.4-4c0.8,0,1.4-0.7,1.4-1.5s0.8-1.5,1.9-1.5
		c1,0,2.1-0.9,2.4-2c0.3-1.1,1.2-2,2.1-2s1.6-0.7,1.6-1.5s0.5-1.5,1-1.5c0.6,0,4.9-3.8,9.5-8.5c4.7-4.7,8.8-8.5,9.1-8.5
		c0.3,0,5.1-4.6,10.8-10.3c5.6-5.6,11.5-10.8,12.9-11.6c1.5-0.8,2.7-1.8,2.7-2.3c0-0.4,0.9-0.8,2-0.8c1.1,0,2.3-0.7,2.6-1.5
		c0.3-0.8,1.6-1.7,2.7-2.1c1.2-0.4,3.6-2.2,5.4-4c1.7-1.9,3.6-3.4,4.2-3.4s1.1-0.7,1.1-1.5s1.4-1.7,3.5-2.1c2-0.4,3.5-1.2,3.5-2
		c0-0.8,0.7-1.7,1.6-2.1c0.9-0.3,3-1.9,4.7-3.5c1.8-1.6,4.2-3.1,5.4-3.4c1.2-0.3,2.4-1.2,2.7-2c0.3-0.8,1.2-1.4,2.1-1.4
		c0.8,0,1.5-0.6,1.5-1.4c0-0.7,0.9-1.6,2-1.9c1.1-0.3,2-1.2,2-2.1s0.6-1.6,1.4-1.6c0.7,0,3-1.6,5-3.5c2.1-1.9,4.2-3.5,4.8-3.5
		c0.5,0,2.1-0.9,3.5-2c1.4-1.1,3.4-2,4.3-2c1,0,2-0.7,2.4-1.5c0.3-0.8,1.2-1.5,2.1-1.5c0.8,0,1.5-0.6,1.5-1.4s1.5-1.7,3.4-2
		c1.9-0.4,3.7-1.3,4-2.1s1.2-1.5,2.1-1.5c0.8,0,1.5-0.7,1.5-1.5c0-1,1-1.5,3-1.5c1.8,0,3.3-0.6,3.6-1.5c0.4-0.8,1.2-1.5,1.8-1.5
		c0.7,0,2.2-0.9,3.4-2c1.2-1.1,2.8-2,3.7-2c0.9,0,1.8-0.6,2.1-1.4c0.3-0.8,1.9-1.8,3.6-2.1c1.6-0.4,3.2-1.3,3.5-2.1
		c0.3-0.7,2-1.6,3.9-2c1.9-0.3,3.4-1,3.4-1.4c0-0.4,1.8-1.2,4-1.9c2.2-0.6,4-1.6,4-2.1c0-0.6,0.6-1,1.3-1s2.8-0.8,4.7-1.9
		c1.9-1,4.9-2.1,6.7-2.5c1.7-0.4,3.4-1.4,3.7-2.2c0.3-0.8,1.8-1.4,3.3-1.4c1.7,0,3.3-0.8,4.1-2c0.7-1.1,2.3-2,3.6-2s2.6-0.7,3-1.5
		c0.3-0.8,1.2-1.5,2.1-1.5c0.8,0,1.5-0.5,1.5-1c0-0.6,1.6-1,3.5-1c2.4,0,3.9-0.6,4.7-2c0.8-1.3,2.4-2,4.4-2c5.1,0,9.4-1.2,9.4-2.5
		c0-0.9,2.4-1.4,8.2-1.7c5.3-0.2,8.3-0.8,8.6-1.6c0.5-1.5,26.2-1.8,26.2-0.2c0,0.5,1.1,1.2,2.4,1.6c1.7,0.4,2.7,1.5,3.1,3.6
		c0.4,1.6,1.3,3.2,2.1,3.5c2.2,0.8,2,21.1-0.2,22.7c-1.1,0.8-1.8,3.4-2.2,8.1c-0.3,3.8-1.1,7.6-1.9,8.3c-0.7,0.8-1.3,3.5-1.3,6.3
		c0,4.1-0.5,5.3-3,7.7c-1.6,1.6-3,3.8-3,4.9c0,1-0.7,2.8-1.5,3.9c-0.8,1-2,3.7-2.6,5.8c-0.6,2.1-1.7,4.5-2.5,5.3s-1.4,2.5-1.4,3.9
		s-0.6,2.7-1.4,3c-0.8,0.3-1.7,2-2,3.9c-0.4,1.8-1.3,3.6-2.1,3.9c-0.9,0.3-1.5,1.8-1.5,3.6c0,2-0.5,3-1.5,3c-0.8,0-1.7,1.4-2.1,3.5
		c-0.3,1.9-1,3.5-1.4,3.5c-1,0-3,4.7-3,7c0,1.1-0.4,2-0.9,2c-1.2,0-6.1,8.4-6.1,10.3c0,0.8-0.6,1.7-1.4,2c-0.8,0.3-1.7,1.9-2.1,3.5
		c-0.3,1.7-1.3,3.3-2.1,3.6c-0.8,0.3-1.4,1.2-1.4,2.1c0,0.8-0.4,1.5-0.9,1.5s-1.5,1.6-2.2,3.5c-0.7,1.9-1.9,3.5-2.6,3.5
		s-1.3,0.7-1.3,1.5c0,0.9-0.9,2.5-2,3.7c-1.1,1.2-2,2.8-2,3.5s-0.4,1.3-0.9,1.3s-1.4,1.5-2.2,3.2c-0.7,1.8-1.9,3.7-2.6,4.1
		c-0.7,0.4-1.3,1.2-1.3,1.7c0,1.3-3.7,5-5,5c-0.5,0-1,0.9-1,2c0,1.1-0.7,2.3-1.5,2.6s-1.7,1.6-2.1,2.7c-0.4,1.2-2.2,3.6-4,5.3
		c-1.8,1.8-3.6,4.4-4,5.8c-0.3,1.4-1.2,2.6-2,2.6s-1.4,0.5-1.4,1.2c0,1.1-1.4,2.9-5.2,6.6c-1,0.9-1.8,2.2-1.8,2.9s-0.6,1.3-1.4,1.3
		c-0.8,0-1.7,1.3-2.1,3c-0.4,1.7-1.3,3-2.1,3s-1.8,0.8-2.1,1.7c-0.4,1-1.9,3-3.5,4.5c-1.5,1.5-2.8,3.2-2.8,3.7
		c0,0.6-0.6,1.4-1.2,1.8c-1.4,0.9-4,5.1-6,9.5c-0.7,1.5-2,2.9-3,3.1c-1,0.3-1.8,1.2-1.8,2.1c0,0.9-0.7,1.6-1.5,1.6s-2.3,0.9-3.2,2
		c-1,1.1-2.3,2-3,2s-1.3,0.7-1.3,1.6s-0.9,1.8-2,2.1c-1.1,0.3-2,1.2-2,1.9c0,0.8-0.7,1.4-1.5,1.4s-1.5,0.9-1.5,2c0,1.3-0.7,2-1.9,2
		c-1.3,0-2.1,0.9-2.6,3c-0.4,1.6-1.2,3-1.8,3c-0.7,0.1-2.1,1.2-3.2,2.6c-1.1,1.4-5.3,5.9-9.2,10.1c-4,4.1-7.3,7.9-7.3,8.4
		s-0.6,0.9-1.4,0.9c-0.8,0-1.7,1.3-2.1,3c-0.4,1.6-1.2,3-1.8,3c-1.5,0-5.7,4.4-5.7,5.9c0,0.6-0.7,1.1-1.6,1.1s-1.8,0.9-2.1,1.9
		c-0.3,1.2-1.7,2.3-3.4,2.6c-1.6,0.4-2.9,1.3-2.9,2.1s-0.7,1.4-1.5,1.4c-0.9,0-1.8,0.7-2.1,1.5c-0.4,0.8-1.2,1.5-1.9,1.5
		s-1.5,0.9-1.8,2c-0.3,1.1-1.2,2-2.1,2c-0.9,0-1.6,0.7-1.6,1.5s-0.7,1.5-1.5,1.5s-2.5,1.1-3.7,2.5c-1.2,1.4-2.8,2.5-3.5,2.5
		s-1.3,0.7-1.3,1.5s-0.6,1.5-1.3,1.5c-0.6,0-2.5,1.6-4.1,3.5c-1.6,1.9-3.3,3.5-3.8,3.5s-3.8,3-7.3,6.7c-8,8.4-7.4,7.9-10.8,10.8
		c-1.5,1.4-3.2,2.5-3.7,2.5s-1.5,0.8-2.2,1.9c-0.7,1-2.4,2.2-3.7,2.6c-1.3,0.4-3.7,2-5.2,3.6c-1.6,1.6-3.2,2.9-3.6,2.9
		c-0.5,0-1.6,0.9-2.6,2c-0.9,1.1-2.6,2-3.7,2c-1.2,0-2,0.7-2,1.6s-0.9,1.8-1.9,2.1c-1.1,0.3-2.2,1.1-2.5,1.9
		c-0.3,0.8-1.2,1.4-2.1,1.4c-0.8,0-1.5,0.6-1.5,1.4c0,0.8-1.3,1.7-2.9,2.1c-1.6,0.3-3.2,1.3-3.5,2.1c-0.3,0.8-1.2,1.4-2.1,1.4
		c-0.8,0-1.5,0.7-1.5,1.5s-0.5,1.5-1.1,1.5s-2.5,1.1-4.3,2.5c-1.8,1.4-3.6,2.5-4,2.5c-0.4,0-2,1.3-3.6,3c-1.6,1.6-4,3.2-5.4,3.6
		c-1.3,0.3-2.7,1.2-3,2c-0.3,0.8-1,1.4-1.6,1.4c-0.6,0-2.3,1.3-3.9,2.9c-1.5,1.6-3.9,3.2-5.2,3.6c-1.3,0.4-4,2-6,3.6
		s-4.8,3.3-6.3,3.8c-1.4,0.6-2.6,1.5-2.6,2.1c0,0.5-0.9,1-2,1c-1.1,0-2.8,0.9-3.7,2c-1,1.1-2.1,2-2.6,2c-1.4,0-5.7,4.3-5.7,5.7
		c0,0.7-0.6,1.6-1.2,2c-1.7,1.1-3.8,4.9-3.8,6.8c0,0.9-0.7,2.7-1.6,4c-1.3,1.9-1.5,4.8-1.2,15.1c0.2,9.1,0.7,12.9,1.6,13.2
		c0.6,0.2,1.2,1.5,1.2,2.9c0,3.4,2.1,10.3,3.2,10.3c0.4,0,0.8,2.2,0.8,4.8c0,4.7,1.8,10.2,3.3,10.2c0.4,0,0.7,11,0.7,24.5
		c0,20.1-0.2,24.5-1.4,24.5c-1.5,0-2.6,4.2-2.6,10.1c0,2.2-0.4,3.9-0.9,3.9c-1.1,0-3.1,5.5-3.1,8.6c0,1.2-0.5,2.4-1.1,2.6
		c-0.5,0.2-1.3,2.4-1.6,4.8c-0.3,2.5-0.9,4.7-1.2,5c-1.4,1.2-3.1,5.2-3.1,7.4c0,1.3-0.7,2.6-1.5,3c-0.8,0.3-1.5,1.2-1.5,2
		c0,0.7-0.6,1.6-1.4,1.9c-0.8,0.3-1.7,1.9-2.1,3.6c-0.4,1.7-1.1,3.1-1.6,3.1s-1.2,1.8-1.5,4c-0.4,2.2-1.2,4-1.9,4s-1.6,1.6-1.9,3.5
		c-0.4,1.9-1.1,3.5-1.6,3.5c-0.6,0-1,0.6-1,1.3c0,0.6-1.1,3.3-2.5,5.9c-1.4,2.6-2.5,5.6-2.5,6.8c0,1.1-0.5,2-1,2
		c-0.6,0-1.5,1.1-2,2.5c-0.5,1.4-1.4,2.5-1.9,2.5c-0.6,0-1.3,1.6-1.7,3.5c-0.3,1.9-1.2,3.5-1.9,3.5s-1.5,1.4-1.9,3.1
		c-0.3,1.6-1.3,3.7-2.1,4.5c-1,1.1-1.5,3.6-1.5,7.9c0,4.1-0.4,6.5-1.2,6.7c-1.6,0.6-1.5,9.1,0.1,9.6c0.6,0.2,1.1,2.7,1.1,5.8
		c0,3.8,0.4,5.6,1.4,6c0.8,0.3,1.7,1.7,2.1,3.2c0.4,1.5,1.5,3.5,2.6,4.5c1,1,1.9,2.7,1.9,3.7c0,1.1,0.7,2,1.5,2
		c0.9,0,1.8,0.7,2.1,1.5c0.4,0.8,1.2,1.5,1.9,1.5s1.5,0.7,1.8,1.4c0.3,0.8,2.5,2,4.9,2.7c2.4,0.6,4.5,1.5,4.8,2
		c1.7,2.6,23.8,2.9,264.7,2.9c177.1,0,251,0.3,253,1.1c1.5,0.6,8.9,1.3,16.3,1.6c7.4,0.3,13.8,1,14.1,1.6c0.4,0.5,4.4,1.4,9,2
		c4.6,0.6,8.6,1.4,8.9,1.8c0.3,0.5,4.4,1.1,9,1.5c4.7,0.4,9,1.3,9.8,2c0.7,0.7,3.9,1.6,7.2,2c3.6,0.4,6.1,1.2,6.4,2
		c0.4,0.9,2.2,1.4,5.6,1.4c3.6,0,5,0.4,5,1.4c0,1.3,4.1,2.6,8.2,2.6c1.1,0,2.6,0.7,3.4,1.5c0.9,0.8,3.3,1.5,5.5,1.5
		c2.6,0,3.9,0.4,3.9,1.4c0,1.5,3,2.6,7.1,2.6c1.5,0,2.9,0.7,3.2,1.4c0.3,0.8,2.2,1.8,4.1,2.2c2,0.3,3.6,1,3.6,1.4
		c0,0.5,1.4,1.2,3.1,1.5c1.8,0.4,4.4,2,5.9,3.5s4.1,3.1,5.9,3.5c1.7,0.3,3.1,1,3.1,1.3c0,0.4,1,1.2,2.3,1.8c6.7,3.4,8.7,4.6,8.7,5.5
		c0,0.5,0.9,0.9,2,0.9c1.1,0,2.9,0.9,3.9,1.9s3.3,2.2,5,2.6c1.7,0.4,3.1,1,3.1,1.4c0,0.4,1.6,1.3,3.5,2.1c1.9,0.8,3.5,1.7,3.5,2.1
		c0,0.4,1.4,1,3,1.4c1.7,0.4,3.5,1.5,4,2.6c0.6,1,1.7,1.9,2.5,1.9s1.5,0.4,1.5,0.9s1.4,1.2,3,1.6c1.7,0.4,3,1.3,3,2
		c0,0.8,0.9,1.6,1.9,2c1.1,0.3,2.2,1.2,2.5,2c0.3,0.8,1.2,1.5,2.1,1.5c0.8,0,1.5,0.5,1.5,1c0,0.6,1.2,1.6,2.8,2.3
		c1.5,0.6,3.1,1.7,3.5,2.4c0.4,0.7,1.4,1.3,2.2,1.3c0.7,0,1.7,0.9,2,2c0.3,1.1,1.3,2,2.1,2c0.8,0,1.4,0.5,1.4,1
		c0,0.6,0.8,1.4,1.7,1.7c1,0.4,3,1.9,4.5,3.5c1.5,1.5,2.9,2.8,3.2,2.8c0.6,0,4.6,3.5,11.1,9.7c3.1,2.9,6,5.3,6.5,5.3
		c0.6,0,1,0.5,1,1.1c0,1.5,8.4,9.9,9.8,9.9c0.6,0,1.3,1.3,1.7,3c0.4,1.6,1.3,3,2.1,3c0.8,0,1.4,0.7,1.4,1.6c0,0.9,0.9,1.8,2,2.1
		c1.1,0.3,2,1.1,2,1.7c0,0.7,1.3,2.3,3,3.6c1.6,1.4,2.9,2.9,3,3.3c0,0.5,1.8,2.6,4,4.8c2.2,2.2,4,4.5,4,5.2s0.9,2,2,3
		c1.1,0.9,2,2.3,2,2.9c0,0.7,0.9,1.9,2,2.6c1.1,0.7,2,1.9,2,2.7c0,0.8,0.5,1.5,1.1,1.5c1.3,0,4.8,4.1,4.9,5.7c0,0.7,0.6,1.6,1.3,2
		c1.1,0.7,2.5,2.9,5.2,7.9c0.6,1.2,1.8,2.9,2.8,3.8c0.9,1,1.7,2.6,1.7,3.7c0,1,0.7,1.9,1.5,1.9s1.5,0.9,1.5,2c0,1.1,0.6,2.3,1.4,2.6
		c0.8,0.3,1.8,1.9,2.1,3.6c0.4,1.6,1.3,3.2,2.1,3.5c0.8,0.3,1.4,1.2,1.4,2c0,0.9,0.9,3,1.9,4.7s2.2,4.6,2.6,6.4
		c0.3,1.7,1,3.2,1.4,3.2s1.3,1.6,2,3.5c0.7,1.9,1.7,3.5,2.2,3.5s0.9,1.1,0.9,2.5c0,1.4,0.9,3.3,2,4.2c1.2,1.1,2,3,2,5
		c0,2.2,0.5,3.3,1.4,3.3s1.6,1.7,2.1,4.9c0.4,2.8,1.3,5.2,2.1,5.5c0.8,0.3,1.4,1.6,1.4,3c0,1.4,0.7,3.2,1.6,4
		c0.8,0.9,1.8,3.3,2.1,5.3c0.3,2.1,1.4,5.6,2.4,7.9c1,2.2,1.9,5,1.9,6.2s0.4,2.2,0.9,2.2s1.2,1.4,1.6,3c0.4,1.7,1.3,3,2.1,3
		c1,0,1.4,1.4,1.4,5.5c0,3.5,0.5,5.7,1.4,6.2c0.8,0.5,1.5,3.5,1.8,8.2c0.4,5,1.1,7.8,2,8.5c1.1,0.8,1.7,3.8,2,11.1
		c0.3,6.4,0.8,10,1.6,10.3c0.8,0.2,1.2,3.7,1.2,11c0,12.9,1.6,27.6,3,28c1.2,0.4,1.4,30.2,0.1,30.2c-1.3,0-3.1,13.9-3.1,24.4
		c0,6.4-0.5,10.3-1.5,12.2c-0.9,1.8-1.5,5.7-1.5,10.1c0,5.5-0.3,7.3-1.4,7.3c-1.3,0-2.6,6.5-2.6,13.3c0,1.6-0.7,3.5-1.5,4.3
		c-1,1-1.5,3.5-1.5,7c0,4.8-0.4,5.8-3,8.4c-1.6,1.6-3,3.8-3,4.8c0,4-1.3,8.2-2.5,8.2c-0.8,0-1.4,2-1.7,5.2c-0.3,2.9-1,5.4-1.6,5.6
		c-0.7,0.2-1.5,2.6-1.8,5.4c-0.4,2.7-1.2,5.2-1.9,5.5c-0.7,0.2-1.6,2.5-2,5.1c-0.4,2.6-1.1,5-1.7,5.3c-0.5,0.3-1.4,2.6-1.9,5
		c-0.6,2.4-1.5,4.6-2.1,5c-0.5,0.4-1.3,2.7-1.5,5.3c-0.4,2.8-1.1,4.6-1.8,4.6c-1.5,0-2.5,2.2-2.5,5.6c0,1.4-0.6,2.4-1.4,2.4
		c-0.8,0-1.7,1.5-2,3.5C1590.6,1483.5,1589.9,1485.1,1589.5,1485.1z"/>
</g>
</svg>
