<svg xmlns="http://www.w3.org/2000/svg" width="112" height="57.98" viewBox="0 0 112 57.98">
  <g id="Лосось" transform="translate(1.5 1.489)">
    <g id="Group_9" data-name="Group 9">
      <path id="Stroke_1" data-name="Stroke 1" d="M0,21.988c39.5,38.114,72.227.336,86.836-.069,5.242-.151,15.275,8.039,22.164,9.064C104.206,7.8,106.449,10.608,108.1.714,97.7,2.579,89.23,12.732,85.183,12.886,70.315,13.431,38.775-16.135,0,12.528,0,12.528,12.123,20.654,0,21.988Z" transform="translate(0 10)" fill="none" stroke="#D7BB77" stroke-linecap="round" stroke-linejoin="round" stroke-miterlimit="10" stroke-width="3"/>
      <path id="Stroke_3" data-name="Stroke 3" d="M0,9.974C17.981,2.458,20.222-3.016,25.367,1.836c4.436,4.188,11.2,17.093,10.594,16.111" transform="translate(32)" fill="none" stroke="#D7BB77" stroke-linecap="round" stroke-linejoin="round" stroke-miterlimit="10" stroke-width="3"/>
      <path id="Fill_5" data-name="Fill 5" d="M7,3.5A3.5,3.5,0,1,1,3.5,0,3.5,3.5,0,0,1,7,3.5" transform="translate(13 21)" fill="#D7BB77"/>
      <path id="Stroke_7" data-name="Stroke 7" d="M0,9.537c17.938,7.076,20.188,6.711,25.321,2.138,0,0,7.331-9.362,9.679-11.675" transform="translate(34 40)" fill="none" stroke="#D7BB77" stroke-linecap="round" stroke-linejoin="round" stroke-miterlimit="10" stroke-width="3"/>
    </g>
  </g>
</svg>
