<svg xmlns="http://www.w3.org/2000/svg" width="77.274" height="89.835" viewBox="0 0 77.274 89.835">
  <g id="Индейка" transform="translate(2.133 2.008)">
    <g id="Group_15" data-name="Group 15" transform="translate(73)">
      <path id="Stroke_1" data-name="Stroke 1" d="M-29.325,32.415C-30.513,21.224-17.7,10.327-25.762,2.671c-4.51-4.281-10.2-3.142-13.8,1.472a50.234,50.234,0,0,0-5.73,9.673.51.51,0,0,0,.73.643c1.731-1.03,4.538-2.484,5.145-1.482.891,1.473-8.9,17.85-12.174,26.5C-58.72,58.33-49.814,76-27.544,76,2.149,76,4.15,51.886-4.416,42.154-10.916,34.77-17.7,32.709-29.325,32.415Z" transform="translate(-19)" fill="none" stroke="#fefefe" stroke-linecap="round" stroke-miterlimit="10" stroke-width="4"/>
      <path id="Fill_3" data-name="Fill 3" d="M-4,2A2,2,0,0,0-2,4,2,2,0,0,0,0,2,2,2,0,0,0-2,0,2,2,0,0,0-4,2" transform="translate(-50 5)" fill="#fefefe"/>
      <g id="Group_8" data-name="Group 8" transform="translate(-46 76)">
        <path id="Fill_5" data-name="Fill 5" d="M-.25,0V6.4" transform="translate(-0.421 0.433)" fill="#fefefe"/>
        <path id="Stroke_7" data-name="Stroke 7" d="M-.25,0V6.4" transform="translate(-0.421 0.433)" fill="none" stroke="#fefefe" stroke-linecap="round" stroke-miterlimit="10" stroke-width="4"/>
      </g>
      <path id="Stroke_9" data-name="Stroke 9" d="M0,.6C-4.25-.647-12.261.164-14,2" transform="translate(-38 83)" fill="none" stroke="#fefefe" stroke-linecap="round" stroke-linejoin="round" stroke-miterlimit="10" stroke-width="4"/>
      <path id="Stroke_11" data-name="Stroke 11" d="M0,4.673q-4.607,8.826-6.129,8.3c-1.16-.4-1.253-4.409.279-12.97" transform="translate(-52 11)" fill="none" stroke="#fefefe" stroke-linecap="round" stroke-miterlimit="10" stroke-width="4"/>
      <path id="Stroke_13" data-name="Stroke 13" d="M-30.96,28.933c-.67-.357,7.192-21.857,10.264-27.02,2.456-4.127,8.867-.666,9.538,1.87.787,2.974-1.363,6.756.591,8.921,2.236,2.477,7.23-.359,7.23,7.533,0,3.965-2.98,4.16-.049,6.738C.374,30.283.734,33.177-.993,35.3c-2.681,3.3-2.681,3.3-3.112,5.363-.577,2.76,2.707,3,2.707,6.17,0,4.612-4.7,5.97-4.894,8.944-.138,2.1,3.058,5.559-1.335,7.728-4.309,2.126-15.71-3.35-15.71-3.35" transform="translate(0 7)" fill="none" stroke="#fefefe" stroke-linecap="round" stroke-miterlimit="10" stroke-width="4"/>
    </g>
  </g>
</svg>
