<svg id="fb" xmlns="http://www.w3.org/2000/svg" width="46" height="41" viewBox="0 0 46 41">
  <path id="Fill_1" data-name="Fill 1" d="M36.108,2.177A4.634,4.634,0,0,0,32.333,0H13.667A4.636,4.636,0,0,0,9.892,2.177L.559,18.323a4.624,4.624,0,0,0,0,4.354L9.892,38.823A4.634,4.634,0,0,0,13.667,41H32.333a4.636,4.636,0,0,0,3.775-2.177l9.333-16.146a4.624,4.624,0,0,0,0-4.354Z" fill="#F5F1E5"/>
  <path id="Path" d="M11.732,0,8.808,0A5.033,5.033,0,0,0,3.4,5.334V7.793H.46A.451.451,0,0,0,0,8.235V11.8a.451.451,0,0,0,.46.442H3.4v8.991a.451.451,0,0,0,.46.442H7.7a.451.451,0,0,0,.46-.442V12.24h3.438a.451.451,0,0,0,.46-.442V8.235a.434.434,0,0,0-.135-.312.469.469,0,0,0-.325-.13H8.155V5.708c0-1,.248-1.511,1.606-1.511h1.97a.451.451,0,0,0,.46-.442V.446A.451.451,0,0,0,11.732,0Z" transform="translate(17.223 9.482)" fill="#D7BB77"/>
</svg>
