<svg xmlns="http://www.w3.org/2000/svg" width="70.227" height="63" viewBox="0 0 70.227 63">
  <g id="Group_2" data-name="Group 2" transform="translate(7.114 6)">
    <path id="Fill_1" data-name="Fill 1" d="M43.957,2.708A5.637,5.637,0,0,0,39.362,0H16.638a5.606,5.606,0,0,0-4.6,2.708L.681,22.792a5.861,5.861,0,0,0,0,5.416L12.042,48.292A5.637,5.637,0,0,0,16.638,51H39.362a5.606,5.606,0,0,0,4.6-2.708L55.319,28.208a5.861,5.861,0,0,0,0-5.416Z" fill="#d7bb77"/>
    <path id="Fill_1-2" data-name="Fill 1" d="M53.377,3.239A6.849,6.849,0,0,0,47.8,0H20.2a6.839,6.839,0,0,0-5.581,3.239L.827,27.261a6.919,6.919,0,0,0,0,6.478l13.8,24.021A6.849,6.849,0,0,0,20.2,61H47.8a6.839,6.839,0,0,0,5.581-3.239l13.8-24.021a6.919,6.919,0,0,0,0-6.478Z" transform="translate(-6 -5)" fill="none" stroke="#e6c978" stroke-miterlimit="10" stroke-width="2"/>
  </g>
</svg>
