<svg id="btn_cat" xmlns="http://www.w3.org/2000/svg" width="112" height="100" viewBox="0 0 112 100">
  <g id="Fill_1" data-name="Fill 1" fill="none" stroke-miterlimit="10">
    <path d="M87.915,5.31S84.851,0,78.723,0H33.275s-6.128,0-9.191,5.31L1.362,44.691s-3.064,5.31,0,10.62L24.084,94.69S27.148,100,33.275,100H78.723s6.128,0,9.191-5.31l22.724-39.379s3.064-5.31,0-10.62Z" stroke="none"/>
    <path d="M 33.27545928955078 2 C 33.26349639892578 2 32.01171875 2.023780822753906 30.48368072509766 2.553436279296875 C 28.40995788574219 3.272216796875 26.83963775634766 4.535919189453125 25.81633758544922 6.309402465820313 L 3.097953796386719 45.68356704711914 C 3.064483642578125 45.74419784545898 2.44635009765625 46.880615234375 2.1534423828125 48.51277923583984 C 1.77484130859375 50.62245941162109 2.091300964355469 52.57329940795898 3.094001770019531 54.31108093261719 L 25.81200408935547 93.68305206298828 C 25.84266662597656 93.73408508300781 26.51743316650391 94.84246063232422 27.78858184814453 95.91654205322266 C 29.42469787597656 97.29901885986328 31.27075958251953 98 33.27545928955078 98 L 78.72306060791016 98 C 78.73501586914063 98 79.98680114746094 97.97621917724609 81.51483917236328 97.44656372070313 C 83.58856201171875 96.727783203125 85.15888214111328 95.46408081054688 86.18222045898438 93.69049835205078 L 108.9020538330078 54.31789779663086 C 108.9356689453125 54.25700759887695 109.5536880493164 53.12066268920898 109.8465576171875 51.48870086669922 C 110.2251586914063 49.37902069091797 109.9086990356445 47.42818069458008 108.9059982299805 45.6904182434082 L 86.18218231201172 6.309417724609375 C 86.17620086669922 6.299057006835938 85.529541015625 5.225898742675781 84.306884765625 4.166397094726563 C 82.64797973632813 2.7288818359375 80.76931762695313 2 78.72306060791016 2 L 33.27545928955078 2 M 33.27545928955078 0 L 78.72306060791016 0 C 84.85070037841797 0 87.91449737548828 5.309883117675781 87.91449737548828 5.309883117675781 L 110.638298034668 44.69084167480469 C 113.7021179199219 50.00074005126953 110.638298034668 55.31063842773438 110.638298034668 55.31063842773438 L 87.91449737548828 94.69010162353516 C 84.85070037841797 100 78.72306060791016 100 78.72306060791016 100 L 33.27545928955078 100 C 27.14781951904297 100 24.08402252197266 94.69010162353516 24.08402252197266 94.69010162353516 L 1.361701965332031 55.31063842773438 C -1.702117919921875 50.00074005126953 1.361701965332031 44.69084167480469 1.361701965332031 44.69084167480469 L 24.08402252197266 5.309883117675781 C 27.14781951904297 0 33.27545928955078 0 33.27545928955078 0 Z" stroke="none" fill="#d7bb77"/>
  </g>
  <path id="Fill_1-2" data-name="Fill 1" d="M1.19,48.579,11.666,47.9c9-1.22,7.508-8.549,7.508-8.549h.01c0,.154.011.292.011.428.087-15.837,8.028-19.592,11.289-20.471.618-.132,1.278-.257,2-.354L35.7,10.514l.628-1.647a12.335,12.335,0,0,0,1.529-1.173A27.475,27.475,0,0,0,44.285,0a6.568,6.568,0,0,1,.542,1.262A5.866,5.866,0,0,1,45.077,4a2.648,2.648,0,0,1-.141.571s4.236,1.3,4.626,2.827c.042.175.1.356.152.519a4.237,4.237,0,0,0,1.528,2.419,2.3,2.3,0,0,1,.738,1.119,10.968,10.968,0,0,1-2.374,3.6,2.139,2.139,0,0,0-1.364.467,2.263,2.263,0,0,0-.564.537v.01a2.917,2.917,0,0,0-.519,1.765,10.525,10.525,0,0,0,2.176,5.692A22.573,22.573,0,0,0,44.7,37.257a20.132,20.132,0,0,0,.294,4.628A25.858,25.858,0,0,0,46.2,47.04,3.031,3.031,0,0,0,47.8,48.7h-.01a7.434,7.434,0,0,1,.9.462,1.028,1.028,0,0,1,.243,1.409.984.984,0,0,1-.817.432H45a2.08,2.08,0,0,1-1.809-1.241l-3.455-8.6s-.944,1-1.409,1.562.229,1.011.087,2.328S36.38,48.1,36.38,48.1a15.978,15.978,0,0,1,1.961.827,1.08,1.08,0,0,1,.612,1.384,1.047,1.047,0,0,1-.992.7H24.224a3.941,3.941,0,0,1-3.185-1.544c-.033-.051-.065-.1-.1-.145a14.209,14.209,0,0,1-4.107,1.3,32.673,32.673,0,0,1-3.434.365c-.606.027-.974.027-.974.027l-.13-.027H2.817c-.65,0-2.817-.537-2.817-1.2a1.205,1.205,0,0,1,1.192-1.2" transform="translate(24 22)" fill="#d7bb77"/>
</svg>
