<svg id="btn_dog" xmlns="http://www.w3.org/2000/svg" width="112" height="100" viewBox="0 0 112 100">
  <g id="Fill_1" data-name="Fill 1" fill="none" stroke-miterlimit="10">
    <path d="M87.915,5.31S84.851,0,78.723,0H33.275s-6.128,0-9.191,5.31L1.362,44.691s-3.064,5.31,0,10.62L24.084,94.69S27.148,100,33.275,100H78.723s6.128,0,9.191-5.31l22.724-39.379s3.064-5.31,0-10.62Z" stroke="none"/>
    <path d="M 33.27545928955078 2 C 33.26349639892578 2 32.01171875 2.023780822753906 30.48368072509766 2.553436279296875 C 28.40995788574219 3.272216796875 26.83963775634766 4.535919189453125 25.81633758544922 6.309402465820313 L 3.097953796386719 45.68356704711914 C 3.064483642578125 45.74419784545898 2.44635009765625 46.880615234375 2.1534423828125 48.51277923583984 C 1.77484130859375 50.62245941162109 2.091300964355469 52.57329940795898 3.094001770019531 54.31108093261719 L 25.81200408935547 93.68305206298828 C 25.84266662597656 93.73408508300781 26.51743316650391 94.84246063232422 27.78858184814453 95.91654205322266 C 29.42469787597656 97.29901885986328 31.27075958251953 98 33.27545928955078 98 L 78.72306060791016 98 C 78.73501586914063 98 79.98680114746094 97.97621917724609 81.51483917236328 97.44656372070313 C 83.58856201171875 96.727783203125 85.15888214111328 95.46408081054688 86.18222045898438 93.69049835205078 L 108.9020538330078 54.31789779663086 C 108.9356689453125 54.25700759887695 109.5536880493164 53.12066268920898 109.8465576171875 51.48870086669922 C 110.2251586914063 49.37902069091797 109.9086990356445 47.42818069458008 108.9059982299805 45.6904182434082 L 86.18218231201172 6.309417724609375 C 86.17620086669922 6.299057006835938 85.529541015625 5.225898742675781 84.306884765625 4.166397094726563 C 82.64797973632813 2.7288818359375 80.76931762695313 2 78.72306060791016 2 L 33.27545928955078 2 M 33.27545928955078 0 L 78.72306060791016 0 C 84.85070037841797 0 87.91449737548828 5.309883117675781 87.91449737548828 5.309883117675781 L 110.638298034668 44.69084167480469 C 113.7021179199219 50.00074005126953 110.638298034668 55.31063842773438 110.638298034668 55.31063842773438 L 87.91449737548828 94.69010162353516 C 84.85070037841797 100 78.72306060791016 100 78.72306060791016 100 L 33.27545928955078 100 C 27.14781951904297 100 24.08402252197266 94.69010162353516 24.08402252197266 94.69010162353516 L 1.361701965332031 55.31063842773438 C -1.702117919921875 50.00074005126953 1.361701965332031 44.69084167480469 1.361701965332031 44.69084167480469 L 24.08402252197266 5.309883117675781 C 27.14781951904297 0 33.27545928955078 0 33.27545928955078 0 Z" stroke="none" fill="#d7bb77"/>
  </g>
  <path id="Fill_1-2" data-name="Fill 1" d="M62.489,5.177c-1.051-.337-2.816-.545-3.255-.775a.358.358,0,0,1-.13-.1,14.492,14.492,0,0,0-.933-1.523A5.123,5.123,0,0,0,55.746.813C55.668.8,55.584.767,55.509.754L55.347.71a.649.649,0,0,0-.12-.036l-.132-.04A7.346,7.346,0,0,1,53.592,0,4.765,4.765,0,0,0,51.2.652c0,.015-.019.023-.025.038A.988.988,0,0,1,51.1.817a8.392,8.392,0,0,1-1.847,1.869c-.256.21-1.007.826-1.891,1.576L44.628,6.518a.036.036,0,0,0-.013.013,22.787,22.787,0,0,1-7.161,4.438q-1.355.324-2.732.524c-1.792.262-3.228.348-3.228.348-1.866.084-4.9.239-7.5.39l-5.253.258H18.7q-1.488.063-2.967.216h-.1c-.361.042-.6.073-.735.1l-.193.038a6.043,6.043,0,0,0-1.074.36A5.656,5.656,0,0,0,10.2,18.153v.193a.644.644,0,0,1,0,.09c-.91,3.9-4.232,9.187-9.456,9.542A.043.043,0,0,1,.7,28a1.032,1.032,0,0,0-.42.1.514.514,0,0,0-.109.84l.063.048a.029.029,0,0,0,.019,0,.554.554,0,0,0,.25.09,1.871,1.871,0,0,0,.307.019,12.614,12.614,0,0,0,9.858-4.264,6.329,6.329,0,0,1-3.48,6.734v-.017c-.086.046-.166.1-.248.151L3.132,33.666l.721,9.684A.717.717,0,0,0,4.6,44H8.259c.349,0,.42-.174.42-.279a1.89,1.89,0,0,0-2.089-1.666,1.357,1.357,0,0,0-.242.042s-1.273-4.316.683-6a21.591,21.591,0,0,1,3.612-2.185c.275-.151.572-.3.857-.446a31.1,31.1,0,0,0,5.693-3.893,13.942,13.942,0,0,0,4.2-5.448s3.7-1.573,9.629,1.863,0,0,.013,0a16.158,16.158,0,0,0,8.679,1.7L39.549,38.1l.017,1.02.5,1.722.185,2.531a.647.647,0,0,0,.664.631l.048,0H44.1a.4.4,0,0,0,.443-.358.567.567,0,0,0,0-.061,1.756,1.756,0,0,0-1.9-1.6l-.05,0V39.528c0-.48.036-1.02.092-1.615a26.021,26.021,0,0,1,2.051-8.207,23.707,23.707,0,0,1,5.22-7.532,17.892,17.892,0,0,1,.118-2.148c.191-.968.511-2.3.792-3.394a15.086,15.086,0,0,1,5.39-7.279,32.34,32.34,0,0,0,5.5-.587,1.489,1.489,0,0,0,.279-.367c0-.017.021-.034.027-.048a1.09,1.09,0,0,1,.08-.124,1.233,1.233,0,0,0,.061-.115.484.484,0,0,1,.038-.073c.019-.044.038-.088.061-.13l.088-.186a.023.023,0,0,1,0-.017c.09-.2.143-.339.143-.339A7.328,7.328,0,0,0,63,5.739a.58.58,0,0,0-.527-.553" transform="translate(24 29)" fill="#d7bb77"/>
</svg>
