<svg xmlns="http://www.w3.org/2000/svg" width="111.993" height="100" viewBox="0 0 111.993 100">
  <g id="btn_cat_copy" data-name="btn_cat copy" transform="translate(-0.003)">
    <path id="Combined_Shape" data-name="Combined Shape" d="M78.723,100H33.276a10.487,10.487,0,0,1-6.894-2.655,11.778,11.778,0,0,1-2.3-2.655L1.362,55.31a10.5,10.5,0,0,1-1.149-7.3A11.784,11.784,0,0,1,1.362,44.69L24.084,5.31A10.491,10.491,0,0,1,29.829.664,11.766,11.766,0,0,1,33.276,0H78.723a10.487,10.487,0,0,1,6.894,2.655,11.777,11.777,0,0,1,2.3,2.655l22.723,39.38a10.5,10.5,0,0,1,1.149,7.3,11.788,11.788,0,0,1-1.149,3.319L87.915,94.69a10.491,10.491,0,0,1-5.745,4.646A11.766,11.766,0,0,1,78.723,100ZM44.942,71.32h0l.035.051c.021.031.041.06.062.093a3.923,3.923,0,0,0,3.12,1.545H61.971a1.052,1.052,0,0,0,.981-.7,1.08,1.08,0,0,0-.612-1.383,16.03,16.03,0,0,0-1.961-.827c.018-.017,1.9-1.756,2.036-3.05a3.357,3.357,0,0,0-.15-1.4c-.1-.37-.18-.637.063-.933.459-.555,1.4-1.552,1.409-1.562l3.455,8.6A2.068,2.068,0,0,0,69,73.007h3.116a.985.985,0,0,0,.812-.433,1.03,1.03,0,0,0-.243-1.409,7.6,7.6,0,0,0-.9-.462h.01A3.017,3.017,0,0,1,70.2,69.04a25.924,25.924,0,0,1-1.213-5.155,20.16,20.16,0,0,1-.293-4.628,22.664,22.664,0,0,1,1.192-7.265,22.35,22.35,0,0,1,3.445-6.468,10.49,10.49,0,0,1-2.177-5.692,2.932,2.932,0,0,1,.519-1.765v-.01a2.286,2.286,0,0,1,.564-.537,2.156,2.156,0,0,1,1.33-.466h.035a10.92,10.92,0,0,0,2.373-3.6,2.289,2.289,0,0,0-.738-1.119,4.245,4.245,0,0,1-1.527-2.419c-.067-.2-.116-.371-.151-.518-.386-1.508-4.584-2.815-4.626-2.828a2.688,2.688,0,0,0,.14-.571,5.9,5.9,0,0,0-.25-2.734A6.621,6.621,0,0,0,68.285,22a27.359,27.359,0,0,1-6.423,7.693,12.389,12.389,0,0,1-1.528,1.174L59.7,32.513l-3.217,8.446c-.626.084-1.263.2-2,.354-3.333.9-11.1,4.661-11.286,20.176,0-.032-.009-.058-.013-.081s0-.034,0-.052h-.009s0,.012.005.026l0,.025c0,.06,0,.119.005.175s.005.135.005.2c0-.085,0-.17,0-.254v-.04a7.293,7.293,0,0,1-1.274,5.278c-1.27,1.692-3.375,2.749-6.256,3.139l-10.477.674,0,.006A1.211,1.211,0,0,0,24,71.783c0,.659,2.126,1.2,2.816,1.2H36.3l.131.027s.375,0,.974-.027a32.651,32.651,0,0,0,3.434-.365,14.208,14.208,0,0,0,4.106-1.3Z" fill="#fff"/>
  </g>
</svg>
