<svg xmlns="http://www.w3.org/2000/svg" width="111.993" height="100" viewBox="0 0 111.993 100">
  <g id="btn_dog" transform="translate(-0.003)">
    <path id="Combined_Shape" data-name="Combined Shape" d="M78.723,100H33.276a10.487,10.487,0,0,1-6.894-2.655,11.778,11.778,0,0,1-2.3-2.655L1.362,55.31a10.5,10.5,0,0,1-1.149-7.3A11.784,11.784,0,0,1,1.362,44.69L24.084,5.31A10.491,10.491,0,0,1,29.829.664,11.766,11.766,0,0,1,33.276,0H78.723a10.487,10.487,0,0,1,6.894,2.655,11.777,11.777,0,0,1,2.3,2.655l22.723,39.38a10.5,10.5,0,0,1,1.149,7.3,11.788,11.788,0,0,1-1.149,3.319L87.915,94.69a10.491,10.491,0,0,1-5.745,4.646A11.766,11.766,0,0,1,78.723,100ZM31.188,60.548c-.048.026-.1.056-.141.085s-.072.046-.108.066l-3.808,1.967.721,9.684a.721.721,0,0,0,.714.65h3.693c.39,0,.42-.213.42-.278A1.886,1.886,0,0,0,30.8,71.043a1.918,1.918,0,0,0-.211.012,1.3,1.3,0,0,0-.242.042.031.031,0,0,1,0-.011,11.932,11.932,0,0,1-.388-2.358c-.067-1.176.065-2.761,1.075-3.631a21.719,21.719,0,0,1,3.612-2.185c.216-.118.448-.236.671-.351l.186-.1a31.073,31.073,0,0,0,5.693-3.893,13.975,13.975,0,0,0,4.2-5.448,6.7,6.7,0,0,1,2.376-.359,14.555,14.555,0,0,1,7.252,2.222l2.635,1.527-.411-.239-.008,0c-.712-.413-2.192-1.274-2.2-1.284a16.225,16.225,0,0,0,7.321,1.753c.451,0,.908-.019,1.357-.057L63.549,67.1l.016,1.021.5,1.722.185,2.532A.65.65,0,0,0,64.9,73h3.2l.043,0a.4.4,0,0,0,.4-.36c0-.019,0-.04,0-.061A1.766,1.766,0,0,0,66.8,70.967c-.048,0-.1,0-.146.006H66.6V68.528c0-.437.029-.951.093-1.616a25.968,25.968,0,0,1,2.051-8.206,23.6,23.6,0,0,1,5.219-7.532,18.1,18.1,0,0,1,.118-2.148c.173-.872.469-2.14.792-3.394a15.019,15.019,0,0,1,5.39-7.279,32.352,32.352,0,0,0,5.5-.586,1.49,1.49,0,0,0,.28-.367.058.058,0,0,1,.015-.03.1.1,0,0,0,.012-.018,1.081,1.081,0,0,1,.08-.124.414.414,0,0,0,.038-.069c.007-.015.014-.03.023-.046a.507.507,0,0,1,.038-.073c.019-.044.038-.088.061-.131l.088-.186a.025.025,0,0,1,0-.016c.089-.193.141-.334.143-.34A7.337,7.337,0,0,0,87,34.739a.584.584,0,0,0-.527-.554l.016-.008a17.5,17.5,0,0,0-1.813-.42,7.566,7.566,0,0,1-1.441-.356.343.343,0,0,1-.131-.1,14.649,14.649,0,0,0-.933-1.524,5.1,5.1,0,0,0-2.425-1.967,1,1,0,0,1-.125-.03,1.04,1.04,0,0,0-.113-.028l-.162-.044a.666.666,0,0,0-.12-.035l-.132-.04a7.392,7.392,0,0,1-1.5-.635,4.785,4.785,0,0,0-2.391.652.033.033,0,0,1-.013.022.056.056,0,0,0-.012.016.864.864,0,0,1-.077.128,8.4,8.4,0,0,1-1.847,1.869c-.352.288-1.066.875-1.892,1.575l-2.731,2.257a.028.028,0,0,0-.013.013,22.7,22.7,0,0,1-7.161,4.437c-.919.22-1.839.4-2.732.524-1.766.258-3.213.347-3.227.348-2.036.091-5.122.252-7.5.39l-5.253.257H42.7c-1,.043-2,.115-2.967.216h-.1c-.4.046-.614.075-.735.1l-.193.038a6.077,6.077,0,0,0-1.074.36A5.686,5.686,0,0,0,34.2,47.153v.193a.739.739,0,0,1,0,.09,14.814,14.814,0,0,1-3.111,6.1,9.329,9.329,0,0,1-6.346,3.441.044.044,0,0,1-.037.019H24.7a1.033,1.033,0,0,0-.42.1.516.516,0,0,0-.223.693.5.5,0,0,0,.114.147l.063.049h.019a.547.547,0,0,0,.249.09,1.952,1.952,0,0,0,.273.019h.034c.131,0,.263.006.394.006a12.616,12.616,0,0,0,9.464-4.27,6.33,6.33,0,0,1-3.479,6.735Z" fill="#fff"/>
  </g>
</svg>
