<svg id="ProPlan_logo" xmlns="http://www.w3.org/2000/svg" xmlns:xlink="http://www.w3.org/1999/xlink" width="310.174" height="99.638" viewBox="0 0 310.174 99.638">
  <defs>
    <clipPath id="clip-path">
      <path id="Clip_2" data-name="Clip 2" d="M0,0H310.174V99.638H0Z" fill="none"/>
    </clipPath>
  </defs>
  <g id="Group_3" data-name="Group 3">
    <path id="Clip_2-2" data-name="Clip 2" d="M0,0H310.174V99.638H0Z" fill="none"/>
    <g id="Group_3-2" data-name="Group 3" clip-path="url(#clip-path)">
      <path id="Fill_1" data-name="Fill 1" d="M0,.629l53.453,89s6.421,10.691,18.887,10.691H239.126s12.465,0,18.887-10.691L309.143,0" transform="translate(0 -0.629)" fill="#0b0b09"/>
    </g>
  </g>
  <path id="Fill_4" data-name="Fill 4" d="M47.585,22.776h0A8.784,8.784,0,0,1,41.926,20.6c-.239-.222-.486-.474-.734-.748l-4.569-4.984c-.914-.983-1.435-1.02-4.412-1.073v4.941c0,2.509.678,2.771,2.225,2.771h1.132v.758l-.85-.013H34.71c-1.433-.022-2.786-.042-4.211-.042-1.774,0-3.7.032-4.991.055V21.5h.7c1.929,0,2.58-.541,2.58-2.144V6.645c0-1.6-.651-2.137-2.58-2.137h-.7v-.76c1.975.037,3.608.056,4.991.056,1.44,0,2.664-.017,3.745-.032.869-.012,1.687-.024,2.456-.024,2.975,0,5.218.657,6.666,1.952a4.124,4.124,0,0,1,1.487,2.849A4.06,4.06,0,0,1,42.817,12.1a10.334,10.334,0,0,1-3.5,1.3c.069.087,7.087,8.866,9.66,8.866l.011.354-.005,0A5.947,5.947,0,0,1,47.585,22.776ZM34.67,4.725c-.864,0-1.549.045-2.274.093l-.186.012v7.8a13.3,13.3,0,0,0,2.654.182c4.071,0,6.405-1.375,6.405-3.771a3.871,3.871,0,0,0-1.264-2.589A7.538,7.538,0,0,0,34.67,4.725Zm138.9,17.813h-1.161L156.559,6.676h-.075c0,4.068.078,8.137.234,12.094.074,2.1.667,2.735,2.54,2.735h.785v.76l-.436-.008c-1.209-.021-2.579-.046-3.863-.046-1.424,0-2.934.028-4.148.051l-.143,0v-.76h.628c2.017,0,2.42-.524,2.537-3.3.155-3.374.236-8.3.236-11.427a2.066,2.066,0,0,0-.674-1.837,3.653,3.653,0,0,0-2.14-.43h-1.093V3.751c.935.024,2.171.054,3.437.054,1.091,0,2.118-.026,3.077-.054l14.868,15.084h.077l-.235-10.7c-.075-2.913-.621-3.624-2.777-3.624h-.47V3.751c.862.019,2.554.054,4.217.054,1.378,0,2.779-.025,4.214-.054v.762h-.625c-1.128,0-2.341.218-2.462,2.817l-.7,15.207Zm-115.083,0a11.2,11.2,0,0,1-7.593-2.771A8.924,8.924,0,0,1,47.9,13.111,9.369,9.369,0,0,1,51.135,6a10.784,10.784,0,0,1,3.4-2.019,11.559,11.559,0,0,1,4.029-.719A11.338,11.338,0,0,1,62.611,4a10.872,10.872,0,0,1,3.381,2.039A9.127,9.127,0,0,1,69.174,12.9C69.174,17.639,65.175,22.538,58.484,22.538Zm0-18c-4.734,0-7.561,3.041-7.561,8.134,0,4.182,2.955,8.7,7.729,8.7s7.5-2.983,7.5-8.184C66.154,8.936,63.285,4.54,58.484,4.54Zm18.03,17.776h0v-.923h.843c2.314,0,3.095-.648,3.095-2.567V3.506c0-1.933-.781-2.585-3.095-2.585h-.843V0c.56.011,1.1.026,1.673.043H78.2c1.1.032,2.23.065,3.616.065,1.266,0,2.567-.027,3.825-.054S88.2,0,89.477,0c3.409,0,6.032.684,7.8,2.033a5,5,0,0,1,2.118,3.9,4.765,4.765,0,0,1-2.347,4.056c-1.929,1.3-4.9,1.953-8.838,1.953-1.427,0-2.789-.087-4.232-.18l-.1-.007v6.32c0,3,.818,3.317,2.685,3.317h1.364v.923c-.79-.011-1.575-.03-2.336-.048h-.011c-1.226-.03-2.492-.06-3.764-.06-1.38,0-2.509.033-3.6.065-.579.017-1.125.033-1.7.044ZM86.84.921c-1.149,0-2.19.067-2.968.125V10a15.232,15.232,0,0,0,4.852.756,7.292,7.292,0,0,0,4.831-1.4,3.668,3.668,0,0,0,1.336-2.82,4.778,4.778,0,0,0-2.137-4.188A10.49,10.49,0,0,0,86.84.921ZM0,22.316H0v-.923H.844c2.314,0,3.095-.648,3.095-2.567V3.506C3.939,1.574,3.158.921.844.921H0V0C.565.011,1.109.026,1.685.043,2.78.075,3.913.108,5.3.108,6.562.108,7.862.081,9.119.054S11.689,0,12.963,0c3.409,0,6.032.684,7.8,2.033a5,5,0,0,1,2.119,3.9A4.765,4.765,0,0,1,20.53,9.988c-1.929,1.3-4.9,1.953-8.839,1.953-1.429,0-2.794-.088-4.239-.181l-.092-.006v6.32c0,3,.818,3.317,2.684,3.317h1.364v.923c-.788-.011-1.573-.03-2.333-.048H9.064c-1.226-.03-2.493-.06-3.767-.06-1.377,0-2.505.033-3.6.065-.582.017-1.131.033-1.7.044ZM10.327.921c-1.151,0-2.19.067-2.967.125V10a15.21,15.21,0,0,0,4.849.756,7.293,7.293,0,0,0,4.832-1.4,3.668,3.668,0,0,0,1.335-2.82,4.778,4.778,0,0,0-2.135-4.188A10.487,10.487,0,0,0,10.327.921Zm119.721,21.35h0c-.616-.024-2.377-.039-4.484-.039s-3.736.015-4.161.039V21.51h.467c2.091,0,2.955-.58,4.2-2.82l2.822-4.952a5.343,5.343,0,0,0-1.521-.23,7.916,7.916,0,0,0-1.506.17,5.845,5.845,0,0,0-2.875,1.8.137.137,0,0,1-.091.062.037.037,0,0,1-.033-.018.158.158,0,0,1,.014-.137c1.292-2.886,3.943-3.33,5.825-3.413.1,0,.2-.007.306-.007a7.126,7.126,0,0,1,.859.053l5.139-9.016h.742l10.04,15.971c1.07,1.728,2.324,2.533,3.945,2.533h.823v.76c-1.487-.051-3.285-.055-5.312-.055-2.1,0-3.95,0-5.392.056V21.51h.974c1.286,0,1.994-.3,1.994-.836a3.442,3.442,0,0,0-.549-1.305l-2.85-4.7-.1-.15a7.763,7.763,0,0,1-4.4,1.124h-.111a11.172,11.172,0,0,1-3.966-1.117l-.089-.042c-.1-.046-.192-.09-.285-.132l-.159.318L128.254,18.8a4.722,4.722,0,0,0-.665,1.879c0,.769,2.066.829,2.7.829l.158,0-.4.769Zm4.393-15.719-2.969,5.827a13.8,13.8,0,0,1,1.415.546,13.491,13.491,0,0,0,5.049,1.528,3.48,3.48,0,0,0,.694-.066,2.049,2.049,0,0,0,.5-.193l-.317-.5Zm-32.7,15.7h0v-.76h.7c1.926,0,2.576-.539,2.576-2.136V6.64c0-1.6-.65-2.139-2.576-2.139h-.7V3.743c1.888.035,3.567.053,4.991.053,1.443,0,2.851-.02,4.341-.041l.848-.012V4.5h-.9c-1.928,0-2.579.54-2.579,2.139V18.757c0,1.813.586,2.4,4.246,2.509.02,0,1.979.055,3.68.055a14.8,14.8,0,0,0,2.5-.11c.69-.207,2.076-2.768,2.09-2.794l.515.048-1.8,3.735c-.25-.009-1.077-.014-2.528-.014-4.838,0-14.384.051-15.41.07Z" transform="translate(68.06 51.97)" fill="#fffffe"/>
  <path id="Fill_5" data-name="Fill 5" d="M0,18.956H104.921V0H0Z" transform="translate(104.023 28.869)" fill="#fffffe"/>
  <path id="Fill_6" data-name="Fill 6" d="M0,17.7H18.334V0H0Z" transform="translate(104.683 29.512)" fill="#fffffe"/>
  <path id="Fill_7" data-name="Fill 7" d="M0,17.7H17.694V0H0Z" transform="translate(104.683 29.512)" fill="#cf232a"/>
  <path id="Fill_8" data-name="Fill 8" d="M85.317,17.7,0,17.7V0H85.317V17.7" transform="translate(122.966 29.512)" fill="#181917"/>
  <path id="Fill_9" data-name="Fill 9" d="M5.225,11.822H0v-.64H.593a.984.984,0,0,0,.9-.4A2.564,2.564,0,0,0,1.632,9.63V2.193c0-.883-.116-1.154-.185-1.237A1.074,1.074,0,0,0,.593.64H0V0H4.35A7.544,7.544,0,0,1,6.82.329,3.5,3.5,0,0,1,8.384,1.456a2.953,2.953,0,0,1,.643,1.9,3.219,3.219,0,0,1-.969,2.414,3.777,3.777,0,0,1-2.713.93,7.227,7.227,0,0,1-.911-.062c-.24-.032-.515-.079-.84-.145V9.63c0,.888.122,1.156.195,1.237a1.035,1.035,0,0,0,.839.315h.6v.639ZM4.519,1.007a4.452,4.452,0,0,0-.926.128V5.661c.263.046.466.079.638.1A4.881,4.881,0,0,0,4.8,5.8a1.793,1.793,0,0,0,1.374-.63,2.369,2.369,0,0,0,.585-1.661,3.081,3.081,0,0,0-.284-1.32A1.948,1.948,0,0,0,5.688,1.3,2.282,2.282,0,0,0,4.519,1.007Z" transform="translate(126.491 32.482)" fill="#fffffe"/>
  <path id="Fill_10" data-name="Fill 10" d="M8.191,0V.639h.59a1.065,1.065,0,0,1,.849.316c.071.084.191.357.191,1.237V6.838a7.172,7.172,0,0,1-.313,2.529,2.485,2.485,0,0,1-1.147,1.176,3.984,3.984,0,0,1-1.943.471A3.1,3.1,0,0,1,5,10.719a2.267,2.267,0,0,1-.867-.741A3.112,3.112,0,0,1,3.715,8.7a10.833,10.833,0,0,1-.122-1.51v-5a2.329,2.329,0,0,1,.178-1.176.942.942,0,0,1,.86-.377h.594V0H0V.639H.587a1.016,1.016,0,0,1,.8.273,2.077,2.077,0,0,1,.245,1.28V6.679a9.685,9.685,0,0,0,.281,2.883,3.711,3.711,0,0,0,1.442,1.833,5.318,5.318,0,0,0,2.944.679,4.981,4.981,0,0,0,2.824-.708,3.538,3.538,0,0,0,1.408-1.711,8.4,8.4,0,0,0,.354-2.731V2.278a2.375,2.375,0,0,1,.149-1.139.983.983,0,0,1,.891-.5h.592V0H8.191" transform="translate(137.941 32.413)" fill="#fffffe"/>
  <path id="Fill_11" data-name="Fill 11" d="M5.229,11.822H0v-.638H.592a.985.985,0,0,0,.893-.4,2.518,2.518,0,0,0,.147-1.153V2.2c0-.889-.121-1.158-.193-1.239A1.06,1.06,0,0,0,.592.641H0V0H4.345A10.07,10.07,0,0,1,7.088.276,3.244,3.244,0,0,1,8.637,1.31a2.729,2.729,0,0,1,.644,1.813,2.848,2.848,0,0,1-.733,1.949A3.9,3.9,0,0,1,6.561,6.165L8.8,9.26a5.849,5.849,0,0,0,1.352,1.474,3.355,3.355,0,0,0,1.453.451l.145.016v.62H8.421l-3.9-5.375c-.238.008-.442.013-.6.013-.084,0-.16,0-.236,0l-.067,0h-.02V9.631c0,.843.106,1.138.2,1.237a1.024,1.024,0,0,0,.831.315h.608v.638ZM4.746.977a6.607,6.607,0,0,0-1.151.141V5.58l.159,0,.147,0a3.52,3.52,0,0,0,2.342-.67A2.1,2.1,0,0,0,7.01,3.232,2.2,2.2,0,0,0,6.392,1.6,2.224,2.224,0,0,0,4.746.977Z" transform="translate(153.364 32.479)" fill="#fffffe"/>
  <path id="Fill_12" data-name="Fill 12" d="M0,0V.639H.569a1.431,1.431,0,0,1,.694.184.6.6,0,0,1,.272.281,3.51,3.51,0,0,1,.1,1.09V9.628a2.333,2.333,0,0,1-.171,1.206,1.052,1.052,0,0,1-.894.349H0v.638H5.228v-.638H4.653A1.37,1.37,0,0,1,3.972,11a.593.593,0,0,1-.281-.281,3.554,3.554,0,0,1-.1-1.091V2.193c0-.85.108-1.118.174-1.2A1.035,1.035,0,0,1,4.653.639h.575V0H0" transform="translate(168.076 32.484)" fill="#fffffe"/>
  <path id="Fill_13" data-name="Fill 13" d="M12.893,0H8.567V.639H9.13a1.109,1.109,0,0,1,.872.3c.075.083.2.348.2,1.222V8.321L3.359,0H0V.639H.165a2.544,2.544,0,0,1,.7.071,2.624,2.624,0,0,1,.712.329,4.959,4.959,0,0,1,.689.71V9.657A2.338,2.338,0,0,1,2.1,10.81a1.017,1.017,0,0,1-.909.372H.629v.639H4.954v-.639H4.382a1.117,1.117,0,0,1-.872-.3c-.069-.079-.188-.346-.188-1.221V3.033l7.4,8.975h.54V2.164a2.354,2.354,0,0,1,.159-1.153,1.009,1.009,0,0,1,.9-.372h.574V0" transform="translate(177.18 32.482)" fill="#fffffe"/>
  <path id="Fill_14" data-name="Fill 14" d="M3.933,12.075H0v-.612l.136-.025a1.719,1.719,0,0,0,.846-.291,5.113,5.113,0,0,0,.92-1.61L6.052,0h.562c3.947,9.642,3.951,9.648,3.953,9.651a4.22,4.22,0,0,0,.83,1.438,1.617,1.617,0,0,0,1,.346l.153.01v.628H7.657v-.63l.158-.008a1.5,1.5,0,0,0,.831-.191.422.422,0,0,0,.18-.341A3.331,3.331,0,0,0,8.5,9.8c0-.008-.518-1.267-.637-1.554H3.619c-.006.014-.735,1.684-.738,1.7a2.6,2.6,0,0,0-.275.937.422.422,0,0,0,.186.334,1.983,1.983,0,0,0,.991.223l.15.012v.627ZM5.806,3.212,4.043,7.266H7.464Z" transform="translate(192.209 32.227)" fill="#fffffe"/>
  <path id="Fill_15" data-name="Fill 15" d="M0,16.439H16.43V0H0Z" transform="translate(105.314 30.144)" fill="#fffffe"/>
  <path id="Fill_16" data-name="Fill 16" d="M0,5.059H5.056V0H0Z" transform="translate(105.944 40.893)" fill="#cf232a"/>
  <path id="Fill_17" data-name="Fill 17" d="M0,5.059H5.054V0H0Z" transform="translate(116.058 40.893)" fill="#cf232a"/>
  <path id="Fill_18" data-name="Fill 18" d="M0,5.059H5.056V0H0Z" transform="translate(111 35.834)" fill="#cf232a"/>
  <path id="Fill_19" data-name="Fill 19" d="M0,5.059H5.056V0H0Z" transform="translate(105.944 30.775)" fill="#cf232a"/>
  <path id="Fill_20" data-name="Fill 20" d="M0,5.059H5.054V0H0Z" transform="translate(116.058 30.775)" fill="#cf232a"/>
  <path id="Fill_21" data-name="Fill 21" d="M1.591,3.185A1.593,1.593,0,1,1,3.183,1.592,1.594,1.594,0,0,1,1.591,3.185Zm0-2.875a1.216,1.216,0,0,0-1.2,1.282,1.217,1.217,0,0,0,1.2,1.284A1.219,1.219,0,0,0,2.8,1.592,1.218,1.218,0,0,0,1.591.31ZM1.313,2.489H.98V.685h.668c.454,0,.666.168.666.528a.449.449,0,0,1-.474.485l.486.789H1.985l-.47-.776h-.2v.776Zm0-1.55v.517h.295c.188,0,.372-.021.372-.269,0-.167-.12-.247-.367-.247Z" transform="translate(210.038 29.184)" fill="#fffffe"/>
  <path id="Fill_22" data-name="Fill 22" d="M1.591,3.185A1.593,1.593,0,1,1,3.182,1.592,1.594,1.594,0,0,1,1.591,3.185Zm0-2.875a1.217,1.217,0,0,0-1.2,1.282,1.218,1.218,0,0,0,1.2,1.284,1.218,1.218,0,0,0,1.2-1.284A1.217,1.217,0,0,0,1.591.31ZM1.313,2.487H.978V.684h.67c.454,0,.666.168.666.529a.448.448,0,0,1-.474.484l.485.788H1.984l-.468-.774h-.2v.774Zm0-1.548v.516h.295c.188,0,.372-.021.372-.269,0-.166-.12-.247-.367-.247Z" transform="translate(246.562 55.734)" fill="#fffffe"/>
</svg>
