<svg xmlns="http://www.w3.org/2000/svg" width="46" height="41" viewBox="0 0 46 41">
  <g id="ok" transform="translate(-0.818)">
    <path id="Fill_1" data-name="Fill 1" d="M36.108,2.177A4.634,4.634,0,0,0,32.333,0H13.667A4.636,4.636,0,0,0,9.892,2.177L.559,18.323a4.624,4.624,0,0,0,0,4.354L9.892,38.823A4.634,4.634,0,0,0,13.667,41H32.333a4.636,4.636,0,0,0,3.775-2.177l9.333-16.146a4.624,4.624,0,0,0,0-4.354Z" transform="translate(0.818)" fill="#F5F1E5"/>
    <path id="Combined_Shape" data-name="Combined Shape" d="M2.032,21.533a1.478,1.478,0,0,1-.93-1.367,1.332,1.332,0,0,1,.5-.917q2.025-1.863,4.043-3.731c.089-.083.172-.171.3-.3A9.709,9.709,0,0,1,1.036,13.6c-.175-.127-.357-.25-.517-.392a1.217,1.217,0,0,1-.193-1.826A1.476,1.476,0,0,1,2.184,11a2.948,2.948,0,0,1,.406.221,8.624,8.624,0,0,0,8.923.076,2.5,2.5,0,0,1,.869-.414,1.416,1.416,0,0,1,1.562.574,1.15,1.15,0,0,1-.1,1.6,7.3,7.3,0,0,1-2.595,1.545,13.064,13.064,0,0,1-2.946.608c.151.152.223.227.318.314,1.363,1.264,2.733,2.521,4.093,3.788a1.178,1.178,0,0,1,.3,1.469,1.633,1.633,0,0,1-1.515.87,1.518,1.518,0,0,1-.958-.452c-1.03-.954-2.078-1.891-3.086-2.864-.293-.283-.435-.23-.694.016-1.035.983-2.088,1.949-3.146,2.912a1.43,1.43,0,0,1-.973.4A1.514,1.514,0,0,1,2.032,21.533Zm5.037-10.02a5.765,5.765,0,0,1-5.715-5.77A5.769,5.769,0,0,1,7.122,0h.017a5.684,5.684,0,0,1,4.046,1.692,5.755,5.755,0,0,1-4.1,9.822ZM7.112,2.94A2.817,2.817,0,1,0,7.12,8.575h.01A2.817,2.817,0,0,0,7.115,2.94h0Z" transform="translate(17.545 9.482)" fill="#D7BB77"/>
  </g>
</svg>
