<svg xmlns="http://www.w3.org/2000/svg" width="46" height="41" viewBox="0 0 46 41">
  <g id="vk" transform="translate(-0.182)">
    <path id="Fill_1" data-name="Fill 1" d="M36.108,2.177A4.634,4.634,0,0,0,32.333,0H13.667A4.636,4.636,0,0,0,9.892,2.177L.559,18.323a4.624,4.624,0,0,0,0,4.354L9.892,38.823A4.634,4.634,0,0,0,13.667,41H32.333a4.636,4.636,0,0,0,3.775-2.177l9.333-16.146a4.624,4.624,0,0,0,0-4.354Z" transform="translate(0.182)" fill="#d7bb77"/>
    <path id="XMLID_807_" d="M22.073,10.422a6.507,6.507,0,0,1,.808,1.15c.311.594.029,1.248-.51,1.284H19.017A2.606,2.606,0,0,1,16.881,12c-.464-.467-.895-.964-1.341-1.447a3.164,3.164,0,0,0-.6-.53.705.705,0,0,0-1.117.268,3.444,3.444,0,0,0-.353,1.546c-.036.78-.275.985-1.068,1.021a8.669,8.669,0,0,1-4.8-1.019,10.553,10.553,0,0,1-3.23-2.986A40.066,40.066,0,0,1,.116,1.367C-.152.777.044.46.7.449,1.8.428,2.892.43,3.988.448a.963.963,0,0,1,.911.673A20.025,20.025,0,0,0,7.125,5.194a3.49,3.49,0,0,0,.841.913.513.513,0,0,0,.868-.252A2.8,2.8,0,0,0,9.027,5a12.564,12.564,0,0,0-.054-2.994A1.255,1.255,0,0,0,7.9.864C7.576.8,7.624.686,7.779.506A1.211,1.211,0,0,1,8.808,0H12.6c.6.116.729.381.811.974l0,4.159c-.007.23.116.911.535,1.063.335.108.556-.157.757-.366a12.88,12.88,0,0,0,2.134-3.24c.257-.512.478-1.044.692-1.575a.811.811,0,0,1,.857-.58l3.649,0a1.949,1.949,0,0,1,.322.019c.615.1.783.365.593.958A8.97,8.97,0,0,1,21.5,3.9c-.609.831-1.259,1.634-1.863,2.471-.554.764-.51,1.149.178,1.812A31.147,31.147,0,0,1,22.073,10.422Z" transform="translate(11.127 14.9)" fill="#fff"/>
  </g>
</svg>
